<?xml version="1.0" encoding="UTF-8" standalone="no"?>
<svg
   xmlns:dc="http://purl.org/dc/elements/1.1/"
   xmlns:cc="http://creativecommons.org/ns#"
   xmlns:rdf="http://www.w3.org/1999/02/22-rdf-syntax-ns#"
   xmlns:svg="http://www.w3.org/2000/svg"
   xmlns="http://www.w3.org/2000/svg"
   xmlns:sodipodi="http://sodipodi.sourceforge.net/DTD/sodipodi-0.dtd"
   xmlns:inkscape="http://www.inkscape.org/namespaces/inkscape"
   width="576px"
   height="432px"
   viewBox="0 0 576 432"
   id="svg3157"
   version="1.1"
   inkscape:version="0.48.4 r9939"
   sodipodi:docname="coupe_vp_mono_smooth_vert.svg"
   inkscape:export-filename="/home/dinsenma/Desktop/Stage_M2/redaction/img/mono_param/coupe_vp_mono_smooth_vert.png"
   inkscape:export-xdpi="200"
   inkscape:export-ydpi="200">
  <metadata
     id="metadata3329">
    <rdf:RDF>
      <cc:Work
         rdf:about="">
        <dc:format>image/svg+xml</dc:format>
        <dc:type
           rdf:resource="http://purl.org/dc/dcmitype/StillImage" />
        <dc:title>glps_renderer figure</dc:title>
      </cc:Work>
    </rdf:RDF>
  </metadata>
  <sodipodi:namedview
     pagecolor="#ffffff"
     bordercolor="#666666"
     borderopacity="1"
     objecttolerance="10"
     gridtolerance="10"
     guidetolerance="10"
     inkscape:pageopacity="0"
     inkscape:pageshadow="2"
     inkscape:window-width="1600"
     inkscape:window-height="847"
     id="namedview3327"
     showgrid="false"
     inkscape:zoom="1.0925926"
     inkscape:cx="235.90244"
     inkscape:cy="244.86411"
     inkscape:window-x="0"
     inkscape:window-y="31"
     inkscape:window-maximized="1"
     inkscape:current-layer="svg3157" />
  <title
     id="title3159">glps_renderer figure</title>
  <desc
     id="desc3161">
Creator: GL2PS 1.3.8, (C) 1999-2012 C. Geuzaine
For: Octave
CreationDate: Tue Jun 28 13:53:38 2016
</desc>
  <defs
     id="defs3163" />
  <polygon
     style="fill:#ffffff;stroke-width:2.50000000000000000;stroke-miterlimit:4;stroke-dasharray:none"
     id="polygon3167"
     points="521.28,384.48 521.28,384.48 521.28,32.4 " />
  <polygon
     style="fill:#ffffff;stroke-width:2.50000000000000000;stroke-miterlimit:4;stroke-dasharray:none"
     id="polygon3169"
     points="521.28,384.48 521.28,32.4 521.28,32.4 " />
  <polygon
     style="fill:#ffffff;stroke-width:2.50000000000000000;stroke-miterlimit:4;stroke-dasharray:none"
     id="polygon3171"
     points="74.8799,32.4 74.8799,32.4 521.28,32.4 " />
  <polygon
     style="fill:#ffffff;stroke-width:2.50000000000000000;stroke-miterlimit:4;stroke-dasharray:none"
     id="polygon3173"
     points="74.8799,32.4 521.28,32.4 521.28,32.4 " />
  <polygon
     style="fill:#ffffff;stroke-width:2.50000000000000000;stroke-miterlimit:4;stroke-dasharray:none"
     id="polygon3175"
     points="74.8799,32.4 74.8799,384.48 521.28,384.48 " />
  <polygon
     style="fill:#ffffff;stroke-width:2.50000000000000000;stroke-miterlimit:4;stroke-dasharray:none"
     id="polygon3177"
     points="74.8799,32.4 521.28,384.48 521.28,32.4 " />
  <polyline
     style="fill:none;stroke:#000000;stroke-width:2.50000000000000000;stroke-miterlimit:4;stroke-dasharray:none"
     id="polyline3179"
     points="74.8799,384.48 521.28,384.48" />
  <polyline
     style="fill:none;stroke:#000000;stroke-width:2.50000000000000000;stroke-miterlimit:4;stroke-dasharray:none"
     id="polyline3181"
     points="74.8799,32.4 521.28,32.4" />
  <polyline
     style="fill:none;stroke:#000000;stroke-width:2.50000000000000000;stroke-miterlimit:4;stroke-dasharray:none"
     id="polyline3183"
     points="74.8799,32.4 521.28,32.4" />
  <polyline
     style="fill:none;stroke:#000000;stroke-width:2.50000000000000000;stroke-miterlimit:4;stroke-dasharray:none"
     id="polyline3185"
     points="74.8799,384.48 521.28,384.48" />
  <polyline
     style="fill:none;stroke:#000000;stroke-width:2.50000000000000000;stroke-miterlimit:4;stroke-dasharray:none"
     id="polyline3187"
     points="74.8799,384.48 74.8799,32.4" />
  <polyline
     style="fill:none;stroke:#000000;stroke-width:2.50000000000000000;stroke-miterlimit:4;stroke-dasharray:none"
     id="polyline3189"
     points="521.28,384.48 521.28,32.4" />
  <polyline
     style="fill:none;stroke:#000000;stroke-width:2.50000000000000000;stroke-miterlimit:4;stroke-dasharray:none"
     id="polyline3191"
     points="521.28,384.48 521.28,32.4" />
  <polyline
     style="fill:none;stroke:#000000;stroke-width:2.50000000000000000;stroke-miterlimit:4;stroke-dasharray:none"
     id="polyline3193"
     points="74.8799,384.48 74.8799,32.4 74.8799,32.4" />
  <polyline
     style="fill:none;stroke:#000000;stroke-width:2.50000000000000000;stroke-miterlimit:4;stroke-dasharray:none"
     id="polyline3195"
     points="521.28,32.4 521.28,32.4" />
  <polyline
     style="fill:none;stroke:#000000;stroke-width:2.50000000000000000;stroke-miterlimit:4;stroke-dasharray:none"
     id="polyline3197"
     points="521.28,384.48 521.28,384.48" />
  <polyline
     style="fill:none;stroke:#000000;stroke-width:2.50000000000000000;stroke-miterlimit:4;stroke-dasharray:none"
     id="polyline3199"
     points="74.8799,384.48 74.8799,384.48 74.8799,380.015" />
  <polyline
     style="fill:none;stroke:#000000;stroke-width:2.50000000000000000;stroke-miterlimit:4;stroke-dasharray:none"
     id="polyline3201"
     points="74.8799,32.4 74.8799,36.865" />
  <polyline
     style="fill:none;stroke:#000000;stroke-width:2.50000000000000000;stroke-miterlimit:4;stroke-dasharray:none"
     id="polyline3203"
     points="149.28,384.48 149.28,380.015" />
  <polyline
     style="fill:none;stroke:#000000;stroke-width:2.50000000000000000;stroke-miterlimit:4;stroke-dasharray:none"
     id="polyline3205"
     points="149.28,32.4 149.28,36.865" />
  <polyline
     style="fill:none;stroke:#000000;stroke-width:2.50000000000000000;stroke-miterlimit:4;stroke-dasharray:none"
     id="polyline3207"
     points="223.68,384.48 223.68,380.015" />
  <polyline
     style="fill:none;stroke:#000000;stroke-width:2.50000000000000000;stroke-miterlimit:4;stroke-dasharray:none"
     id="polyline3209"
     points="223.68,32.4 223.68,36.865" />
  <polyline
     style="fill:none;stroke:#000000;stroke-width:2.50000000000000000;stroke-miterlimit:4;stroke-dasharray:none"
     id="polyline3211"
     points="298.08,384.48 298.08,380.015" />
  <polyline
     style="fill:none;stroke:#000000;stroke-width:2.50000000000000000;stroke-miterlimit:4;stroke-dasharray:none"
     id="polyline3213"
     points="298.08,32.4 298.08,36.865" />
  <polyline
     style="fill:none;stroke:#000000;stroke-width:2.50000000000000000;stroke-miterlimit:4;stroke-dasharray:none"
     id="polyline3215"
     points="372.48,384.48 372.48,380.015" />
  <polyline
     style="fill:none;stroke:#000000;stroke-width:2.50000000000000000;stroke-miterlimit:4;stroke-dasharray:none"
     id="polyline3217"
     points="372.48,32.4 372.48,36.865" />
  <polyline
     style="fill:none;stroke:#000000;stroke-width:2.50000000000000000;stroke-miterlimit:4;stroke-dasharray:none"
     id="polyline3219"
     points="446.88,384.48 446.88,380.015" />
  <polyline
     style="fill:none;stroke:#000000;stroke-width:2.50000000000000000;stroke-miterlimit:4;stroke-dasharray:none"
     id="polyline3221"
     points="446.88,32.4 446.88,36.865" />
  <polyline
     style="fill:none;stroke:#000000;stroke-width:2.50000000000000000;stroke-miterlimit:4;stroke-dasharray:none"
     id="polyline3223"
     points="521.28,384.48 521.28,380.015" />
  <polyline
     style="fill:none;stroke:#000000;stroke-width:2.50000000000000000;stroke-miterlimit:4;stroke-dasharray:none"
     id="polyline3225"
     points="521.28,32.4 521.28,36.865" />
  <g
     id="g5162"
     transform="translate(0,5.4915254)">
    <text
       x="74.879997"
       y="389.48099"
       font-size="10"
       baseline-shift="-10"
       id="text3227"
       style="font-size:20px;text-anchor:middle;baseline-shift:-10px;fill:#000000;stroke-width:2.5;stroke-miterlimit:4;stroke-dasharray:none;font-family:Helvetica">4800</text>
    <text
       x="149.28"
       y="389.48099"
       font-size="10"
       baseline-shift="-10"
       id="text3229"
       style="font-size:20px;text-anchor:middle;baseline-shift:-10px;fill:#000000;stroke-width:2.5;stroke-miterlimit:4;stroke-dasharray:none;font-family:Helvetica">5000</text>
    <text
       x="223.67999"
       y="389.48099"
       font-size="10"
       baseline-shift="-10"
       id="text3231"
       style="font-size:20px;text-anchor:middle;baseline-shift:-10px;fill:#000000;stroke-width:2.5;stroke-miterlimit:4;stroke-dasharray:none;font-family:Helvetica">5200</text>
    <text
       x="298.07999"
       y="389.48099"
       font-size="10"
       baseline-shift="-10"
       id="text3233"
       style="font-size:20px;text-anchor:middle;baseline-shift:-10px;fill:#000000;stroke-width:2.5;stroke-miterlimit:4;stroke-dasharray:none;font-family:Helvetica">5400</text>
    <text
       x="372.48001"
       y="389.48099"
       font-size="10"
       baseline-shift="-10"
       id="text3235"
       style="font-size:20px;text-anchor:middle;baseline-shift:-10px;fill:#000000;stroke-width:2.5;stroke-miterlimit:4;stroke-dasharray:none;font-family:Helvetica">5600</text>
    <text
       x="446.88"
       y="389.48099"
       font-size="10"
       baseline-shift="-10"
       id="text3237"
       style="font-size:20px;text-anchor:middle;baseline-shift:-10px;fill:#000000;stroke-width:2.5;stroke-miterlimit:4;stroke-dasharray:none;font-family:Helvetica">5800</text>
    <text
       x="521.28003"
       y="389.48099"
       font-size="10"
       baseline-shift="-10"
       id="text3239"
       style="font-size:20px;text-anchor:middle;baseline-shift:-10px;fill:#000000;stroke-width:2.5;stroke-miterlimit:4;stroke-dasharray:none;font-family:Helvetica">6000</text>
  </g>
  <polyline
     style="fill:none;stroke:#000000;stroke-width:2.50000000000000000;stroke-miterlimit:4;stroke-dasharray:none"
     id="polyline3241"
     points="74.8799,384.48 79.3479,384.48" />
  <polyline
     style="fill:none;stroke:#000000;stroke-width:2.50000000000000000;stroke-miterlimit:4;stroke-dasharray:none"
     id="polyline3243"
     points="521.28,384.48 516.812,384.48" />
  <polyline
     style="fill:none;stroke:#000000;stroke-width:2.50000000000000000;stroke-miterlimit:4;stroke-dasharray:none"
     id="polyline3245"
     points="74.8799,314.064 79.3479,314.064" />
  <polyline
     style="fill:none;stroke:#000000;stroke-width:2.50000000000000000;stroke-miterlimit:4;stroke-dasharray:none"
     id="polyline3247"
     points="521.28,314.064 516.812,314.064" />
  <polyline
     style="fill:none;stroke:#000000;stroke-width:2.50000000000000000;stroke-miterlimit:4;stroke-dasharray:none"
     id="polyline3249"
     points="74.8799,243.648 79.3479,243.648" />
  <polyline
     style="fill:none;stroke:#000000;stroke-width:2.50000000000000000;stroke-miterlimit:4;stroke-dasharray:none"
     id="polyline3251"
     points="521.28,243.648 516.812,243.648" />
  <polyline
     style="fill:none;stroke:#000000;stroke-width:2.50000000000000000;stroke-miterlimit:4;stroke-dasharray:none"
     id="polyline3253"
     points="74.8799,173.232 79.3479,173.232" />
  <polyline
     style="fill:none;stroke:#000000;stroke-width:2.50000000000000000;stroke-miterlimit:4;stroke-dasharray:none"
     id="polyline3255"
     points="521.28,173.232 516.812,173.232" />
  <polyline
     style="fill:none;stroke:#000000;stroke-width:2.50000000000000000;stroke-miterlimit:4;stroke-dasharray:none"
     id="polyline3257"
     points="74.8799,102.816 79.3479,102.816" />
  <polyline
     style="fill:none;stroke:#000000;stroke-width:2.50000000000000000;stroke-miterlimit:4;stroke-dasharray:none"
     id="polyline3259"
     points="521.28,102.816 516.812,102.816" />
  <polyline
     style="fill:none;stroke:#000000;stroke-width:2.50000000000000000;stroke-miterlimit:4;stroke-dasharray:none"
     id="polyline3261"
     points="74.8799,32.4 79.3479,32.4" />
  <polyline
     style="fill:none;stroke:#000000;stroke-width:2.50000000000000000;stroke-miterlimit:4;stroke-dasharray:none"
     id="polyline3263"
     points="521.28,32.4 516.812,32.4" />
  <text
     style="font-size:20px;text-anchor:end;baseline-shift:-5px;fill:#000000;stroke-width:2.50000000000000000;stroke-miterlimit:4;stroke-dasharray:none;font-family:Helvetica"
     id="text3265"
     baseline-shift="-5"
     font-size="10"
     y="384.48001"
     x="69.875504">-50</text>
  <text
     style="font-size:20px;text-anchor:end;baseline-shift:-5px;fill:#000000;stroke-width:2.50000000000000000;stroke-miterlimit:4;stroke-dasharray:none;font-family:Helvetica"
     id="text3267"
     baseline-shift="-5"
     font-size="10"
     y="314.064"
     x="69.875504">-40</text>
  <text
     style="font-size:20px;text-anchor:end;baseline-shift:-5px;fill:#000000;stroke-width:2.50000000000000000;stroke-miterlimit:4;stroke-dasharray:none;font-family:Helvetica"
     id="text3269"
     baseline-shift="-5"
     font-size="10"
     y="243.64799"
     x="69.875504">-30</text>
  <text
     style="font-size:20px;text-anchor:end;baseline-shift:-5px;fill:#000000;stroke-width:2.50000000000000000;stroke-miterlimit:4;stroke-dasharray:none;font-family:Helvetica"
     id="text3271"
     baseline-shift="-5"
     font-size="10"
     y="173.23199"
     x="69.875504">-20</text>
  <text
     style="font-size:20px;text-anchor:end;baseline-shift:-5px;fill:#000000;stroke-width:2.50000000000000000;stroke-miterlimit:4;stroke-dasharray:none;font-family:Helvetica"
     id="text3273"
     baseline-shift="-5"
     font-size="10"
     y="102.816"
     x="69.875504">-10</text>
  <text
     style="font-size:20px;text-anchor:end;baseline-shift:-5px;fill:#000000;stroke-width:2.50000000000000000;stroke-miterlimit:4;stroke-dasharray:none;font-family:Helvetica"
     id="text3275"
     baseline-shift="-5"
     font-size="10"
     y="32.400002"
     x="69.875504">0</text>
  <text
     style="font-size:20px;text-anchor:middle;baseline-shift:-10px;fill:#000000;stroke-width:2.5;stroke-miterlimit:4;stroke-dasharray:none;font-family:Helvetica"
     id="text3277"
     baseline-shift="-10"
     font-size="10"
     y="24.35541"
     x="-210.28149"
     transform="matrix(0,-1,1,0,0,0)">mm</text>
  <text
     style="font-size:20px;text-anchor:middle;baseline-shift:0px;fill:#000000;stroke-width:2.5;stroke-miterlimit:4;stroke-dasharray:none;font-family:Helvetica"
     id="text3279"
     baseline-shift="0"
     font-size="10"
     y="423.40271"
     x="306.48874">Vitesse en m/s</text>
  <polyline
     style="fill:none;stroke:#0000ff;stroke-width:2.50000000000000000;stroke-miterlimit:4;stroke-dasharray:none"
     id="polyline3281"
     points="366.308,32.4 366.198,34.1604 352.663,35.9208 322.862,37.6812 311.511,39.4416 329.245,41.202 347.174,42.9624 345.431,44.7228 335.307,46.4832 333.07,48.2436 338.596,50.004 343.424,51.7644 344.356,53.5248 343.986,55.2852 344.005,57.0456 343.649,58.806 342.308,60.5664 340.481,62.3268 338.944,64.0872 338.033,65.8476 338.144,67.608 339.348,69.3684 339.59,71.1288 338.278,72.8892 337.247,74.6496 338.828,76.41 343.02,78.1704 346.99,79.9308 347.597,81.6912 344.863,83.4516 341.605,85.212 340.296,86.9724 340.683,88.7328 341.239,90.4932 341.036,92.2536 340.433,94.014 339.757,95.7744 339.214,97.5348 339.008,99.2952 339.04,101.056 339.411,102.816 340.315,104.576 341.596,106.337 342.704,108.097 343.032,109.858 343.057,111.618 343.492,113.378 344.273,115.139 344.859,116.899 344.91,118.66 344.731,120.42 344.656,122.18 344.471,123.941 343.675,125.701 342.431,127.462 341.457,129.222 340.839,130.982 340.124,132.743 339.182,134.503 338.344,136.264 337.964,138.024 337.915,139.784 337.997,141.545 337.989,143.305 338.095,145.066 338.511,146.826 339.18,148.586 340.125,150.347 341.211,152.107 342.295,153.868 343.272,155.628 343.991,157.388 344.512,159.149 345.006,160.909 345.717,162.67 346.612,164.43 347.802,166.19 349.081,167.951 350.253,169.711 351.14,171.472 351.921,173.232 353.013,174.992 354.744,176.753 356.922,178.513 358.893,180.274 359.84,182.034 359.419,183.794 357.492,185.555 353.984,187.315 349.029,189.076 343.196,190.836 336.921,192.596 330.841,194.357 325.404,196.117 321.145,197.878 318.678,199.638 318.534,201.398 320.866,203.159 325.552,204.919 332.394,206.68 340.92,208.44 350.533,210.2 360.555,211.961 369.197,213.721 373.496,215.482 370.207,217.242 358.196,219.002 339.245,220.763 315.533,222.523 284.082,224.284 234.102,226.044 164.223,227.804 124.107,229.565 192.434,231.325 339.883,233.086 421.783,234.846 336.571,236.606 89.7689,238.367 74.8799,240.127 74.8799,241.888 74.8799,243.648 74.8799,245.408 74.8799,247.169 334.542,248.929 520.099,250.69 453.054,252.45 278.294,254.21 166.028,255.971 196.153,257.731 278.137,259.492 322.813,261.252 332.225,263.012 337.071,264.773 348.136,266.533 357.574,268.294 356.786,270.054 345.38,271.814 328.937,273.575 313.42,275.335 301.13,277.096 291.493,278.856 283.865,280.616 279.489,282.377 280.144,284.137 285.605,285.898 293.864,287.658 303.664,289.418 314.918,291.179 326.378,292.939 335.616,294.7 342.048,296.46 346.891,298.22 350.046,299.981 350.591,301.741 348.826,303.502 346.121,305.262 343.176,307.022 339.798,308.783 336.202,310.543 332.604,312.304 329.862,314.064 329.159,315.824 331.064,317.585 334.614,319.345 338.028,321.106 340.593,322.866 343.051,324.626 346.127,326.387 349.293,328.147 351.565,329.908 352.641,331.668 352.938,333.428 352.59,335.189 351.464,336.949 349.023,338.71 345.157,340.47 340.675,342.23 337.062,343.991 334.91,345.751 333.579,347.512 331.188,349.272 327.731,351.032 326.095,352.793 327.231,354.553 328.415,356.314 326.297,358.074 321.623,359.834 319.764,361.595 323.363,363.355 327.379,365.116 325.237,366.876 319.675,368.636 320.284,370.397 329.357,372.157 336.719,373.918 335.9,375.678 334.873,377.438 340.372,379.199 342.11,380.959 343.832,382.72" />
  <polyline
     style="fill:none;stroke:#ff0000;stroke-width:2.50000000000000000;stroke-miterlimit:4;stroke-dasharray:none"
     id="polyline3283"
     points="335.28,32.4 335.28,34.1604 335.28,35.9208 335.28,37.6812 335.28,39.4416 335.28,41.202 335.28,42.9624 335.28,44.7228 335.28,46.4832 335.28,48.2436 335.28,50.004 335.28,51.7644 335.28,53.5248 335.28,55.2852 335.28,57.0456 335.28,58.806 335.28,60.5664 335.28,62.3268 335.28,64.0872 335.28,65.8476 335.28,67.608 335.28,69.3684 335.28,71.1288 335.28,72.8892 335.28,74.6496 335.28,76.41 335.28,78.1704 335.28,79.9308 335.28,81.6912 335.28,83.4516 335.28,85.212 335.28,86.9724 335.28,88.7328 335.28,90.4932 335.28,92.2536 335.28,94.014 335.28,95.7744 335.28,97.5348 335.28,99.2952 335.28,101.056 335.28,102.816 335.28,104.576 335.28,106.337 335.28,108.097 335.28,109.858 335.28,111.618 335.28,113.378 335.28,115.139 335.28,116.899 335.28,118.66 335.28,120.42 335.28,122.18 335.28,123.941 335.28,125.701 335.28,127.462 335.28,129.222 335.28,130.982 335.28,132.743 335.28,134.503 335.28,136.264 335.28,138.024 335.28,139.784 335.28,141.545 335.28,143.305 335.28,145.066 335.28,146.826 335.28,148.586 335.28,150.347 335.28,152.107 335.28,153.868 335.28,155.628 335.28,157.388 335.28,159.149 335.28,160.909 335.28,162.67 335.28,164.43 335.28,166.19 335.28,167.951 335.28,169.711 335.28,171.472 335.28,173.232 335.28,174.992 335.28,176.753 335.28,178.513 335.28,180.274 335.28,182.034 335.28,183.794 335.28,185.555 335.28,187.315 335.28,189.076 335.28,190.836 335.28,192.596 335.28,194.357 335.28,196.117 335.28,197.878 335.28,199.638 335.28,201.398 335.28,203.159 335.28,204.919 335.28,206.68 335.28,208.44 335.28,210.2 335.28,211.961 335.28,213.721 335.28,215.482 335.28,217.242 335.28,219.002 335.28,220.763 335.28,222.523 335.28,224.284 335.28,226.044 335.28,227.804 335.28,229.565 335.28,231.325 335.28,233.086 335.28,234.846 149.28,236.606 149.28,238.367 149.28,240.127 149.28,241.888 149.28,243.648 149.28,245.408 149.28,247.169 335.28,248.929 335.28,250.69 335.28,252.45 335.28,254.21 335.28,255.971 335.28,257.731 335.28,259.492 335.28,261.252 335.28,263.012 335.28,264.773 335.28,266.533 335.28,268.294 335.28,270.054 335.28,271.814 335.28,273.575 335.28,275.335 335.28,277.096 335.28,278.856 335.28,280.616 335.28,282.377 335.28,284.137 335.28,285.898 335.28,287.658 335.28,289.418 335.28,291.179 335.28,292.939 335.28,294.7 335.28,296.46 335.28,298.22 335.28,299.981 335.28,301.741 335.28,303.502 335.28,305.262 335.28,307.022 335.28,308.783 335.28,310.543 335.28,312.304 335.28,314.064 335.28,315.824 335.28,317.585 335.28,319.345 335.28,321.106 335.28,322.866 335.28,324.626 335.28,326.387 335.28,328.147 335.28,329.908 335.28,331.668 335.28,333.428 335.28,335.189 335.28,336.949 335.28,338.71 335.28,340.47 335.28,342.23 335.28,343.991 335.28,345.751 335.28,347.512 335.28,349.272 335.28,351.032 335.28,352.793 335.28,354.553 335.28,356.314 335.28,358.074 335.28,359.834 335.28,361.595 335.28,363.355 335.28,365.116 335.28,366.876 335.28,368.636 335.28,370.397 335.28,372.157 335.28,373.918 335.28,375.678 335.28,377.438 335.28,379.199 335.28,380.959 335.28,382.72" />
  <polygon
     style="fill:#ffffff;stroke-width:2.50000000000000000;stroke-miterlimit:4;stroke-dasharray:none"
     id="polygon3285"
     points="518.535,67.3768 518.535,67.3768 518.535,35.1447 " />
  <polygon
     style="fill:#ffffff;stroke-width:2.50000000000000000;stroke-miterlimit:4;stroke-dasharray:none"
     id="polygon3287"
     points="518.535,67.3768 518.535,35.1447 518.535,35.1447 " />
  <polygon
     style="fill:#ffffff;stroke-width:2.50000000000000000;stroke-miterlimit:4;stroke-dasharray:none"
     id="polygon3289"
     points="426.974,35.1447 426.974,35.1447 518.535,35.1447 " />
  <polygon
     style="fill:#ffffff;stroke-width:2.50000000000000000;stroke-miterlimit:4;stroke-dasharray:none"
     id="polygon3291"
     points="426.974,35.1447 518.535,35.1447 518.535,35.1447 " />
  <polygon
     style="fill:#ffffff;stroke-width:2.50000000000000000;stroke-miterlimit:4;stroke-dasharray:none"
     id="polygon3293"
     points="426.974,35.1447 426.974,67.3768 518.535,67.3768 " />
  <polygon
     style="fill:#ffffff;stroke-width:2.50000000000000000;stroke-miterlimit:4;stroke-dasharray:none"
     id="polygon3295"
     points="426.974,35.1447 518.535,67.3768 518.535,35.1447 " />
  <polyline
     style="fill:none;stroke:#000000;stroke-width:2.50000000000000000;stroke-miterlimit:4;stroke-dasharray:none"
     id="polyline3313"
     points="518.535,35.1447 518.535,35.1447" />
  <polyline
     style="fill:none;stroke:#000000;stroke-width:2.50000000000000000;stroke-miterlimit:4;stroke-dasharray:none"
     id="polyline3315"
     points="518.535,67.3768 518.535,67.3768" />
  <polyline
     style="fill:none;stroke:#000000;stroke-width:2.50000000000000000;stroke-miterlimit:4;stroke-dasharray:none"
     id="polyline3317"
     points="426.974,67.3768 426.974,67.3768" />
  <text
     style="font-size:20px;text-anchor:start;baseline-shift:-5px;fill:#000000;stroke-width:2.5;stroke-miterlimit:4;stroke-dasharray:none;font-family:Helvetica"
     id="text3319"
     baseline-shift="-5"
     font-size="10"
     y="59.428257"
     x="402.22678">Reconstruite</text>
  <text
     style="font-size:20px;text-anchor:start;baseline-shift:-5px;fill:#000000;stroke-width:2.5;stroke-miterlimit:4;stroke-dasharray:none;font-family:Helvetica"
     id="text3321"
     baseline-shift="-5"
     font-size="10"
     y="75.544357"
     x="402.22678">Vraie</text>
  <polyline
     style="fill:none;stroke:#0000ff;stroke-width:2.5;stroke-miterlimit:4;stroke-dasharray:none"
     id="polyline3323"
     points="429.718,43.2027 450.303,43.2027"
     transform="translate(-50.821241,16.225556)" />
  <polyline
     style="fill:none;stroke:#ff0000;stroke-width:2.5;stroke-miterlimit:4;stroke-dasharray:none"
     id="polyline3325"
     points="429.718,59.3188 450.303,59.3188"
     transform="translate(-50.821241,16.225556)" />
</svg>
