<?xml version="1.0" encoding="UTF-8" standalone="no"?>
<svg
   xmlns:dc="http://purl.org/dc/elements/1.1/"
   xmlns:cc="http://creativecommons.org/ns#"
   xmlns:rdf="http://www.w3.org/1999/02/22-rdf-syntax-ns#"
   xmlns:svg="http://www.w3.org/2000/svg"
   xmlns="http://www.w3.org/2000/svg"
   xmlns:sodipodi="http://sodipodi.sourceforge.net/DTD/sodipodi-0.dtd"
   xmlns:inkscape="http://www.inkscape.org/namespaces/inkscape"
   width="576px"
   height="432px"
   viewBox="0 0 576 432"
   id="svg2"
   version="1.1"
   inkscape:version="0.48.4 r9939"
   sodipodi:docname="coupe_rho_mono.svg"
   inkscape:export-filename="/home/dinsenma/Desktop/Stage_M2/redaction/img/mono_param/coupe_rho_mono.png"
   inkscape:export-xdpi="200"
   inkscape:export-ydpi="200">
  <metadata
     id="metadata174">
    <rdf:RDF>
      <cc:Work
         rdf:about="">
        <dc:format>image/svg+xml</dc:format>
        <dc:type
           rdf:resource="http://purl.org/dc/dcmitype/StillImage" />
        <dc:title>glps_renderer figure</dc:title>
      </cc:Work>
    </rdf:RDF>
  </metadata>
  <sodipodi:namedview
     pagecolor="#ffffff"
     bordercolor="#666666"
     borderopacity="1"
     objecttolerance="10"
     gridtolerance="10"
     guidetolerance="10"
     inkscape:pageopacity="0"
     inkscape:pageshadow="2"
     inkscape:window-width="1600"
     inkscape:window-height="847"
     id="namedview172"
     showgrid="false"
     inkscape:zoom="1.0925926"
     inkscape:cx="329.08345"
     inkscape:cy="180.06323"
     inkscape:window-x="0"
     inkscape:window-y="31"
     inkscape:window-maximized="1"
     inkscape:current-layer="svg2" />
  <title
     id="title4">glps_renderer figure</title>
  <desc
     id="desc6">
Creator: GL2PS 1.3.8, (C) 1999-2012 C. Geuzaine
For: Octave
CreationDate: Wed Jun 22 16:32:16 2016
</desc>
  <defs
     id="defs8" />
  <polygon
     style="fill:#ffffff;stroke-width:2.50000000000000000;stroke-miterlimit:4;stroke-dasharray:none"
     id="polygon12"
     points="521.28,384.48 521.28,384.48 521.28,32.4 " />
  <polygon
     style="fill:#ffffff;stroke-width:2.50000000000000000;stroke-miterlimit:4;stroke-dasharray:none"
     id="polygon14"
     points="521.28,384.48 521.28,32.4 521.28,32.4 " />
  <polygon
     style="fill:#ffffff;stroke-width:2.50000000000000000;stroke-miterlimit:4;stroke-dasharray:none"
     id="polygon16"
     points="74.88,32.4 74.88,32.4 521.28,32.4 " />
  <polygon
     style="fill:#ffffff;stroke-width:2.50000000000000000;stroke-miterlimit:4;stroke-dasharray:none"
     id="polygon18"
     points="74.88,32.4 521.28,32.4 521.28,32.4 " />
  <polygon
     style="fill:#ffffff;stroke-width:2.50000000000000000;stroke-miterlimit:4;stroke-dasharray:none"
     id="polygon20"
     points="74.88,32.4 74.88,384.48 521.28,384.48 " />
  <polygon
     style="fill:#ffffff;stroke-width:2.50000000000000000;stroke-miterlimit:4;stroke-dasharray:none"
     id="polygon22"
     points="74.88,32.4 521.28,384.48 521.28,32.4 " />
  <polyline
     style="fill:none;stroke:#000000;stroke-width:2.50000000000000000;stroke-miterlimit:4;stroke-dasharray:none"
     id="polyline24"
     points="74.88,384.48 521.28,384.48" />
  <polyline
     style="fill:none;stroke:#000000;stroke-width:2.50000000000000000;stroke-miterlimit:4;stroke-dasharray:none"
     id="polyline26"
     points="74.88,32.4 521.28,32.4" />
  <polyline
     style="fill:none;stroke:#000000;stroke-width:2.50000000000000000;stroke-miterlimit:4;stroke-dasharray:none"
     id="polyline28"
     points="74.88,32.4 521.28,32.4" />
  <polyline
     style="fill:none;stroke:#000000;stroke-width:2.50000000000000000;stroke-miterlimit:4;stroke-dasharray:none"
     id="polyline30"
     points="74.88,384.48 521.28,384.48" />
  <polyline
     style="fill:none;stroke:#000000;stroke-width:2.50000000000000000;stroke-miterlimit:4;stroke-dasharray:none"
     id="polyline32"
     points="74.88,384.48 74.88,32.4" />
  <polyline
     style="fill:none;stroke:#000000;stroke-width:2.50000000000000000;stroke-miterlimit:4;stroke-dasharray:none"
     id="polyline34"
     points="521.28,384.48 521.28,32.4" />
  <polyline
     style="fill:none;stroke:#000000;stroke-width:2.50000000000000000;stroke-miterlimit:4;stroke-dasharray:none"
     id="polyline36"
     points="521.28,384.48 521.28,32.4" />
  <polyline
     style="fill:none;stroke:#000000;stroke-width:2.50000000000000000;stroke-miterlimit:4;stroke-dasharray:none"
     id="polyline38"
     points="74.88,384.48 74.88,32.4 74.88,32.4" />
  <polyline
     style="fill:none;stroke:#000000;stroke-width:2.50000000000000000;stroke-miterlimit:4;stroke-dasharray:none"
     id="polyline40"
     points="521.28,32.4 521.28,32.4" />
  <polyline
     style="fill:none;stroke:#000000;stroke-width:2.50000000000000000;stroke-miterlimit:4;stroke-dasharray:none"
     id="polyline42"
     points="521.28,384.48 521.28,384.48" />
  <polyline
     style="fill:none;stroke:#000000;stroke-width:2.50000000000000000;stroke-miterlimit:4;stroke-dasharray:none"
     id="polyline44"
     points="74.88,384.48 74.88,384.48 74.88,380.015" />
  <polyline
     style="fill:none;stroke:#000000;stroke-width:2.50000000000000000;stroke-miterlimit:4;stroke-dasharray:none"
     id="polyline46"
     points="74.88,32.4 74.88,36.8651" />
  <polyline
     style="fill:none;stroke:#000000;stroke-width:2.50000000000000000;stroke-miterlimit:4;stroke-dasharray:none"
     id="polyline48"
     points="164.16,384.48 164.16,380.015" />
  <polyline
     style="fill:none;stroke:#000000;stroke-width:2.50000000000000000;stroke-miterlimit:4;stroke-dasharray:none"
     id="polyline50"
     points="164.16,32.4 164.16,36.8651" />
  <polyline
     style="fill:none;stroke:#000000;stroke-width:2.50000000000000000;stroke-miterlimit:4;stroke-dasharray:none"
     id="polyline52"
     points="253.44,384.48 253.44,380.015" />
  <polyline
     style="fill:none;stroke:#000000;stroke-width:2.50000000000000000;stroke-miterlimit:4;stroke-dasharray:none"
     id="polyline54"
     points="253.44,32.4 253.44,36.8651" />
  <polyline
     style="fill:none;stroke:#000000;stroke-width:2.50000000000000000;stroke-miterlimit:4;stroke-dasharray:none"
     id="polyline56"
     points="342.72,384.48 342.72,380.015" />
  <polyline
     style="fill:none;stroke:#000000;stroke-width:2.50000000000000000;stroke-miterlimit:4;stroke-dasharray:none"
     id="polyline58"
     points="342.72,32.4 342.72,36.8651" />
  <polyline
     style="fill:none;stroke:#000000;stroke-width:2.50000000000000000;stroke-miterlimit:4;stroke-dasharray:none"
     id="polyline60"
     points="432,384.48 432,380.015" />
  <polyline
     style="fill:none;stroke:#000000;stroke-width:2.50000000000000000;stroke-miterlimit:4;stroke-dasharray:none"
     id="polyline62"
     points="432,32.4 432,36.8651" />
  <polyline
     style="fill:none;stroke:#000000;stroke-width:2.50000000000000000;stroke-miterlimit:4;stroke-dasharray:none"
     id="polyline64"
     points="521.28,384.48 521.28,380.015" />
  <polyline
     style="fill:none;stroke:#000000;stroke-width:2.50000000000000000;stroke-miterlimit:4;stroke-dasharray:none"
     id="polyline66"
     points="521.28,32.4 521.28,36.8651" />
  <polyline
     style="fill:none;stroke:#000000;stroke-width:2.50000000000000000;stroke-miterlimit:4;stroke-dasharray:none"
     id="polyline80"
     points="74.88,384.48 79.348,384.48" />
  <polyline
     style="fill:none;stroke:#000000;stroke-width:2.50000000000000000;stroke-miterlimit:4;stroke-dasharray:none"
     id="polyline82"
     points="521.28,384.48 516.812,384.48" />
  <polyline
     style="fill:none;stroke:#000000;stroke-width:2.50000000000000000;stroke-miterlimit:4;stroke-dasharray:none"
     id="polyline84"
     points="74.88,325.8 79.348,325.8" />
  <polyline
     style="fill:none;stroke:#000000;stroke-width:2.50000000000000000;stroke-miterlimit:4;stroke-dasharray:none"
     id="polyline86"
     points="521.28,325.8 516.812,325.8" />
  <polyline
     style="fill:none;stroke:#000000;stroke-width:2.50000000000000000;stroke-miterlimit:4;stroke-dasharray:none"
     id="polyline88"
     points="74.88,267.12 79.348,267.12" />
  <polyline
     style="fill:none;stroke:#000000;stroke-width:2.50000000000000000;stroke-miterlimit:4;stroke-dasharray:none"
     id="polyline90"
     points="521.28,267.12 516.812,267.12" />
  <polyline
     style="fill:none;stroke:#000000;stroke-width:2.50000000000000000;stroke-miterlimit:4;stroke-dasharray:none"
     id="polyline92"
     points="74.88,208.44 79.348,208.44" />
  <polyline
     style="fill:none;stroke:#000000;stroke-width:2.50000000000000000;stroke-miterlimit:4;stroke-dasharray:none"
     id="polyline94"
     points="521.28,208.44 516.812,208.44" />
  <polyline
     style="fill:none;stroke:#000000;stroke-width:2.50000000000000000;stroke-miterlimit:4;stroke-dasharray:none"
     id="polyline96"
     points="74.88,149.76 79.348,149.76" />
  <polyline
     style="fill:none;stroke:#000000;stroke-width:2.50000000000000000;stroke-miterlimit:4;stroke-dasharray:none"
     id="polyline98"
     points="521.28,149.76 516.812,149.76" />
  <polyline
     style="fill:none;stroke:#000000;stroke-width:2.50000000000000000;stroke-miterlimit:4;stroke-dasharray:none"
     id="polyline100"
     points="74.88,91.08 79.348,91.08" />
  <polyline
     style="fill:none;stroke:#000000;stroke-width:2.50000000000000000;stroke-miterlimit:4;stroke-dasharray:none"
     id="polyline102"
     points="521.28,91.08 516.812,91.08" />
  <polyline
     style="fill:none;stroke:#000000;stroke-width:2.50000000000000000;stroke-miterlimit:4;stroke-dasharray:none"
     id="polyline104"
     points="74.88,32.4 79.348,32.4" />
  <polyline
     style="fill:none;stroke:#000000;stroke-width:2.50000000000000000;stroke-miterlimit:4;stroke-dasharray:none"
     id="polyline106"
     points="521.28,32.4 516.812,32.4" />
  <text
     style="font-size:20px;text-anchor:end;baseline-shift:-5px;fill:#000000;stroke-width:2.50000000000000000;stroke-miterlimit:4;stroke-dasharray:none;font-family:Helvetica"
     id="text108"
     baseline-shift="-5"
     font-size="10"
     y="384.48001"
     x="69.875504">3000</text>
  <text
     style="font-size:20px;text-anchor:end;baseline-shift:-5px;fill:#000000;stroke-width:2.50000000000000000;stroke-miterlimit:4;stroke-dasharray:none;font-family:Helvetica"
     id="text110"
     baseline-shift="-5"
     font-size="10"
     y="325.79999"
     x="69.875504">4000</text>
  <text
     style="font-size:20px;text-anchor:end;baseline-shift:-5px;fill:#000000;stroke-width:2.50000000000000000;stroke-miterlimit:4;stroke-dasharray:none;font-family:Helvetica"
     id="text112"
     baseline-shift="-5"
     font-size="10"
     y="267.12"
     x="69.875504">5000</text>
  <text
     style="font-size:20px;text-anchor:end;baseline-shift:-5px;fill:#000000;stroke-width:2.50000000000000000;stroke-miterlimit:4;stroke-dasharray:none;font-family:Helvetica"
     id="text114"
     baseline-shift="-5"
     font-size="10"
     y="208.44"
     x="69.875504">6000</text>
  <text
     style="font-size:20px;text-anchor:end;baseline-shift:-5px;fill:#000000;stroke-width:2.50000000000000000;stroke-miterlimit:4;stroke-dasharray:none;font-family:Helvetica"
     id="text116"
     baseline-shift="-5"
     font-size="10"
     y="149.75999"
     x="69.875504">7000</text>
  <text
     style="font-size:20px;text-anchor:end;baseline-shift:-5px;fill:#000000;stroke-width:2.50000000000000000;stroke-miterlimit:4;stroke-dasharray:none;font-family:Helvetica"
     id="text118"
     baseline-shift="-5"
     font-size="10"
     y="91.080002"
     x="69.875504">8000</text>
  <text
     style="font-size:20px;text-anchor:end;baseline-shift:-5px;fill:#000000;stroke-width:2.50000000000000000;stroke-miterlimit:4;stroke-dasharray:none;font-family:Helvetica"
     id="text120"
     baseline-shift="-5"
     font-size="10"
     y="32.400002"
     x="69.875504">9000</text>
  <text
     style="font-size:20px;text-anchor:middle;baseline-shift:-10px;fill:#000000;stroke-width:2.5;stroke-miterlimit:4;stroke-dasharray:none;font-family:Helvetica"
     id="text122"
     baseline-shift="-10"
     font-size="10"
     y="409.59998"
     x="298.07999">mm</text>
  <text
     style="font-size:20px;text-anchor:middle;baseline-shift:0px;fill:#000000;stroke-width:2.5;stroke-miterlimit:4;stroke-dasharray:none;font-family:Helvetica"
     id="text124"
     baseline-shift="0"
     transform="matrix(0,-1,1,0,0,0)"
     font-size="10"
     y="15.988204"
     x="-208.44">Masse volumique en kg/m3</text>
  <polyline
     style="fill:none;stroke:#ff0000;stroke-width:2.50000000000000000;stroke-miterlimit:4;stroke-dasharray:none"
     id="polyline128"
     points="74.88,91.08 75.996,91.08 77.112,91.08 78.228,91.08 79.344,91.08 80.46,91.08 81.576,91.08 82.692,91.08 83.808,91.08 84.924,91.08 86.04,91.08 87.156,91.08 88.272,91.08 89.388,91.08 90.504,91.08 91.62,91.08 92.736,91.08 93.852,91.08 94.968,91.08 96.084,91.08 97.2,91.08 98.316,91.08 99.432,91.08 100.548,91.08 101.664,91.08 102.78,91.08 103.896,91.08 105.012,91.08 106.128,91.08 107.244,91.08 108.36,91.08 109.476,91.08 110.592,91.08 111.708,91.08 112.824,91.08 113.94,91.08 115.056,91.08 116.172,91.08 117.288,91.08 118.404,91.08 119.52,91.08 120.636,91.08 121.752,91.08 122.868,91.08 123.984,91.08 125.1,91.08 126.216,91.08 127.332,91.08 128.448,91.08 129.564,91.08 130.68,91.08 131.796,91.08 132.912,91.08 134.028,91.08 135.144,91.08 136.26,91.08 137.376,91.08 138.492,91.08 139.608,91.08 140.724,91.08 141.84,91.08 142.956,91.08 144.072,91.08 145.188,91.08 146.304,91.08 147.42,91.08 148.536,91.08 149.652,91.08 150.768,91.08 151.884,91.08 153,91.08 154.116,91.08 155.232,91.08 156.348,91.08 157.464,91.08 158.58,91.08 159.696,91.08 160.812,91.08 161.928,91.08 163.044,91.08 164.16,91.08 165.276,91.08 166.392,91.08 167.508,91.08 168.624,91.08 169.74,91.08 170.856,91.08 171.972,91.08 173.088,91.08 174.204,91.08 175.32,91.08 176.436,91.08 177.552,91.08 178.668,91.08 179.784,91.08 180.9,91.08 182.016,91.08 183.132,91.08 184.248,91.08 185.364,91.08 186.48,91.08 187.596,91.08 188.712,91.08 189.828,91.08 190.944,91.08 192.06,91.08 193.176,91.08 194.292,91.08 195.408,91.08 196.524,91.08 197.64,91.08 198.756,91.08 199.872,91.08 200.988,91.08 202.104,91.08 203.22,91.08 204.336,91.08 205.452,91.08 206.568,91.08 207.684,91.08 208.8,91.08 209.916,91.08 211.032,91.08 212.148,91.08 213.264,91.08 214.38,91.08 215.496,91.08 216.612,91.08 217.728,91.08 218.844,91.08 219.96,91.08 221.076,91.08 222.192,91.08 223.308,91.08 224.424,91.08 225.54,91.08 226.656,91.08 227.772,91.08 228.888,91.08 230.004,91.08 231.12,91.08 232.236,91.08 233.352,91.08 234.468,91.08 235.584,91.08 236.7,91.08 237.816,91.08 238.932,91.08 240.048,91.08 241.164,91.08 242.28,91.08 243.396,91.08 244.512,91.08 245.628,91.08 246.744,91.08 247.86,91.08 248.976,384.48 250.092,91.08 251.208,91.08 252.324,91.08 253.44,91.08 254.556,91.08 255.672,91.08 256.788,91.08 257.904,91.08 259.02,91.08 260.136,91.08 261.252,91.08 262.368,91.08 263.484,91.08 264.6,91.08 265.716,91.08 266.832,91.08 267.948,91.08 269.064,91.08 270.18,91.08 271.296,91.08 272.412,91.08 273.528,91.08 274.644,91.08 275.76,91.08 276.876,91.08 277.992,91.08 279.108,91.08 280.224,91.08 281.34,91.08 282.456,91.08 283.572,91.08 284.688,91.08 285.804,91.08 286.92,91.08 288.036,91.08 289.152,91.08 290.268,91.08 291.384,91.08 292.5,91.08 293.616,384.48 294.732,384.48 295.848,384.48 296.964,384.48 298.08,384.48 299.196,384.48 300.312,384.48 301.428,91.08 302.544,91.08 303.66,91.08 304.776,91.08 305.892,91.08 307.008,91.08 308.124,91.08 309.24,91.08 310.356,91.08 311.472,91.08 312.588,91.08 313.704,91.08 314.82,91.08 315.936,91.08 317.052,91.08 318.168,91.08 319.284,91.08 320.4,91.08 321.516,91.08 322.632,91.08 323.748,91.08 324.864,91.08 325.98,91.08 327.096,91.08 328.212,91.08 329.328,91.08 330.444,91.08 331.56,91.08 332.676,91.08 333.792,91.08 334.908,91.08 336.024,91.08 337.14,91.08 338.256,91.08 339.372,91.08 340.488,91.08 341.604,91.08 342.72,91.08 343.836,91.08 344.952,91.08 346.068,91.08 347.184,91.08 348.3,91.08 349.416,91.08 350.532,91.08 351.648,91.08 352.764,91.08 353.88,91.08 354.996,91.08 356.112,91.08 357.228,91.08 358.344,91.08 359.46,91.08 360.576,91.08 361.692,91.08 362.808,91.08 363.924,91.08 365.04,91.08 366.156,91.08 367.272,91.08 368.388,91.08 369.504,91.08 370.62,91.08 371.736,91.08 372.852,91.08 373.968,91.08 375.084,91.08 376.2,91.08 377.316,91.08 378.432,91.08 379.548,91.08 380.664,91.08 381.78,91.08 382.896,91.08 384.012,91.08 385.128,91.08 386.244,91.08 387.36,91.08 388.476,91.08 389.592,91.08 390.708,91.08 391.824,91.08 392.94,91.08 394.056,91.08 395.172,91.08 396.288,91.08 397.404,91.08 398.52,91.08 399.636,91.08 400.752,91.08 401.868,91.08 402.984,91.08 404.1,91.08 405.216,91.08 406.332,91.08 407.448,91.08 408.564,91.08 409.68,91.08 410.796,91.08 411.912,91.08 413.028,91.08 414.144,91.08 415.26,91.08 416.376,91.08 417.492,91.08 418.608,91.08 419.724,91.08 420.84,91.08 421.956,91.08 423.072,91.08 424.188,91.08 425.304,91.08 426.42,91.08 427.536,91.08 428.652,91.08 429.768,91.08 430.884,91.08 432,91.08 433.116,91.08 434.232,91.08 435.348,91.08 436.464,91.08 437.58,91.08 438.696,91.08 439.812,91.08 440.928,91.08 442.044,91.08 443.16,91.08 444.276,91.08 445.392,91.08 446.508,91.08 447.624,91.08 448.74,91.08 449.856,91.08 450.972,91.08 452.088,91.08 453.204,91.08 454.32,91.08 455.436,91.08 456.552,91.08 457.668,91.08 458.784,91.08 459.9,91.08 461.016,91.08 462.132,91.08 463.248,91.08 464.364,91.08 465.48,91.08 466.596,91.08 467.712,91.08 468.828,91.08 469.944,91.08 471.06,91.08 472.176,91.08 473.292,91.08 474.408,91.08 475.524,91.08 476.64,91.08 477.756,91.08 478.872,91.08 479.988,91.08 481.104,91.08 482.22,91.08 483.336,91.08 484.452,91.08 485.568,91.08 486.684,91.08 487.8,91.08 488.916,91.08 490.032,91.08 491.148,91.08 492.264,91.08 493.38,91.08 494.496,91.08 495.612,91.08 496.728,91.08 497.844,91.08 498.96,91.08 500.076,91.08 501.192,91.08 502.308,91.08 503.424,91.08 504.54,91.08 505.656,91.08 506.772,91.08 507.888,91.08 509.004,91.08 510.12,91.08 511.236,91.08 512.352,91.08 513.468,91.08 514.584,91.08 515.7,91.08 516.816,91.08 517.932,91.08 519.048,91.08 520.164,91.08" />
  <polyline
     style="fill:none;stroke:#0000ff;stroke-width:2.50000000000000000;stroke-miterlimit:4;stroke-dasharray:none"
     id="polyline126"
     points="74.88,91.0796 75.996,91.0789 77.112,91.0778 78.228,91.0767 79.344,91.076 80.46,91.0757 81.576,91.0759 82.692,91.0765 83.808,91.0774 84.924,91.0783 86.04,91.0791 87.156,91.0798 88.272,91.0804 89.388,91.081 90.504,91.0816 91.62,91.0821 92.736,91.0825 93.852,91.0827 94.968,91.0828 96.084,91.083 97.2,91.083 98.316,91.0829 99.432,91.0825 100.548,91.0818 101.664,91.081 102.78,91.08 103.896,91.0792 105.012,91.0786 106.128,91.0782 107.244,91.0782 108.36,91.0785 109.476,91.079 110.592,91.0797 111.708,91.0805 112.824,91.0815 113.94,91.0826 115.056,91.0835 116.172,91.0843 117.288,91.0849 118.404,91.0856 119.52,91.0864 120.636,91.0875 121.752,91.0889 122.868,91.0905 123.984,91.0923 125.1,91.094 126.216,91.0957 127.332,91.0972 128.448,91.0986 129.564,91.0995 130.68,91.1002 131.796,91.1005 132.912,91.1004 134.028,91.0999 135.144,91.0991 136.26,91.0979 137.376,91.0963 138.492,91.0944 139.608,91.0922 140.724,91.0897 141.84,91.0873 142.956,91.0851 144.072,91.0833 145.188,91.0822 146.304,91.0817 147.42,91.082 148.536,91.0829 149.652,91.0845 150.768,91.0866 151.884,91.0895 153,91.093 154.116,91.0974 155.232,91.1025 156.348,91.1083 157.464,91.1146 158.58,91.1215 159.696,91.1285 160.812,91.1358 161.928,91.143 163.044,91.1502 164.16,91.1572 165.276,91.1642 166.392,91.171 167.508,91.1777 168.624,91.1839 169.74,91.1893 170.856,91.1938 171.972,91.1974 173.088,91.1999 174.204,91.2015 175.32,91.2025 176.436,91.2029 177.552,91.2028 178.668,91.2021 179.784,91.2009 180.9,91.1989 182.016,91.196 183.132,91.192 184.248,91.1868 185.364,91.1807 186.48,91.1743 187.596,91.1681 188.712,91.163 189.828,91.1593 190.944,91.1574 192.06,91.157 193.176,91.158 194.292,91.1598 195.408,91.1624 196.524,91.1657 197.64,91.1702 198.756,91.1759 199.872,91.1831 200.988,91.1912 202.104,91.1996 203.22,91.207 204.336,91.2123 205.452,91.2146 206.568,91.2134 207.684,91.2083 208.8,91.199 209.916,91.1847 211.032,91.1631 212.148,91.1308 213.264,91.084 214.38,91.0191 215.496,90.9352 216.612,90.8346 217.728,90.7231 218.844,90.6102 219.96,90.5064 221.076,90.4221 222.192,90.3648 223.308,90.3375 224.424,90.338 225.54,90.359 226.656,90.3907 227.772,90.4225 228.888,90.4451 230.004,90.451 231.12,90.4338 232.236,90.3867 233.352,90.3027 234.468,90.1764 235.584,90.0081 236.7,89.8081 237.816,89.5998 238.932,89.4194 240.048,89.3126 241.164,89.3244 242.28,89.485 243.396,89.7902 244.512,90.186 245.628,90.5717 246.744,90.8332 247.86,90.8971 248.976,90.7679 250.092,90.5114 251.208,90.199 252.324,89.8696 253.44,89.5427 254.556,89.2549 255.672,89.0667 256.788,89.0309 257.904,89.1572 259.02,89.4028 260.136,89.6912 261.252,89.9451 262.368,90.114 263.484,90.1852 264.6,90.1778 265.716,90.1247 266.832,90.055 267.948,89.9864 269.064,89.9268 270.18,89.8805 271.296,89.8514 272.412,89.8429 273.528,89.8553 274.644,89.8841 275.76,89.9207 276.876,89.9557 277.992,89.9832 279.108,90.0043 280.224,90.0311 281.34,90.0854 282.456,90.193 283.572,90.3717 284.688,90.619 285.804,90.9123 286.92,91.2312 288.036,91.6005 289.152,92.1271 290.268,93.002 291.384,94.4504 292.5,96.631 293.616,99.4868 294.732,102.586 295.848,105.084 296.964,106.046 298.08,105.058 299.196,102.568 300.312,99.5147 301.428,96.7259 302.544,94.6172 303.66,93.2362 304.776,92.4198 305.892,91.9391 307.008,91.6021 308.124,91.3044 309.24,91.0275 310.356,90.7989 311.472,90.6469 312.588,90.5779 313.704,90.5768 314.82,90.6189 315.936,90.6819 317.052,90.7511 318.168,90.8203 319.284,90.8891 320.4,90.9592 321.516,91.0314 322.632,91.1035 323.748,91.171 324.864,91.2287 325.98,91.2717 327.096,91.2964 328.212,91.3009 329.328,91.2837 330.444,91.2454 331.56,91.1891 332.676,91.122 333.792,91.0558 334.908,91.0059 336.024,90.9884 337.14,91.0142 338.256,91.0827 339.372,91.1789 340.488,91.2771 341.604,91.3497 342.72,91.3788 343.836,91.3618 344.952,91.31 346.068,91.2421 347.184,91.1759 348.3,91.1246 349.416,91.0957 350.532,91.0913 351.648,91.11 352.764,91.1478 353.88,91.199 354.996,91.2567 356.112,91.3136 357.228,91.3628 358.344,91.3986 359.46,91.4169 360.576,91.4167 361.692,91.3991 362.808,91.3674 363.924,91.3264 365.04,91.2812 366.156,91.2373 367.272,91.1987 368.388,91.1689 369.504,91.1495 370.62,91.1413 371.736,91.1436 372.852,91.1549 373.968,91.1729 375.084,91.1951 376.2,91.2194 377.316,91.2434 378.432,91.2658 379.548,91.2852 380.664,91.301 381.78,91.3127 382.896,91.3202 384.012,91.3236 385.128,91.323 386.244,91.3187 387.36,91.3113 388.476,91.3011 389.592,91.2887 390.708,91.2746 391.824,91.2595 392.94,91.2439 394.056,91.2283 395.172,91.2132 396.288,91.1989 397.404,91.1859 398.52,91.1743 399.636,91.1644 400.752,91.1562 401.868,91.1497 402.984,91.1448 404.1,91.1416 405.216,91.1399 406.332,91.1396 407.448,91.1406 408.564,91.1427 409.68,91.1455 410.796,91.149 411.912,91.1528 413.028,91.1569 414.144,91.161 415.26,91.1653 416.376,91.1694 417.492,91.1733 418.608,91.1767 419.724,91.1792 420.84,91.1808 421.956,91.1813 423.072,91.1809 424.188,91.1794 425.304,91.1773 426.42,91.1744 427.536,91.1708 428.652,91.1664 429.768,91.161 430.884,91.155 432,91.1486 433.116,91.1421 434.232,91.1358 435.348,91.1298 436.464,91.1239 437.58,91.1179 438.696,91.1119 439.812,91.106 440.928,91.1003 442.044,91.0954 443.16,91.0912 444.276,91.0879 445.392,91.0857 446.508,91.0844 447.624,91.084 448.74,91.0846 449.856,91.0857 450.972,91.0871 452.088,91.0885 453.204,91.0897 454.32,91.0906 455.436,91.0912 456.552,91.0914 457.668,91.0915 458.784,91.0915 459.9,91.0911 461.016,91.0903 462.132,91.0893 463.248,91.0882 464.364,91.0873 465.48,91.0869 466.596,91.0868 467.712,91.0869 468.828,91.0867 469.944,91.0862 471.06,91.0852 472.176,91.0843 473.292,91.0834 474.408,91.0829 475.524,91.0827 476.64,91.0825 477.756,91.0825 478.872,91.0825 479.988,91.0829 481.104,91.0834 482.22,91.0837 483.336,91.0838 484.452,91.0834 485.568,91.0828 486.684,91.0821 487.8,91.0816 488.916,91.0812 490.032,91.0807 491.148,91.0804 492.264,91.0803 493.38,91.0807 494.496,91.0815 495.612,91.0824 496.728,91.0831 497.844,91.0834 498.96,91.0836 500.076,91.0833 501.192,91.0828 502.308,91.082 503.424,91.0812 504.54,91.0806 505.656,91.0801 506.772,91.08 507.888,91.08 509.004,91.0798 510.12,91.0792 511.236,91.0784 512.352,91.0776 513.468,91.0773 514.584,91.0773 515.7,91.0778 516.816,91.0785 517.932,91.0792 519.048,91.0796 520.164,91.0798" />
  <polygon
     style="fill:#ffffff;stroke-width:2.50000000000000000;stroke-miterlimit:4;stroke-dasharray:none"
     id="polygon130"
     points="518.535,67.3768 518.535,67.3768 518.535,35.1447 " />
  <polygon
     style="fill:#ffffff;stroke-width:2.50000000000000000;stroke-miterlimit:4;stroke-dasharray:none"
     id="polygon132"
     points="518.535,67.3768 518.535,35.1447 518.535,35.1447 " />
  <polygon
     style="fill:#ffffff;stroke-width:2.50000000000000000;stroke-miterlimit:4;stroke-dasharray:none"
     id="polygon134"
     points="426.974,35.1447 426.974,35.1447 518.535,35.1447 " />
  <polygon
     style="fill:#ffffff;stroke-width:2.50000000000000000;stroke-miterlimit:4;stroke-dasharray:none"
     id="polygon136"
     points="426.974,35.1447 518.535,35.1447 518.535,35.1447 " />
  <polygon
     style="fill:#ffffff;stroke-width:2.50000000000000000;stroke-miterlimit:4;stroke-dasharray:none"
     id="polygon138"
     points="426.974,35.1447 426.974,67.3768 518.535,67.3768 " />
  <polygon
     style="fill:#ffffff;stroke-width:2.50000000000000000;stroke-miterlimit:4;stroke-dasharray:none"
     id="polygon140"
     points="426.974,35.1447 518.535,67.3768 518.535,35.1447 " />
  <polyline
     style="fill:none;stroke:#000000;stroke-width:2.50000000000000000;stroke-miterlimit:4;stroke-dasharray:none"
     id="polyline158"
     points="518.535,35.1447 518.535,35.1447" />
  <polyline
     style="fill:none;stroke:#000000;stroke-width:2.50000000000000000;stroke-miterlimit:4;stroke-dasharray:none"
     id="polyline162"
     points="426.974,67.3768 426.974,67.3768" />
  <polyline
     style="fill:none;stroke:#000000;stroke-width:2.50000000000000000;stroke-miterlimit:4;stroke-dasharray:none"
     id="polyline160"
     points="518.535,67.3768 518.535,67.3768"
     transform="translate(-32.491526,204.1017)" />
  <g
     id="g4019"
     transform="translate(-32.359124,89.958365)">
    <text
       x="420.55649"
       y="247.3044"
       font-size="10"
       baseline-shift="-5"
       id="text164"
       style="font-size:20px;text-anchor:start;baseline-shift:-5px;fill:#000000;stroke-width:2.5;stroke-miterlimit:4;stroke-dasharray:none;font-family:Helvetica">Reconstruite</text>
    <text
       x="420.55649"
       y="263.4205"
       font-size="10"
       baseline-shift="-5"
       id="text166"
       style="font-size:20px;text-anchor:start;baseline-shift:-5px;fill:#000000;stroke-width:2.5;stroke-miterlimit:4;stroke-dasharray:none;font-family:Helvetica">Vraie</text>
    <polyline
       transform="translate(-32.491526,204.1017)"
       points="429.718,43.2027 450.303,43.2027"
       id="polyline168"
       style="fill:none;stroke:#0000ff;stroke-width:2.5;stroke-miterlimit:4;stroke-dasharray:none" />
    <polyline
       transform="translate(-32.491526,204.1017)"
       points="429.718,59.3188 450.303,59.3188"
       id="polyline170"
       style="fill:none;stroke:#ff0000;stroke-width:2.5;stroke-miterlimit:4;stroke-dasharray:none" />
  </g>
  <g
     transform="translate(-0.59342012,0.56071354)"
     id="g4179">
    <text
       x="74.879997"
       y="393.142"
       font-size="10"
       baseline-shift="-10"
       id="text68"
       style="font-size:20px;text-anchor:middle;baseline-shift:-10px;fill:#000000;stroke-width:2.5;stroke-miterlimit:4;stroke-dasharray:none;font-family:Helvetica">0</text>
    <text
       x="164.16"
       y="393.142"
       font-size="10"
       baseline-shift="-10"
       id="text70"
       style="font-size:20px;text-anchor:middle;baseline-shift:-10px;fill:#000000;stroke-width:2.5;stroke-miterlimit:4;stroke-dasharray:none;font-family:Helvetica">20</text>
    <text
       x="253.44"
       y="393.142"
       font-size="10"
       baseline-shift="-10"
       id="text72"
       style="font-size:20px;text-anchor:middle;baseline-shift:-10px;fill:#000000;stroke-width:2.5;stroke-miterlimit:4;stroke-dasharray:none;font-family:Helvetica">40</text>
    <text
       x="342.72"
       y="393.142"
       font-size="10"
       baseline-shift="-10"
       id="text74"
       style="font-size:20px;text-anchor:middle;baseline-shift:-10px;fill:#000000;stroke-width:2.5;stroke-miterlimit:4;stroke-dasharray:none;font-family:Helvetica">60</text>
    <text
       x="432"
       y="393.142"
       font-size="10"
       baseline-shift="-10"
       id="text76"
       style="font-size:20px;text-anchor:middle;baseline-shift:-10px;fill:#000000;stroke-width:2.5;stroke-miterlimit:4;stroke-dasharray:none;font-family:Helvetica">80</text>
    <text
       x="521.28003"
       y="393.142"
       font-size="10"
       baseline-shift="-10"
       id="text78"
       style="font-size:20px;text-anchor:middle;baseline-shift:-10px;fill:#000000;stroke-width:2.5;stroke-miterlimit:4;stroke-dasharray:none;font-family:Helvetica">100</text>
  </g>
</svg>
