<?xml version="1.0" encoding="UTF-8" standalone="no"?>
<svg
   xmlns:dc="http://purl.org/dc/elements/1.1/"
   xmlns:cc="http://creativecommons.org/ns#"
   xmlns:rdf="http://www.w3.org/1999/02/22-rdf-syntax-ns#"
   xmlns:svg="http://www.w3.org/2000/svg"
   xmlns="http://www.w3.org/2000/svg"
   xmlns:sodipodi="http://sodipodi.sourceforge.net/DTD/sodipodi-0.dtd"
   xmlns:inkscape="http://www.inkscape.org/namespaces/inkscape"
   width="576px"
   height="432px"
   viewBox="0 0 576 432"
   id="svg3511"
   version="1.1"
   inkscape:version="0.48.4 r9939"
   sodipodi:docname="coupe_vp_mono_uni_vert.svg"
   inkscape:export-filename="/home/dinsenma/Desktop/Stage_M2/redaction/img/mono_param/coupe_vp_mono_uni_vert.png"
   inkscape:export-xdpi="200"
   inkscape:export-ydpi="200">
  <metadata
     id="metadata3689">
    <rdf:RDF>
      <cc:Work
         rdf:about="">
        <dc:format>image/svg+xml</dc:format>
        <dc:type
           rdf:resource="http://purl.org/dc/dcmitype/StillImage" />
        <dc:title>glps_renderer figure</dc:title>
      </cc:Work>
    </rdf:RDF>
  </metadata>
  <sodipodi:namedview
     pagecolor="#ffffff"
     bordercolor="#666666"
     borderopacity="1"
     objecttolerance="10"
     gridtolerance="10"
     guidetolerance="10"
     inkscape:pageopacity="0"
     inkscape:pageshadow="2"
     inkscape:window-width="1600"
     inkscape:window-height="847"
     id="namedview3687"
     showgrid="false"
     inkscape:zoom="1.0925926"
     inkscape:cx="232.97406"
     inkscape:cy="264.50847"
     inkscape:window-x="0"
     inkscape:window-y="31"
     inkscape:window-maximized="1"
     inkscape:current-layer="svg3511" />
  <title
     id="title3513">glps_renderer figure</title>
  <desc
     id="desc3515">
Creator: GL2PS 1.3.8, (C) 1999-2012 C. Geuzaine
For: Octave
CreationDate: Tue Jun 28 13:53:51 2016
</desc>
  <defs
     id="defs3517" />
  <polygon
     style="fill:#ffffff;stroke-width:2.50000000000000000;stroke-miterlimit:4;stroke-dasharray:none"
     id="polygon3521"
     points="521.28,384.48 521.28,384.48 521.28,32.4 " />
  <polygon
     style="fill:#ffffff;stroke-width:2.50000000000000000;stroke-miterlimit:4;stroke-dasharray:none"
     id="polygon3523"
     points="521.28,384.48 521.28,32.4 521.28,32.4 " />
  <polygon
     style="fill:#ffffff;stroke-width:2.50000000000000000;stroke-miterlimit:4;stroke-dasharray:none"
     id="polygon3525"
     points="74.8799,32.4 74.8799,32.4 521.28,32.4 " />
  <polygon
     style="fill:#ffffff;stroke-width:2.50000000000000000;stroke-miterlimit:4;stroke-dasharray:none"
     id="polygon3527"
     points="74.8799,32.4 521.28,32.4 521.28,32.4 " />
  <polygon
     style="fill:#ffffff;stroke-width:2.50000000000000000;stroke-miterlimit:4;stroke-dasharray:none"
     id="polygon3529"
     points="74.8799,32.4 74.8799,384.48 521.28,384.48 " />
  <polygon
     style="fill:#ffffff;stroke-width:2.50000000000000000;stroke-miterlimit:4;stroke-dasharray:none"
     id="polygon3531"
     points="74.8799,32.4 521.28,384.48 521.28,32.4 " />
  <polyline
     style="fill:none;stroke:#000000;stroke-width:2.50000000000000000;stroke-miterlimit:4;stroke-dasharray:none"
     id="polyline3533"
     points="74.8799,384.48 521.28,384.48" />
  <polyline
     style="fill:none;stroke:#000000;stroke-width:2.50000000000000000;stroke-miterlimit:4;stroke-dasharray:none"
     id="polyline3535"
     points="74.8799,32.4 521.28,32.4" />
  <polyline
     style="fill:none;stroke:#000000;stroke-width:2.50000000000000000;stroke-miterlimit:4;stroke-dasharray:none"
     id="polyline3537"
     points="74.8799,32.4 521.28,32.4" />
  <polyline
     style="fill:none;stroke:#000000;stroke-width:2.50000000000000000;stroke-miterlimit:4;stroke-dasharray:none"
     id="polyline3539"
     points="74.8799,384.48 521.28,384.48" />
  <polyline
     style="fill:none;stroke:#000000;stroke-width:2.50000000000000000;stroke-miterlimit:4;stroke-dasharray:none"
     id="polyline3541"
     points="74.8799,384.48 74.8799,32.4" />
  <polyline
     style="fill:none;stroke:#000000;stroke-width:2.50000000000000000;stroke-miterlimit:4;stroke-dasharray:none"
     id="polyline3543"
     points="521.28,384.48 521.28,32.4" />
  <polyline
     style="fill:none;stroke:#000000;stroke-width:2.50000000000000000;stroke-miterlimit:4;stroke-dasharray:none"
     id="polyline3545"
     points="521.28,384.48 521.28,32.4" />
  <polyline
     style="fill:none;stroke:#000000;stroke-width:2.50000000000000000;stroke-miterlimit:4;stroke-dasharray:none"
     id="polyline3547"
     points="74.8799,384.48 74.8799,32.4 74.8799,32.4" />
  <polyline
     style="fill:none;stroke:#000000;stroke-width:2.50000000000000000;stroke-miterlimit:4;stroke-dasharray:none"
     id="polyline3549"
     points="521.28,32.4 521.28,32.4" />
  <polyline
     style="fill:none;stroke:#000000;stroke-width:2.50000000000000000;stroke-miterlimit:4;stroke-dasharray:none"
     id="polyline3551"
     points="521.28,384.48 521.28,384.48" />
  <polyline
     style="fill:none;stroke:#000000;stroke-width:2.50000000000000000;stroke-miterlimit:4;stroke-dasharray:none"
     id="polyline3553"
     points="74.8799,384.48 74.8799,384.48 74.8799,380.015" />
  <polyline
     style="fill:none;stroke:#000000;stroke-width:2.50000000000000000;stroke-miterlimit:4;stroke-dasharray:none"
     id="polyline3555"
     points="74.8799,32.4 74.8799,36.865" />
  <polyline
     style="fill:none;stroke:#000000;stroke-width:2.50000000000000000;stroke-miterlimit:4;stroke-dasharray:none"
     id="polyline3557"
     points="138.651,384.48 138.651,380.015" />
  <polyline
     style="fill:none;stroke:#000000;stroke-width:2.50000000000000000;stroke-miterlimit:4;stroke-dasharray:none"
     id="polyline3559"
     points="138.651,32.4 138.651,36.865" />
  <polyline
     style="fill:none;stroke:#000000;stroke-width:2.50000000000000000;stroke-miterlimit:4;stroke-dasharray:none"
     id="polyline3561"
     points="202.423,384.48 202.423,380.015" />
  <polyline
     style="fill:none;stroke:#000000;stroke-width:2.50000000000000000;stroke-miterlimit:4;stroke-dasharray:none"
     id="polyline3563"
     points="202.423,32.4 202.423,36.865" />
  <polyline
     style="fill:none;stroke:#000000;stroke-width:2.50000000000000000;stroke-miterlimit:4;stroke-dasharray:none"
     id="polyline3565"
     points="266.194,384.48 266.194,380.015" />
  <polyline
     style="fill:none;stroke:#000000;stroke-width:2.50000000000000000;stroke-miterlimit:4;stroke-dasharray:none"
     id="polyline3567"
     points="266.194,32.4 266.194,36.865" />
  <polyline
     style="fill:none;stroke:#000000;stroke-width:2.50000000000000000;stroke-miterlimit:4;stroke-dasharray:none"
     id="polyline3569"
     points="329.966,384.48 329.966,380.015" />
  <polyline
     style="fill:none;stroke:#000000;stroke-width:2.50000000000000000;stroke-miterlimit:4;stroke-dasharray:none"
     id="polyline3571"
     points="329.966,32.4 329.966,36.865" />
  <polyline
     style="fill:none;stroke:#000000;stroke-width:2.50000000000000000;stroke-miterlimit:4;stroke-dasharray:none"
     id="polyline3573"
     points="393.737,384.48 393.737,380.015" />
  <polyline
     style="fill:none;stroke:#000000;stroke-width:2.50000000000000000;stroke-miterlimit:4;stroke-dasharray:none"
     id="polyline3575"
     points="393.737,32.4 393.737,36.865" />
  <polyline
     style="fill:none;stroke:#000000;stroke-width:2.50000000000000000;stroke-miterlimit:4;stroke-dasharray:none"
     id="polyline3577"
     points="457.508,384.48 457.508,380.015" />
  <polyline
     style="fill:none;stroke:#000000;stroke-width:2.50000000000000000;stroke-miterlimit:4;stroke-dasharray:none"
     id="polyline3579"
     points="457.508,32.4 457.508,36.865" />
  <polyline
     style="fill:none;stroke:#000000;stroke-width:2.50000000000000000;stroke-miterlimit:4;stroke-dasharray:none"
     id="polyline3581"
     points="521.28,384.48 521.28,380.015" />
  <polyline
     style="fill:none;stroke:#000000;stroke-width:2.50000000000000000;stroke-miterlimit:4;stroke-dasharray:none"
     id="polyline3583"
     points="521.28,32.4 521.28,36.865" />
  <g
     id="g6367"
     transform="translate(0,6.4067797)">
    <text
       x="74.879997"
       y="389.48099"
       font-size="10"
       baseline-shift="-10"
       id="text3585"
       style="font-size:20px;text-anchor:middle;baseline-shift:-10px;fill:#000000;stroke-width:2.5;stroke-miterlimit:4;stroke-dasharray:none;font-family:Helvetica">4800</text>
    <text
       x="138.651"
       y="389.48099"
       font-size="10"
       baseline-shift="-10"
       id="text3587"
       style="font-size:20px;text-anchor:middle;baseline-shift:-10px;fill:#000000;stroke-width:2.5;stroke-miterlimit:4;stroke-dasharray:none;font-family:Helvetica">5000</text>
    <text
       x="202.423"
       y="389.48099"
       font-size="10"
       baseline-shift="-10"
       id="text3589"
       style="font-size:20px;text-anchor:middle;baseline-shift:-10px;fill:#000000;stroke-width:2.5;stroke-miterlimit:4;stroke-dasharray:none;font-family:Helvetica">5200</text>
    <text
       x="266.194"
       y="389.48099"
       font-size="10"
       baseline-shift="-10"
       id="text3591"
       style="font-size:20px;text-anchor:middle;baseline-shift:-10px;fill:#000000;stroke-width:2.5;stroke-miterlimit:4;stroke-dasharray:none;font-family:Helvetica">5400</text>
    <text
       x="329.966"
       y="389.48099"
       font-size="10"
       baseline-shift="-10"
       id="text3593"
       style="font-size:20px;text-anchor:middle;baseline-shift:-10px;fill:#000000;stroke-width:2.5;stroke-miterlimit:4;stroke-dasharray:none;font-family:Helvetica">5600</text>
    <text
       x="393.737"
       y="389.48099"
       font-size="10"
       baseline-shift="-10"
       id="text3595"
       style="font-size:20px;text-anchor:middle;baseline-shift:-10px;fill:#000000;stroke-width:2.5;stroke-miterlimit:4;stroke-dasharray:none;font-family:Helvetica">5800</text>
    <text
       x="457.508"
       y="389.48099"
       font-size="10"
       baseline-shift="-10"
       id="text3597"
       style="font-size:20px;text-anchor:middle;baseline-shift:-10px;fill:#000000;stroke-width:2.5;stroke-miterlimit:4;stroke-dasharray:none;font-family:Helvetica">6000</text>
    <text
       x="521.28003"
       y="389.48099"
       font-size="10"
       baseline-shift="-10"
       id="text3599"
       style="font-size:20px;text-anchor:middle;baseline-shift:-10px;fill:#000000;stroke-width:2.5;stroke-miterlimit:4;stroke-dasharray:none;font-family:Helvetica">6200</text>
  </g>
  <polyline
     style="fill:none;stroke:#000000;stroke-width:2.50000000000000000;stroke-miterlimit:4;stroke-dasharray:none"
     id="polyline3601"
     points="74.8799,384.48 79.3479,384.48" />
  <polyline
     style="fill:none;stroke:#000000;stroke-width:2.50000000000000000;stroke-miterlimit:4;stroke-dasharray:none"
     id="polyline3603"
     points="521.28,384.48 516.812,384.48" />
  <polyline
     style="fill:none;stroke:#000000;stroke-width:2.50000000000000000;stroke-miterlimit:4;stroke-dasharray:none"
     id="polyline3605"
     points="74.8799,314.064 79.3479,314.064" />
  <polyline
     style="fill:none;stroke:#000000;stroke-width:2.50000000000000000;stroke-miterlimit:4;stroke-dasharray:none"
     id="polyline3607"
     points="521.28,314.064 516.812,314.064" />
  <polyline
     style="fill:none;stroke:#000000;stroke-width:2.50000000000000000;stroke-miterlimit:4;stroke-dasharray:none"
     id="polyline3609"
     points="74.8799,243.648 79.3479,243.648" />
  <polyline
     style="fill:none;stroke:#000000;stroke-width:2.50000000000000000;stroke-miterlimit:4;stroke-dasharray:none"
     id="polyline3611"
     points="521.28,243.648 516.812,243.648" />
  <polyline
     style="fill:none;stroke:#000000;stroke-width:2.50000000000000000;stroke-miterlimit:4;stroke-dasharray:none"
     id="polyline3613"
     points="74.8799,173.232 79.3479,173.232" />
  <polyline
     style="fill:none;stroke:#000000;stroke-width:2.50000000000000000;stroke-miterlimit:4;stroke-dasharray:none"
     id="polyline3615"
     points="521.28,173.232 516.812,173.232" />
  <polyline
     style="fill:none;stroke:#000000;stroke-width:2.50000000000000000;stroke-miterlimit:4;stroke-dasharray:none"
     id="polyline3617"
     points="74.8799,102.816 79.3479,102.816" />
  <polyline
     style="fill:none;stroke:#000000;stroke-width:2.50000000000000000;stroke-miterlimit:4;stroke-dasharray:none"
     id="polyline3619"
     points="521.28,102.816 516.812,102.816" />
  <polyline
     style="fill:none;stroke:#000000;stroke-width:2.50000000000000000;stroke-miterlimit:4;stroke-dasharray:none"
     id="polyline3621"
     points="74.8799,32.4 79.3479,32.4" />
  <polyline
     style="fill:none;stroke:#000000;stroke-width:2.50000000000000000;stroke-miterlimit:4;stroke-dasharray:none"
     id="polyline3623"
     points="521.28,32.4 516.812,32.4" />
  <text
     style="font-size:20px;text-anchor:end;baseline-shift:-5px;fill:#000000;stroke-width:2.50000000000000000;stroke-miterlimit:4;stroke-dasharray:none;font-family:Helvetica"
     id="text3625"
     baseline-shift="-5"
     font-size="10"
     y="384.48001"
     x="69.875504">-50</text>
  <text
     style="font-size:20px;text-anchor:end;baseline-shift:-5px;fill:#000000;stroke-width:2.50000000000000000;stroke-miterlimit:4;stroke-dasharray:none;font-family:Helvetica"
     id="text3627"
     baseline-shift="-5"
     font-size="10"
     y="314.064"
     x="69.875504">-40</text>
  <text
     style="font-size:20px;text-anchor:end;baseline-shift:-5px;fill:#000000;stroke-width:2.50000000000000000;stroke-miterlimit:4;stroke-dasharray:none;font-family:Helvetica"
     id="text3629"
     baseline-shift="-5"
     font-size="10"
     y="243.64799"
     x="69.875504">-30</text>
  <text
     style="font-size:20px;text-anchor:end;baseline-shift:-5px;fill:#000000;stroke-width:2.50000000000000000;stroke-miterlimit:4;stroke-dasharray:none;font-family:Helvetica"
     id="text3631"
     baseline-shift="-5"
     font-size="10"
     y="173.23199"
     x="69.875504">-20</text>
  <text
     style="font-size:20px;text-anchor:end;baseline-shift:-5px;fill:#000000;stroke-width:2.50000000000000000;stroke-miterlimit:4;stroke-dasharray:none;font-family:Helvetica"
     id="text3633"
     baseline-shift="-5"
     font-size="10"
     y="102.816"
     x="69.875504">-10</text>
  <text
     style="font-size:20px;text-anchor:end;baseline-shift:-5px;fill:#000000;stroke-width:2.50000000000000000;stroke-miterlimit:4;stroke-dasharray:none;font-family:Helvetica"
     id="text3635"
     baseline-shift="-5"
     font-size="10"
     y="32.400002"
     x="69.875504">0</text>
  <text
     style="font-size:20px;text-anchor:middle;baseline-shift:-10px;fill:#000000;stroke-width:2.5;stroke-miterlimit:4;stroke-dasharray:none;font-family:Helvetica"
     id="text3637"
     baseline-shift="-10"
     font-size="10"
     y="25.270664"
     x="-210.28149"
     transform="matrix(0,-1,1,0,0,0)">mm</text>
  <text
     style="font-size:20px;text-anchor:middle;baseline-shift:0px;fill:#000000;stroke-width:2.5;stroke-miterlimit:4;stroke-dasharray:none;font-family:Helvetica"
     id="text3639"
     baseline-shift="0"
     font-size="10"
     y="426.14847"
     x="290.92938">Vitesse en m/s</text>
  <polyline
     style="fill:none;stroke:#0000ff;stroke-width:2.50000000000000000;stroke-miterlimit:4;stroke-dasharray:none"
     id="polyline3641"
     points="329.141,32.4 329.737,34.1604 314.991,35.9208 287.288,37.6812 280.71,39.4416 298.808,41.202 312.22,42.9624 309.102,44.7228 302.431,46.4832 302.718,48.2436 307.324,50.004 310.238,51.7644 310.154,53.5248 309.121,55.2852 308.475,57.0456 307.971,58.806 307.094,60.5664 305.808,62.3268 304,64.0872 301.853,65.8476 300.743,67.608 301.082,69.3684 300.744,71.1288 298.756,72.8892 296.919,74.6496 297.758,76.41 301.185,78.1704 304.341,79.9308 304.448,81.6912 301.596,83.4516 298.629,85.212 297.695,86.9724 298.137,88.7328 298.048,90.4932 297.271,92.2536 296.596,94.014 296.148,95.7744 295.735,97.5348 295.428,99.2952 295.523,101.056 295.979,102.816 296.87,104.576 298.078,106.337 298.962,108.097 299.173,109.858 299.232,111.618 299.714,113.378 300.502,115.139 301.036,116.899 301.19,118.66 301.292,120.42 301.392,122.18 301.262,123.941 300.7,125.701 299.847,127.462 299.203,129.222 298.789,130.982 298.196,132.743 297.43,134.503 296.845,136.264 296.656,138.024 296.743,139.784 296.868,141.545 296.987,143.305 297.318,145.066 297.936,146.826 298.838,148.586 299.933,150.347 301.129,152.107 302.327,153.868 303.365,155.628 304.025,157.388 304.383,159.149 304.648,160.909 304.854,162.67 305.048,164.43 305.166,166.19 305.135,167.951 304.746,169.711 303.959,171.472 303.032,173.232 302.522,174.992 302.819,176.753 303.785,178.513 304.856,180.274 305.558,182.034 305.552,183.794 304.602,185.555 302.397,187.315 298.954,189.076 294.625,190.836 289.696,192.596 284.398,194.357 279.013,196.117 274.047,197.878 270.174,199.638 267.937,201.398 267.632,203.159 269.548,204.919 273.906,206.68 280.805,208.44 290.06,210.2 301.506,211.961 314.115,213.721 325.809,215.482 333.889,217.242 336.132,219.002 332.292,220.763 322.478,222.523 303.372,224.284 266.821,226.044 210.469,227.804 168.851,229.565 213.134,231.325 339.194,233.086 421.212,234.846 291.174,236.606 74.8799,238.367 74.8799,240.127 74.8799,241.888 74.8799,243.648 74.8799,245.408 74.8799,247.169 370.596,248.929 498.789,250.69 403.279,252.45 244.483,254.21 177.559,255.971 227.65,257.731 292.642,259.492 319.229,261.252 320.341,263.012 316.279,264.773 313.08,266.533 308.298,268.294 298.653,270.054 284.057,271.814 268.441,273.575 256.278,275.335 249.317,277.096 246.365,278.856 245.885,280.616 247.919,282.377 253.361,284.137 261.671,285.898 270.817,287.658 279.514,289.418 288.125,291.179 295.951,292.939 300.958,294.7 303.222,296.46 304.5,298.22 304.977,299.981 303.888,301.741 301.778,303.502 299.813,305.262 298.218,307.022 296.73,308.783 295.216,310.543 293.875,312.304 293.088,314.064 293.666,315.824 296.094,317.585 299.504,319.345 302.344,321.106 304.084,322.866 305.665,324.626 307.907,326.387 310.324,328.147 312.007,329.908 312.724,331.668 312.952,333.428 312.899,335.189 312.531,336.949 311.511,338.71 309.37,340.47 306.369,342.23 303.907,343.991 302.889,345.751 302.769,347.512 301.616,349.272 298.877,351.032 297.158,352.793 297.421,354.553 297.958,356.314 296.015,358.074 291.863,359.834 289.574,361.595 292.005,363.355 295.79,365.116 294.646,366.876 288.613,368.636 285.903,370.397 291.756,372.157 299.459,373.918 300.21,375.678 297.868,377.438 300.29,379.199 301.15,380.959 302.915,382.72" />
  <polyline
     style="fill:none;stroke:#ff0000;stroke-width:2.50000000000000000;stroke-miterlimit:4;stroke-dasharray:none"
     id="polyline3643"
     points="298.08,32.4 298.08,34.1604 298.08,35.9208 298.08,37.6812 298.08,39.4416 298.08,41.202 298.08,42.9624 298.08,44.7228 298.08,46.4832 298.08,48.2436 298.08,50.004 298.08,51.7644 298.08,53.5248 298.08,55.2852 298.08,57.0456 298.08,58.806 298.08,60.5664 298.08,62.3268 298.08,64.0872 298.08,65.8476 298.08,67.608 298.08,69.3684 298.08,71.1288 298.08,72.8892 298.08,74.6496 298.08,76.41 298.08,78.1704 298.08,79.9308 298.08,81.6912 298.08,83.4516 298.08,85.212 298.08,86.9724 298.08,88.7328 298.08,90.4932 298.08,92.2536 298.08,94.014 298.08,95.7744 298.08,97.5348 298.08,99.2952 298.08,101.056 298.08,102.816 298.08,104.576 298.08,106.337 298.08,108.097 298.08,109.858 298.08,111.618 298.08,113.378 298.08,115.139 298.08,116.899 298.08,118.66 298.08,120.42 298.08,122.18 298.08,123.941 298.08,125.701 298.08,127.462 298.08,129.222 298.08,130.982 298.08,132.743 298.08,134.503 298.08,136.264 298.08,138.024 298.08,139.784 298.08,141.545 298.08,143.305 298.08,145.066 298.08,146.826 298.08,148.586 298.08,150.347 298.08,152.107 298.08,153.868 298.08,155.628 298.08,157.388 298.08,159.149 298.08,160.909 298.08,162.67 298.08,164.43 298.08,166.19 298.08,167.951 298.08,169.711 298.08,171.472 298.08,173.232 298.08,174.992 298.08,176.753 298.08,178.513 298.08,180.274 298.08,182.034 298.08,183.794 298.08,185.555 298.08,187.315 298.08,189.076 298.08,190.836 298.08,192.596 298.08,194.357 298.08,196.117 298.08,197.878 298.08,199.638 298.08,201.398 298.08,203.159 298.08,204.919 298.08,206.68 298.08,208.44 298.08,210.2 298.08,211.961 298.08,213.721 298.08,215.482 298.08,217.242 298.08,219.002 298.08,220.763 298.08,222.523 298.08,224.284 298.08,226.044 298.08,227.804 298.08,229.565 298.08,231.325 298.08,233.086 298.08,234.846 138.651,236.606 138.651,238.367 138.651,240.127 138.651,241.888 138.651,243.648 138.651,245.408 138.651,247.169 298.08,248.929 298.08,250.69 298.08,252.45 298.08,254.21 298.08,255.971 298.08,257.731 298.08,259.492 298.08,261.252 298.08,263.012 298.08,264.773 298.08,266.533 298.08,268.294 298.08,270.054 298.08,271.814 298.08,273.575 298.08,275.335 298.08,277.096 298.08,278.856 298.08,280.616 298.08,282.377 298.08,284.137 298.08,285.898 298.08,287.658 298.08,289.418 298.08,291.179 298.08,292.939 298.08,294.7 298.08,296.46 298.08,298.22 298.08,299.981 298.08,301.741 298.08,303.502 298.08,305.262 298.08,307.022 298.08,308.783 298.08,310.543 298.08,312.304 298.08,314.064 298.08,315.824 298.08,317.585 298.08,319.345 298.08,321.106 298.08,322.866 298.08,324.626 298.08,326.387 298.08,328.147 298.08,329.908 298.08,331.668 298.08,333.428 298.08,335.189 298.08,336.949 298.08,338.71 298.08,340.47 298.08,342.23 298.08,343.991 298.08,345.751 298.08,347.512 298.08,349.272 298.08,351.032 298.08,352.793 298.08,354.553 298.08,356.314 298.08,358.074 298.08,359.834 298.08,361.595 298.08,363.355 298.08,365.116 298.08,366.876 298.08,368.636 298.08,370.397 298.08,372.157 298.08,373.918 298.08,375.678 298.08,377.438 298.08,379.199 298.08,380.959 298.08,382.72" />
  <polygon
     style="fill:#ffffff;stroke-width:2.50000000000000000;stroke-miterlimit:4;stroke-dasharray:none"
     id="polygon3645"
     points="518.535,67.3768 518.535,67.3768 518.535,35.1447 " />
  <polygon
     style="fill:#ffffff;stroke-width:2.50000000000000000;stroke-miterlimit:4;stroke-dasharray:none"
     id="polygon3647"
     points="518.535,67.3768 518.535,35.1447 518.535,35.1447 " />
  <polygon
     style="fill:#ffffff;stroke-width:2.50000000000000000;stroke-miterlimit:4;stroke-dasharray:none"
     id="polygon3649"
     points="426.974,35.1447 426.974,35.1447 518.535,35.1447 " />
  <polygon
     style="fill:#ffffff;stroke-width:2.50000000000000000;stroke-miterlimit:4;stroke-dasharray:none"
     id="polygon3651"
     points="426.974,35.1447 518.535,35.1447 518.535,35.1447 " />
  <polygon
     style="fill:#ffffff;stroke-width:2.50000000000000000;stroke-miterlimit:4;stroke-dasharray:none"
     id="polygon3653"
     points="426.974,35.1447 426.974,67.3768 518.535,67.3768 " />
  <polygon
     style="fill:#ffffff;stroke-width:2.50000000000000000;stroke-miterlimit:4;stroke-dasharray:none"
     id="polygon3655"
     points="426.974,35.1447 518.535,67.3768 518.535,35.1447 " />
  <polyline
     style="fill:none;stroke:#000000;stroke-width:2.50000000000000000;stroke-miterlimit:4;stroke-dasharray:none"
     id="polyline3673"
     points="518.535,35.1447 518.535,35.1447" />
  <polyline
     style="fill:none;stroke:#000000;stroke-width:2.50000000000000000;stroke-miterlimit:4;stroke-dasharray:none"
     id="polyline3675"
     points="518.535,67.3768 518.535,67.3768" />
  <polyline
     style="fill:none;stroke:#000000;stroke-width:2.50000000000000000;stroke-miterlimit:4;stroke-dasharray:none"
     id="polyline3677"
     points="426.974,67.3768 426.974,67.3768" />
  <g
     id="g6377"
     transform="translate(-48.508475,7.3220339)">
    <text
       x="453.048"
       y="43.202702"
       font-size="10"
       baseline-shift="-5"
       id="text3679"
       style="font-size:20px;text-anchor:start;baseline-shift:-5px;fill:#000000;stroke-width:2.5;stroke-miterlimit:4;stroke-dasharray:none;font-family:Helvetica">Reconstruite</text>
    <text
       x="453.048"
       y="59.318802"
       font-size="10"
       baseline-shift="-5"
       id="text3681"
       style="font-size:20px;text-anchor:start;baseline-shift:-5px;fill:#000000;stroke-width:2.5;stroke-miterlimit:4;stroke-dasharray:none;font-family:Helvetica">Vraie</text>
    <polyline
       points="429.718,43.2027 450.303,43.2027"
       id="polyline3683"
       style="fill:none;stroke:#0000ff;stroke-width:2.5;stroke-miterlimit:4;stroke-dasharray:none" />
    <polyline
       points="429.718,59.3188 450.303,59.3188"
       id="polyline3685"
       style="fill:none;stroke:#ff0000;stroke-width:2.5;stroke-miterlimit:4;stroke-dasharray:none" />
  </g>
</svg>
