<?xml version="1.0" encoding="UTF-8" standalone="no"?>
<svg xmlns="http://www.w3.org/2000/svg"
     xmlns:xlink="http://www.w3.org/1999/xlink"
     width="576px" height="432px" viewBox="0 0 576 432">
<title>glps_renderer figure</title>
<desc>
Creator: GL2PS 1.3.8, (C) 1999-2012 C. Geuzaine
For: Octave
CreationDate: Fri Jul  8 09:42:26 2016
</desc>
<defs>
</defs>
<g shape-rendering="crispEdges">
<polygon fill="#ffffff" points="521.28,384.48 521.28,32.4 521.28,384.48"/>
<polygon fill="#ffffff" points="521.28,32.4 521.28,32.4 521.28,384.48"/>
<polygon fill="#ffffff" points="74.88,32.4 521.28,32.4 74.88,32.4"/>
<polygon fill="#ffffff" points="521.28,32.4 521.28,32.4 74.88,32.4"/>
<polygon fill="#ffffff" points="74.88,384.48 521.28,384.48 74.88,32.4"/>
<polygon fill="#ffffff" points="521.28,384.48 521.28,32.4 74.88,32.4"/>
<polyline fill="none" stroke="#000000" stroke-width="0.5" stroke-dasharray="16,0" points="74.88,384.48 521.28,384.48"/>
<polyline fill="none" stroke="#000000" stroke-width="0.5" stroke-dasharray="16,0" points="74.88,32.4 521.28,32.4"/>
<polyline fill="none" stroke="#000000" stroke-width="0.5" stroke-dasharray="16,0" points="74.88,32.4 521.28,32.4"/>
<polyline fill="none" stroke="#000000" stroke-width="0.5" stroke-dasharray="16,0" points="74.88,384.48 521.28,384.48"/>
<polyline fill="none" stroke="#000000" stroke-width="0.5" stroke-dasharray="16,0" points="74.88,384.48 74.88,32.4"/>
<polyline fill="none" stroke="#000000" stroke-width="0.5" stroke-dasharray="16,0" points="521.28,384.48 521.28,32.4"/>
<polyline fill="none" stroke="#000000" stroke-width="0.5" stroke-dasharray="16,0" points="521.28,384.48 521.28,32.4"/>
<polyline fill="none" stroke="#000000" stroke-width="0.5" stroke-dasharray="16,0" points="74.88,384.48 74.88,32.4 74.88,32.4"/>
<polyline fill="none" stroke="#000000" stroke-width="0.5" stroke-dasharray="16,0" points="521.28,32.4 521.28,32.4"/>
<polyline fill="none" stroke="#000000" stroke-width="0.5" stroke-dasharray="16,0" points="521.28,384.48 521.28,384.48"/>
<polyline fill="none" stroke="#000000" stroke-width="0.5" stroke-dasharray="16,0" points="74.88,384.48 74.88,384.48 74.88,380.015"/>
<polyline fill="none" stroke="#000000" stroke-width="0.5" stroke-dasharray="16,0" points="74.88,32.4 74.88,36.865"/>
<polyline fill="none" stroke="#000000" stroke-width="0.5" stroke-dasharray="16,0" points="149.28,384.48 149.28,380.015"/>
<polyline fill="none" stroke="#000000" stroke-width="0.5" stroke-dasharray="16,0" points="149.28,32.4 149.28,36.865"/>
<polyline fill="none" stroke="#000000" stroke-width="0.5" stroke-dasharray="16,0" points="223.68,384.48 223.68,380.015"/>
<polyline fill="none" stroke="#000000" stroke-width="0.5" stroke-dasharray="16,0" points="223.68,32.4 223.68,36.865"/>
<polyline fill="none" stroke="#000000" stroke-width="0.5" stroke-dasharray="16,0" points="298.08,384.48 298.08,380.015"/>
<polyline fill="none" stroke="#000000" stroke-width="0.5" stroke-dasharray="16,0" points="298.08,32.4 298.08,36.865"/>
<polyline fill="none" stroke="#000000" stroke-width="0.5" stroke-dasharray="16,0" points="372.48,384.48 372.48,380.015"/>
<polyline fill="none" stroke="#000000" stroke-width="0.5" stroke-dasharray="16,0" points="372.48,32.4 372.48,36.865"/>
<polyline fill="none" stroke="#000000" stroke-width="0.5" stroke-dasharray="16,0" points="446.88,384.48 446.88,380.015"/>
<polyline fill="none" stroke="#000000" stroke-width="0.5" stroke-dasharray="16,0" points="446.88,32.4 446.88,36.865"/>
<polyline fill="none" stroke="#000000" stroke-width="0.5" stroke-dasharray="16,0" points="521.28,384.48 521.28,380.015"/>
<polyline fill="none" stroke="#000000" stroke-width="0.5" stroke-dasharray="16,0" points="521.28,32.4 521.28,36.865"/>
<text fill="#000000" x="74.88" y="389.481" font-size="10" text-anchor="middle" baseline-shift="-10" font-family="Helvetica">3000</text>
<text fill="#000000" x="149.28" y="389.481" font-size="10" text-anchor="middle" baseline-shift="-10" font-family="Helvetica">4000</text>
<text fill="#000000" x="223.68" y="389.481" font-size="10" text-anchor="middle" baseline-shift="-10" font-family="Helvetica">5000</text>
<text fill="#000000" x="298.08" y="389.481" font-size="10" text-anchor="middle" baseline-shift="-10" font-family="Helvetica">6000</text>
<text fill="#000000" x="372.48" y="389.481" font-size="10" text-anchor="middle" baseline-shift="-10" font-family="Helvetica">7000</text>
<text fill="#000000" x="446.88" y="389.481" font-size="10" text-anchor="middle" baseline-shift="-10" font-family="Helvetica">8000</text>
<text fill="#000000" x="521.28" y="389.481" font-size="10" text-anchor="middle" baseline-shift="-10" font-family="Helvetica">9000</text>
<polyline fill="none" stroke="#000000" stroke-width="0.5" stroke-dasharray="16,0" points="74.88,384.48 79.348,384.48"/>
<polyline fill="none" stroke="#000000" stroke-width="0.5" stroke-dasharray="16,0" points="521.28,384.48 516.812,384.48"/>
<polyline fill="none" stroke="#000000" stroke-width="0.5" stroke-dasharray="16,0" points="74.88,314.064 79.348,314.064"/>
<polyline fill="none" stroke="#000000" stroke-width="0.5" stroke-dasharray="16,0" points="521.28,314.064 516.812,314.064"/>
<polyline fill="none" stroke="#000000" stroke-width="0.5" stroke-dasharray="16,0" points="74.88,243.648 79.348,243.648"/>
<polyline fill="none" stroke="#000000" stroke-width="0.5" stroke-dasharray="16,0" points="521.28,243.648 516.812,243.648"/>
<polyline fill="none" stroke="#000000" stroke-width="0.5" stroke-dasharray="16,0" points="74.88,173.232 79.348,173.232"/>
<polyline fill="none" stroke="#000000" stroke-width="0.5" stroke-dasharray="16,0" points="521.28,173.232 516.812,173.232"/>
<polyline fill="none" stroke="#000000" stroke-width="0.5" stroke-dasharray="16,0" points="74.88,102.816 79.348,102.816"/>
<polyline fill="none" stroke="#000000" stroke-width="0.5" stroke-dasharray="16,0" points="521.28,102.816 516.812,102.816"/>
<polyline fill="none" stroke="#000000" stroke-width="0.5" stroke-dasharray="16,0" points="74.88,32.4 79.348,32.4"/>
<polyline fill="none" stroke="#000000" stroke-width="0.5" stroke-dasharray="16,0" points="521.28,32.4 516.812,32.4"/>
<text fill="#000000" x="69.8755" y="384.48" font-size="10" text-anchor="end" baseline-shift="-5" font-family="Helvetica">-50</text>
<text fill="#000000" x="69.8755" y="314.064" font-size="10" text-anchor="end" baseline-shift="-5" font-family="Helvetica">-40</text>
<text fill="#000000" x="69.8755" y="243.648" font-size="10" text-anchor="end" baseline-shift="-5" font-family="Helvetica">-30</text>
<text fill="#000000" x="69.8755" y="173.232" font-size="10" text-anchor="end" baseline-shift="-5" font-family="Helvetica">-20</text>
<text fill="#000000" x="69.8755" y="102.816" font-size="10" text-anchor="end" baseline-shift="-5" font-family="Helvetica">-10</text>
<text fill="#000000" x="69.8755" y="32.4" font-size="10" text-anchor="end" baseline-shift="-5" font-family="Helvetica">0</text>
<text fill="#000000" x="298.08" y="402.481" font-size="10" text-anchor="middle" baseline-shift="-10" font-family="Helvetica">mm</text>
<text fill="#000000" x="49.8755" y="208.44" font-size="10" transform="rotate(-90, 49.8755, 208.44)" text-anchor="middle" baseline-shift="0" font-family="Helvetica">Masse volumique en kg/m3</text>
<polyline fill="none" stroke="#0000ff" stroke-width="0.5" points="425.572,32.4 433.113,34.1604 437.534,35.9208 439.308,37.6812 440.258,39.4416 441.167,41.202 442.036,42.9624 442.716,44.7228 443.276,46.4832 443.818,48.2436 444.327,50.004 444.739,51.7644 445.058,53.5248 445.344,55.2852 445.63,57.0456 445.905,58.806 446.15,60.5664 446.347,62.3268 446.491,64.0872 446.623,65.8476 446.78,67.608 446.951,69.3684 447.042,71.1288 447.023,72.8892 446.987,74.6496 447.051,76.41 447.228,78.1704 447.434,79.9308 447.56,81.6912 447.566,83.4516 447.518,85.212 447.508,86.9724 447.542,88.7328 447.579,90.4932 447.616,92.2536 447.665,94.014 447.712,95.7744 447.741,97.5348 447.756,99.2952 447.774,101.056 447.806,102.816 447.861,104.576 447.926,106.337 447.968,108.097 447.967,109.858 447.948,111.618 447.947,113.378 447.963,115.139 447.975,116.899 447.984,118.66 448.005,120.42 448.032,122.18 448.048,123.941 448.042,125.701 448.032,127.462 448.04,129.222 448.06,130.982 448.078,132.743 448.089,134.503 448.1,136.264 448.116,138.024 448.133,139.784 448.147,141.545 448.155,143.305 448.16,145.066 448.165,146.826 448.174,148.586 448.189,150.347 448.21,152.107 448.233,153.868 448.251,155.628 448.258,157.388 448.257,159.149 448.258,160.909 448.272,162.67 448.303,164.43 448.347,166.19 448.394,167.951 448.43,169.711 448.441,171.472 448.429,173.232 448.413,174.992 448.411,176.753 448.434,178.513 448.473,180.274 448.516,182.034 448.549,183.794 448.564,185.555 448.563,187.315 448.558,189.076 448.559,190.836 448.569,192.596 448.579,194.357 448.587,196.117 448.595,197.878 448.611,199.638 448.636,201.398 448.666,203.159 448.696,204.919 448.728,206.68 448.771,208.44 448.826,210.2 448.882,211.961 448.928,213.721 448.974,215.482 449.066,217.242 449.225,219.002 449.383,220.763 449.375,222.523 449.033,224.284 448.39,226.044 447.907,227.804 448.574,229.565 451.256,231.325 454.87,233.086 455.779,234.846 451.278,236.606 443.951,238.367 439.926,240.127 440.397,241.888 441.022,243.648 441.496,245.408 445.717,247.169 452.701,248.929 456.563,250.69 454.6,252.45 449.878,254.21 446.921,255.971 446.922,257.731 448.198,259.492 449.18,261.252 449.418,263.012 449.175,264.773 448.914,266.533 448.884,268.294 448.983,270.054 449.021,271.814 448.952,273.575 448.861,275.335 448.809,277.096 448.785,278.856 448.74,280.616 448.673,282.377 448.615,284.137 448.577,285.898 448.545,287.658 448.512,289.418 448.495,291.179 448.496,292.939 448.484,294.7 448.452,296.46 448.446,298.22 448.471,299.981 448.482,301.741 448.464,303.502 448.431,305.262 448.391,307.022 448.34,308.783 448.282,310.543 448.234,312.304 448.21,314.064 448.217,315.824 448.248,317.585 448.276,319.345 448.263,321.106 448.197,322.866 448.118,324.626 448.069,326.387 448.045,328.147 448.016,329.908 447.965,331.668 447.903,333.428 447.838,335.189 447.776,336.949 447.717,338.71 447.651,340.47 447.573,342.23 447.501,343.991 447.463,345.751 447.45,347.512 447.424,349.272 447.359,351.032 447.278,352.793 447.176,354.553 447.016,356.314 446.778,358.074 446.503,359.834 446.262,361.595 446.039,363.355 445.724,365.116 445.265,366.876 444.77,368.636 444.377,370.397 444.046,372.157 443.586,373.918 442.927,375.678 442.288,377.438 441.909,379.199 441.79,380.959 440.814,382.72"/>
<polyline fill="none" stroke="#ff0000" stroke-width="0.5" points="446.88,32.4 446.88,34.1604 446.88,35.9208 446.88,37.6812 446.88,39.4416 446.88,41.202 446.88,42.9624 446.88,44.7228 446.88,46.4832 446.88,48.2436 446.88,50.004 446.88,51.7644 446.88,53.5248 446.88,55.2852 446.88,57.0456 446.88,58.806 446.88,60.5664 446.88,62.3268 446.88,64.0872 446.88,65.8476 446.88,67.608 446.88,69.3684 446.88,71.1288 446.88,72.8892 446.88,74.6496 446.88,76.41 446.88,78.1704 446.88,79.9308 446.88,81.6912 446.88,83.4516 446.88,85.212 446.88,86.9724 446.88,88.7328 446.88,90.4932 446.88,92.2536 446.88,94.014 446.88,95.7744 446.88,97.5348 446.88,99.2952 446.88,101.056 446.88,102.816 446.88,104.576 446.88,106.337 446.88,108.097 446.88,109.858 446.88,111.618 446.88,113.378 446.88,115.139 446.88,116.899 446.88,118.66 446.88,120.42 446.88,122.18 446.88,123.941 446.88,125.701 446.88,127.462 446.88,129.222 446.88,130.982 446.88,132.743 446.88,134.503 446.88,136.264 446.88,138.024 446.88,139.784 446.88,141.545 446.88,143.305 446.88,145.066 446.88,146.826 446.88,148.586 446.88,150.347 446.88,152.107 446.88,153.868 446.88,155.628 446.88,157.388 446.88,159.149 446.88,160.909 446.88,162.67 446.88,164.43 446.88,166.19 446.88,167.951 446.88,169.711 446.88,171.472 446.88,173.232 446.88,174.992 446.88,176.753 446.88,178.513 446.88,180.274 446.88,182.034 446.88,183.794 446.88,185.555 446.88,187.315 446.88,189.076 446.88,190.836 446.88,192.596 446.88,194.357 446.88,196.117 446.88,197.878 446.88,199.638 446.88,201.398 446.88,203.159 446.88,204.919 446.88,206.68 446.88,208.44 446.88,210.2 446.88,211.961 446.88,213.721 446.88,215.482 446.88,217.242 446.88,219.002 446.88,220.763 446.88,222.523 446.88,224.284 446.88,226.044 446.88,227.804 446.88,229.565 446.88,231.325 446.88,233.086 446.88,234.846 74.88,236.606 74.88,238.367 74.88,240.127 74.88,241.888 74.88,243.648 74.88,245.408 74.88,247.169 446.88,248.929 446.88,250.69 446.88,252.45 446.88,254.21 446.88,255.971 446.88,257.731 446.88,259.492 446.88,261.252 446.88,263.012 446.88,264.773 446.88,266.533 446.88,268.294 446.88,270.054 446.88,271.814 446.88,273.575 446.88,275.335 446.88,277.096 446.88,278.856 446.88,280.616 446.88,282.377 446.88,284.137 446.88,285.898 446.88,287.658 446.88,289.418 446.88,291.179 446.88,292.939 446.88,294.7 446.88,296.46 446.88,298.22 446.88,299.981 446.88,301.741 446.88,303.502 446.88,305.262 446.88,307.022 446.88,308.783 446.88,310.543 446.88,312.304 446.88,314.064 446.88,315.824 446.88,317.585 446.88,319.345 446.88,321.106 446.88,322.866 446.88,324.626 446.88,326.387 446.88,328.147 446.88,329.908 446.88,331.668 446.88,333.428 446.88,335.189 446.88,336.949 446.88,338.71 446.88,340.47 446.88,342.23 446.88,343.991 446.88,345.751 446.88,347.512 446.88,349.272 446.88,351.032 446.88,352.793 446.88,354.553 446.88,356.314 446.88,358.074 446.88,359.834 446.88,361.595 446.88,363.355 446.88,365.116 446.88,366.876 446.88,368.636 446.88,370.397 446.88,372.157 446.88,373.918 446.88,375.678 446.88,377.438 446.88,379.199 446.88,380.959 446.88,382.72"/>
<polygon fill="#ffffff" points="518.535,67.3768 518.535,35.1447 518.535,67.3768"/>
<polygon fill="#ffffff" points="518.535,35.1447 518.535,35.1447 518.535,67.3768"/>
<polygon fill="#ffffff" points="426.974,35.1447 518.535,35.1447 426.974,35.1447"/>
<polygon fill="#ffffff" points="518.535,35.1447 518.535,35.1447 426.974,35.1447"/>
<polygon fill="#ffffff" points="426.974,67.3768 518.535,67.3768 426.974,35.1447"/>
<polygon fill="#ffffff" points="518.535,67.3768 518.535,35.1447 426.974,35.1447"/>
<polyline fill="none" stroke="#000000" stroke-width="0.5" stroke-dasharray="16,0" points="426.974,67.3768 518.535,67.3768"/>
<polyline fill="none" stroke="#000000" stroke-width="0.5" stroke-dasharray="16,0" points="426.974,35.1447 518.535,35.1447"/>
<polyline fill="none" stroke="#000000" stroke-width="0.5" stroke-dasharray="16,0" points="426.974,35.1447 518.535,35.1447"/>
<polyline fill="none" stroke="#000000" stroke-width="0.5" stroke-dasharray="16,0" points="426.974,67.3768 518.535,67.3768"/>
<polyline fill="none" stroke="#000000" stroke-width="0.5" stroke-dasharray="16,0" points="426.974,67.3768 426.974,35.1447"/>
<polyline fill="none" stroke="#000000" stroke-width="0.5" stroke-dasharray="16,0" points="518.535,67.3768 518.535,35.1447"/>
<polyline fill="none" stroke="#000000" stroke-width="0.5" stroke-dasharray="16,0" points="518.535,67.3768 518.535,35.1447"/>
<polyline fill="none" stroke="#000000" stroke-width="0.5" stroke-dasharray="16,0" points="426.974,67.3768 426.974,35.1447 426.974,35.1447"/>
<polyline fill="none" stroke="#000000" stroke-width="0.5" stroke-dasharray="16,0" points="518.535,35.1447 518.535,35.1447"/>
<polyline fill="none" stroke="#000000" stroke-width="0.5" stroke-dasharray="16,0" points="518.535,67.3768 518.535,67.3768"/>
<polyline fill="none" stroke="#000000" stroke-width="0.5" stroke-dasharray="16,0" points="426.974,67.3768 426.974,67.3768"/>
<text fill="#000000" x="453.048" y="43.2027" font-size="10" text-anchor="start" baseline-shift="-5" font-family="Helvetica">Reconstruite</text>
<text fill="#000000" x="453.048" y="59.3188" font-size="10" text-anchor="start" baseline-shift="-5" font-family="Helvetica">Vraie</text>
<polyline fill="none" stroke="#0000ff" stroke-width="0.5" points="429.718,43.2027 450.303,43.2027"/>
<polyline fill="none" stroke="#ff0000" stroke-width="0.5" points="429.718,59.3188 450.303,59.3188"/>
</g>
</svg>
