<?xml version="1.0" encoding="UTF-8" standalone="no"?>
<svg xmlns="http://www.w3.org/2000/svg"
     xmlns:xlink="http://www.w3.org/1999/xlink"
     width="576px" height="432px" viewBox="0 0 576 432">
<title>glps_renderer figure</title>
<desc>
Creator: GL2PS 1.3.8, (C) 1999-2012 C. Geuzaine
For: Octave
CreationDate: Wed Jul 20 17:46:21 2016
</desc>
<defs>
</defs>
<g shape-rendering="crispEdges">
<polygon fill="#ffffff" points="521.28,384.48 521.28,32.3999 521.28,384.48"/>
<polygon fill="#ffffff" points="521.28,32.3999 521.28,32.3999 521.28,384.48"/>
<polygon fill="#ffffff" points="74.88,32.3999 521.28,32.3999 74.88,32.3999"/>
<polygon fill="#ffffff" points="521.28,32.3999 521.28,32.3999 74.88,32.3999"/>
<polygon fill="#ffffff" points="74.88,384.48 521.28,384.48 74.88,32.3999"/>
<polygon fill="#ffffff" points="521.28,384.48 521.28,32.3999 74.88,32.3999"/>
<polyline fill="none" stroke="#000000" stroke-width="0.5" stroke-dasharray="16,0" points="74.88,384.48 521.28,384.48"/>
<polyline fill="none" stroke="#000000" stroke-width="0.5" stroke-dasharray="16,0" points="74.88,32.3999 521.28,32.3999"/>
<polyline fill="none" stroke="#000000" stroke-width="0.5" stroke-dasharray="16,0" points="74.88,32.3999 521.28,32.3999"/>
<polyline fill="none" stroke="#000000" stroke-width="0.5" stroke-dasharray="16,0" points="74.88,384.48 521.28,384.48"/>
<polyline fill="none" stroke="#000000" stroke-width="0.5" stroke-dasharray="16,0" points="74.88,384.48 74.88,32.3999"/>
<polyline fill="none" stroke="#000000" stroke-width="0.5" stroke-dasharray="16,0" points="521.28,384.48 521.28,32.3999"/>
<polyline fill="none" stroke="#000000" stroke-width="0.5" stroke-dasharray="16,0" points="521.28,384.48 521.28,32.3999"/>
<polyline fill="none" stroke="#000000" stroke-width="0.5" stroke-dasharray="16,0" points="74.88,384.48 74.88,32.3999 74.88,32.3999"/>
<polyline fill="none" stroke="#000000" stroke-width="0.5" stroke-dasharray="16,0" points="521.28,32.3999 521.28,32.3999"/>
<polyline fill="none" stroke="#000000" stroke-width="0.5" stroke-dasharray="16,0" points="521.28,384.48 521.28,384.48"/>
<polyline fill="none" stroke="#000000" stroke-width="0.5" stroke-dasharray="16,0" points="74.88,384.48 74.88,384.48 74.88,380.015"/>
<polyline fill="none" stroke="#000000" stroke-width="0.5" stroke-dasharray="16,0" points="74.88,32.3999 74.88,36.8651"/>
<polyline fill="none" stroke="#000000" stroke-width="0.5" stroke-dasharray="16,0" points="164.16,384.48 164.16,380.015"/>
<polyline fill="none" stroke="#000000" stroke-width="0.5" stroke-dasharray="16,0" points="164.16,32.3999 164.16,36.8651"/>
<polyline fill="none" stroke="#000000" stroke-width="0.5" stroke-dasharray="16,0" points="253.44,384.48 253.44,380.015"/>
<polyline fill="none" stroke="#000000" stroke-width="0.5" stroke-dasharray="16,0" points="253.44,32.3999 253.44,36.8651"/>
<polyline fill="none" stroke="#000000" stroke-width="0.5" stroke-dasharray="16,0" points="342.72,384.48 342.72,380.015"/>
<polyline fill="none" stroke="#000000" stroke-width="0.5" stroke-dasharray="16,0" points="342.72,32.3999 342.72,36.8651"/>
<polyline fill="none" stroke="#000000" stroke-width="0.5" stroke-dasharray="16,0" points="432,384.48 432,380.015"/>
<polyline fill="none" stroke="#000000" stroke-width="0.5" stroke-dasharray="16,0" points="432,32.3999 432,36.8651"/>
<polyline fill="none" stroke="#000000" stroke-width="0.5" stroke-dasharray="16,0" points="521.28,384.48 521.28,380.015"/>
<polyline fill="none" stroke="#000000" stroke-width="0.5" stroke-dasharray="16,0" points="521.28,32.3999 521.28,36.8651"/>
<text fill="#000000" x="74.88" y="389.481" font-size="10" text-anchor="middle" baseline-shift="-10" font-family="Helvetica">0</text>
<text fill="#000000" x="164.16" y="389.481" font-size="10" text-anchor="middle" baseline-shift="-10" font-family="Helvetica">20</text>
<text fill="#000000" x="253.44" y="389.481" font-size="10" text-anchor="middle" baseline-shift="-10" font-family="Helvetica">40</text>
<text fill="#000000" x="342.72" y="389.481" font-size="10" text-anchor="middle" baseline-shift="-10" font-family="Helvetica">60</text>
<text fill="#000000" x="432" y="389.481" font-size="10" text-anchor="middle" baseline-shift="-10" font-family="Helvetica">80</text>
<text fill="#000000" x="521.28" y="389.481" font-size="10" text-anchor="middle" baseline-shift="-10" font-family="Helvetica">100</text>
<polyline fill="none" stroke="#000000" stroke-width="0.5" stroke-dasharray="16,0" points="74.88,384.48 79.348,384.48"/>
<polyline fill="none" stroke="#000000" stroke-width="0.5" stroke-dasharray="16,0" points="521.28,384.48 516.812,384.48"/>
<polyline fill="none" stroke="#000000" stroke-width="0.5" stroke-dasharray="16,0" points="74.88,325.8 79.348,325.8"/>
<polyline fill="none" stroke="#000000" stroke-width="0.5" stroke-dasharray="16,0" points="521.28,325.8 516.812,325.8"/>
<polyline fill="none" stroke="#000000" stroke-width="0.5" stroke-dasharray="16,0" points="74.88,267.12 79.348,267.12"/>
<polyline fill="none" stroke="#000000" stroke-width="0.5" stroke-dasharray="16,0" points="521.28,267.12 516.812,267.12"/>
<polyline fill="none" stroke="#000000" stroke-width="0.5" stroke-dasharray="16,0" points="74.88,208.44 79.348,208.44"/>
<polyline fill="none" stroke="#000000" stroke-width="0.5" stroke-dasharray="16,0" points="521.28,208.44 516.812,208.44"/>
<polyline fill="none" stroke="#000000" stroke-width="0.5" stroke-dasharray="16,0" points="74.88,149.76 79.348,149.76"/>
<polyline fill="none" stroke="#000000" stroke-width="0.5" stroke-dasharray="16,0" points="521.28,149.76 516.812,149.76"/>
<polyline fill="none" stroke="#000000" stroke-width="0.5" stroke-dasharray="16,0" points="74.88,91.0799 79.348,91.0799"/>
<polyline fill="none" stroke="#000000" stroke-width="0.5" stroke-dasharray="16,0" points="521.28,91.0799 516.812,91.0799"/>
<polyline fill="none" stroke="#000000" stroke-width="0.5" stroke-dasharray="16,0" points="74.88,32.3999 79.348,32.3999"/>
<polyline fill="none" stroke="#000000" stroke-width="0.5" stroke-dasharray="16,0" points="521.28,32.3999 516.812,32.3999"/>
<text fill="#000000" x="69.8755" y="384.48" font-size="10" text-anchor="end" baseline-shift="-5" font-family="Helvetica">5000</text>
<text fill="#000000" x="69.8755" y="325.8" font-size="10" text-anchor="end" baseline-shift="-5" font-family="Helvetica">5200</text>
<text fill="#000000" x="69.8755" y="267.12" font-size="10" text-anchor="end" baseline-shift="-5" font-family="Helvetica">5400</text>
<text fill="#000000" x="69.8755" y="208.44" font-size="10" text-anchor="end" baseline-shift="-5" font-family="Helvetica">5600</text>
<text fill="#000000" x="69.8755" y="149.76" font-size="10" text-anchor="end" baseline-shift="-5" font-family="Helvetica">5800</text>
<text fill="#000000" x="69.8755" y="91.08" font-size="10" text-anchor="end" baseline-shift="-5" font-family="Helvetica">6000</text>
<text fill="#000000" x="69.8755" y="32.3998" font-size="10" text-anchor="end" baseline-shift="-5" font-family="Helvetica">6200</text>
<text fill="#000000" x="298.08" y="402.481" font-size="10" text-anchor="middle" baseline-shift="-10" font-family="Helvetica">mm</text>
<text fill="#000000" x="41.8755" y="208.44" font-size="10" transform="rotate(-90, 41.8755, 208.44)" text-anchor="middle" baseline-shift="0" font-family="Helvetica">Vitesse en m/s</text>
<polyline fill="none" stroke="#0000ff" stroke-width="0.5" points="74.88,85.8845 75.996,85.9902 77.112,86.1488 78.228,86.3509 79.344,86.5907 80.46,86.8624 81.576,87.172 82.692,87.5319 83.808,87.943 84.924,88.3861 86.04,88.8416 87.156,89.3038 88.272,89.7877 89.388,90.3049 90.504,90.8411 91.62,91.3718 92.736,91.8814 93.852,92.3807 94.968,92.8891 96.084,93.4008 97.2,93.8911 98.316,94.3264 99.432,94.7072 100.548,95.0465 101.664,95.3499 102.78,95.6035 103.896,95.7945 105.012,95.9129 106.128,95.9704 107.244,95.9794 108.36,95.9393 109.476,95.8435 110.592,95.6886 111.708,95.4816 112.824,95.2411 113.94,94.9658 115.056,94.6524 116.172,94.3016 117.288,93.9294 118.404,93.5576 119.52,93.1938 120.636,92.835 121.752,92.4813 122.868,92.1449 123.984,91.8365 125.1,91.5603 126.216,91.3057 127.332,91.0665 128.448,90.8494 129.564,90.6537 130.68,90.4839 131.796,90.3375 132.912,90.2026 134.028,90.0798 135.144,89.9692 136.26,89.8688 137.376,89.7877 138.492,89.7253 139.608,89.667 140.724,89.6171 141.84,89.5731 142.956,89.5345 144.072,89.5086 145.188,89.4944 146.304,89.4808 147.42,89.4756 148.536,89.4859 149.652,89.5098 150.768,89.5438 151.884,89.5833 153,89.6287 154.116,89.6929 155.232,89.7797 156.348,89.8831 157.464,89.9896 158.58,90.0909 159.696,90.1951 160.812,90.3097 161.928,90.4324 163.044,90.5523 164.16,90.6663 165.276,90.775 166.392,90.8778 167.508,90.9775 168.624,91.0737 169.74,91.1549 170.856,91.2185 171.972,91.2659 173.088,91.2991 174.204,91.3234 175.32,91.3394 176.436,91.3574 177.552,91.3777 178.668,91.4049 179.784,91.4332 180.9,91.4637 182.016,91.4999 183.132,91.5487 184.248,91.6124 185.364,91.6839 186.48,91.7543 187.596,91.8202 188.712,91.8874 189.828,91.9667 190.944,92.0658 192.06,92.1815 193.176,92.3101 194.292,92.4382 195.408,92.561 196.524,92.6726 197.64,92.7769 198.756,92.8759 199.872,92.9688 200.988,93.0545 202.104,93.1252 203.22,93.1849 204.336,93.2307 205.452,93.256 206.568,93.2581 207.684,93.2309 208.8,93.1697 209.916,93.0757 211.032,92.9511 212.148,92.8014 213.264,92.6281 214.38,92.4347 215.496,92.2242 216.612,92.0067 217.728,91.7912 218.844,91.5963 219.96,91.4222 221.076,91.2702 222.192,91.1302 223.308,90.9919 224.424,90.8586 225.54,90.707 226.656,90.4963 227.772,90.1556 228.888,89.6031 230.004,88.7369 231.12,87.4663 232.236,85.7199 233.352,83.4851 234.468,80.8404 235.584,78.0071 236.7,75.4318 237.816,73.8907 238.932,74.5547 240.048,78.9335 241.164,88.6535 242.28,105.031 243.396,128.525 244.512,158.101 245.628,190.856 246.744,222.245 247.86,247.371 248.976,262.9 250.092,268.43 251.208,266.148 252.324,259.302 253.44,250.83 254.556,242.74 255.672,236.124 256.788,231.366 257.904,228.423 259.02,227.008 260.136,226.674 261.252,226.917 262.368,227.306 263.484,227.593 264.6,227.735 265.716,227.803 266.832,227.884 267.948,228.034 269.064,228.292 270.18,228.649 271.296,229.064 272.412,229.479 273.528,229.841 274.644,230.142 275.76,230.39 276.876,230.608 277.992,230.816 279.108,231.034 280.224,231.292 281.34,231.601 282.456,231.902 283.572,232.071 284.688,231.927 285.804,231.218 286.92,229.625 288.036,227.121 289.152,224.85 290.268,225.857 291.384,234.468 292.5,253.859 293.616,283.059 294.732,315.488 295.848,340.719 296.964,349.217 298.08,337.306 299.196,309.473 300.312,276.175 301.428,248.085 302.544,231.009 303.66,224.778 304.776,225.491 305.892,228.762 307.008,231.812 308.124,233.761 309.24,234.739 310.356,235.099 311.472,235.105 312.588,234.942 313.704,234.742 314.82,234.565 315.936,234.408 317.052,234.249 318.168,234.089 319.284,233.939 320.4,233.822 321.516,233.739 322.632,233.665 323.748,233.577 324.864,233.479 325.98,233.418 327.096,233.466 328.212,233.665 329.328,234.044 330.444,234.639 331.56,235.497 332.676,236.671 333.792,238.172 334.908,239.932 336.024,241.753 337.14,243.246 338.256,243.796 339.372,242.545 340.488,238.474 341.604,230.635 342.72,218.517 343.836,202.398 344.952,183.421 346.068,163.304 347.184,143.827 348.3,126.429 349.416,112.014 350.532,100.924 351.648,93.0822 352.764,88.1123 353.88,85.4835 354.996,84.6059 356.112,84.9104 357.228,85.9113 358.344,87.2453 359.46,88.6496 360.576,89.9719 361.692,91.124 362.808,92.0643 363.924,92.7861 365.04,93.3083 366.156,93.6616 367.272,93.8845 368.388,94.0139 369.504,94.0839 370.62,94.108 371.736,94.0956 372.852,94.0569 373.968,93.9984 375.084,93.9226 376.2,93.8357 377.316,93.738 378.432,93.6354 379.548,93.5345 380.664,93.4395 381.78,93.3522 382.896,93.2682 384.012,93.186 385.128,93.1069 386.244,93.0329 387.36,92.9625 388.476,92.8885 389.592,92.8092 390.708,92.7223 391.824,92.6395 392.94,92.5715 394.056,92.5216 395.172,92.4774 396.288,92.4242 397.404,92.3587 398.52,92.2866 399.636,92.2149 400.752,92.1443 401.868,92.0746 402.984,92.0001 404.1,91.9205 405.216,91.8466 406.332,91.7879 407.448,91.7411 408.564,91.7059 409.68,91.6719 410.796,91.6241 411.912,91.5592 413.028,91.4838 414.144,91.4144 415.26,91.3668 416.376,91.3413 417.492,91.3192 418.608,91.2828 419.724,91.2397 420.84,91.2047 421.956,91.1705 423.072,91.1246 424.188,91.0525 425.304,90.9713 426.42,90.904 427.536,90.8527 428.652,90.7942 429.768,90.6986 430.884,90.5686 432,90.439 433.116,90.3401 434.232,90.2705 435.348,90.1912 436.464,90.0839 437.58,89.9585 438.696,89.854 439.812,89.7896 440.928,89.7386 442.044,89.6694 443.16,89.5899 444.276,89.5382 445.392,89.5385 446.508,89.5646 447.624,89.5803 448.74,89.5827 449.856,89.6153 450.972,89.6938 452.088,89.7932 453.204,89.8699 454.32,89.9183 455.436,89.9632 456.552,90.0402 457.668,90.1492 458.784,90.274 459.9,90.3894 461.016,90.4862 462.132,90.5807 463.248,90.7079 464.364,90.886 465.48,91.0931 466.596,91.2935 467.712,91.4818 468.828,91.6954 469.944,91.9607 471.06,92.2555 472.176,92.5352 473.292,92.7906 474.408,93.0747 475.524,93.4175 476.64,93.7842 477.756,94.1072 478.872,94.3686 479.988,94.632 481.104,94.947 482.22,95.2696 483.336,95.4939 484.452,95.5792 485.568,95.5977 486.684,95.649 487.8,95.7164 488.916,95.6937 490.032,95.505 491.148,95.2065 492.264,94.9142 493.38,94.657 494.496,94.3676 495.612,93.9574 496.728,93.4365 497.844,92.9013 498.96,92.411 500.076,91.9333 501.192,91.3996 502.308,90.8004 503.424,90.209 504.54,89.6781 505.656,89.1983 506.772,88.7188 507.888,88.2224 509.004,87.7521 510.12,87.3446 511.236,86.9963 512.352,86.6679 513.468,86.3534 514.584,86.0961 515.7,85.914 516.816,85.785 517.932,85.6779 519.048,85.606 520.164,85.6048"/>
<polyline fill="none" stroke="#ff0000" stroke-width="0.5" points="74.88,91.0799 75.996,91.0799 77.112,91.0799 78.228,91.0799 79.344,91.0799 80.46,91.0799 81.576,91.0799 82.692,91.0799 83.808,91.0799 84.924,91.0799 86.04,91.0799 87.156,91.0799 88.272,91.0799 89.388,91.0799 90.504,91.0799 91.62,91.0799 92.736,91.0799 93.852,91.0799 94.968,91.0799 96.084,91.0799 97.2,91.0799 98.316,91.0799 99.432,91.0799 100.548,91.0799 101.664,91.0799 102.78,91.0799 103.896,91.0799 105.012,91.0799 106.128,91.0799 107.244,91.0799 108.36,91.0799 109.476,91.0799 110.592,91.0799 111.708,91.0799 112.824,91.0799 113.94,91.0799 115.056,91.0799 116.172,91.0799 117.288,91.0799 118.404,91.0799 119.52,91.0799 120.636,91.0799 121.752,91.0799 122.868,91.0799 123.984,91.0799 125.1,91.0799 126.216,91.0799 127.332,91.0799 128.448,91.0799 129.564,91.0799 130.68,91.0799 131.796,91.0799 132.912,91.0799 134.028,91.0799 135.144,91.0799 136.26,91.0799 137.376,91.0799 138.492,91.0799 139.608,91.0799 140.724,91.0799 141.84,91.0799 142.956,91.0799 144.072,91.0799 145.188,91.0799 146.304,91.0799 147.42,91.0799 148.536,91.0799 149.652,91.0799 150.768,91.0799 151.884,91.0799 153,91.0799 154.116,91.0799 155.232,91.0799 156.348,91.0799 157.464,91.0799 158.58,91.0799 159.696,91.0799 160.812,91.0799 161.928,91.0799 163.044,91.0799 164.16,91.0799 165.276,91.0799 166.392,91.0799 167.508,91.0799 168.624,91.0799 169.74,91.0799 170.856,91.0799 171.972,91.0799 173.088,91.0799 174.204,91.0799 175.32,91.0799 176.436,91.0799 177.552,91.0799 178.668,91.0799 179.784,91.0799 180.9,91.0799 182.016,91.0799 183.132,91.0799 184.248,91.0799 185.364,91.0799 186.48,91.0799 187.596,91.0799 188.712,91.0799 189.828,91.0799 190.944,91.0799 192.06,91.0799 193.176,91.0799 194.292,91.0799 195.408,91.0799 196.524,91.0799 197.64,91.0799 198.756,91.0799 199.872,91.0799 200.988,91.0799 202.104,91.0799 203.22,91.0799 204.336,91.0799 205.452,91.0799 206.568,91.0799 207.684,91.0799 208.8,91.0799 209.916,91.0799 211.032,91.0799 212.148,91.0799 213.264,91.0799 214.38,91.0799 215.496,91.0799 216.612,91.0799 217.728,91.0799 218.844,91.0799 219.96,91.0799 221.076,91.0799 222.192,91.0799 223.308,91.0799 224.424,91.0799 225.54,91.0799 226.656,91.0799 227.772,91.0799 228.888,91.0799 230.004,91.0799 231.12,91.0799 232.236,91.0799 233.352,91.0799 234.468,91.0799 235.584,91.0799 236.7,91.0799 237.816,91.0799 238.932,91.0799 240.048,91.0799 241.164,91.0799 242.28,91.0799 243.396,91.0799 244.512,91.0799 245.628,91.0799 246.744,91.0799 247.86,384.48 248.976,91.0799 250.092,237.78 251.208,237.78 252.324,237.78 253.44,237.78 254.556,237.78 255.672,237.78 256.788,237.78 257.904,237.78 259.02,237.78 260.136,237.78 261.252,237.78 262.368,237.78 263.484,237.78 264.6,237.78 265.716,237.78 266.832,237.78 267.948,237.78 269.064,237.78 270.18,237.78 271.296,237.78 272.412,237.78 273.528,237.78 274.644,237.78 275.76,237.78 276.876,237.78 277.992,237.78 279.108,237.78 280.224,237.78 281.34,237.78 282.456,237.78 283.572,237.78 284.688,237.78 285.804,237.78 286.92,237.78 288.036,237.78 289.152,237.78 290.268,237.78 291.384,237.78 292.5,237.78 293.616,384.48 294.732,384.48 295.848,384.48 296.964,384.48 298.08,384.48 299.196,384.48 300.312,384.48 301.428,237.78 302.544,237.78 303.66,237.78 304.776,237.78 305.892,237.78 307.008,237.78 308.124,237.78 309.24,237.78 310.356,237.78 311.472,237.78 312.588,237.78 313.704,237.78 314.82,237.78 315.936,237.78 317.052,237.78 318.168,237.78 319.284,237.78 320.4,237.78 321.516,237.78 322.632,237.78 323.748,237.78 324.864,237.78 325.98,237.78 327.096,237.78 328.212,237.78 329.328,237.78 330.444,237.78 331.56,237.78 332.676,237.78 333.792,237.78 334.908,237.78 336.024,237.78 337.14,237.78 338.256,237.78 339.372,237.78 340.488,237.78 341.604,237.78 342.72,237.78 343.836,237.78 344.952,237.78 346.068,91.0799 347.184,91.0799 348.3,91.0799 349.416,91.0799 350.532,91.0799 351.648,91.0799 352.764,91.0799 353.88,91.0799 354.996,91.0799 356.112,91.0799 357.228,91.0799 358.344,91.0799 359.46,91.0799 360.576,91.0799 361.692,91.0799 362.808,91.0799 363.924,91.0799 365.04,91.0799 366.156,91.0799 367.272,91.0799 368.388,91.0799 369.504,91.0799 370.62,91.0799 371.736,91.0799 372.852,91.0799 373.968,91.0799 375.084,91.0799 376.2,91.0799 377.316,91.0799 378.432,91.0799 379.548,91.0799 380.664,91.0799 381.78,91.0799 382.896,91.0799 384.012,91.0799 385.128,91.0799 386.244,91.0799 387.36,91.0799 388.476,91.0799 389.592,91.0799 390.708,91.0799 391.824,91.0799 392.94,91.0799 394.056,91.0799 395.172,91.0799 396.288,91.0799 397.404,91.0799 398.52,91.0799 399.636,91.0799 400.752,91.0799 401.868,91.0799 402.984,91.0799 404.1,91.0799 405.216,91.0799 406.332,91.0799 407.448,91.0799 408.564,91.0799 409.68,91.0799 410.796,91.0799 411.912,91.0799 413.028,91.0799 414.144,91.0799 415.26,91.0799 416.376,91.0799 417.492,91.0799 418.608,91.0799 419.724,91.0799 420.84,91.0799 421.956,91.0799 423.072,91.0799 424.188,91.0799 425.304,91.0799 426.42,91.0799 427.536,91.0799 428.652,91.0799 429.768,91.0799 430.884,91.0799 432,91.0799 433.116,91.0799 434.232,91.0799 435.348,91.0799 436.464,91.0799 437.58,91.0799 438.696,91.0799 439.812,91.0799 440.928,91.0799 442.044,91.0799 443.16,91.0799 444.276,91.0799 445.392,91.0799 446.508,91.0799 447.624,91.0799 448.74,91.0799 449.856,91.0799 450.972,91.0799 452.088,91.0799 453.204,91.0799 454.32,91.0799 455.436,91.0799 456.552,91.0799 457.668,91.0799 458.784,91.0799 459.9,91.0799 461.016,91.0799 462.132,91.0799 463.248,91.0799 464.364,91.0799 465.48,91.0799 466.596,91.0799 467.712,91.0799 468.828,91.0799 469.944,91.0799 471.06,91.0799 472.176,91.0799 473.292,91.0799 474.408,91.0799 475.524,91.0799 476.64,91.0799 477.756,91.0799 478.872,91.0799 479.988,91.0799 481.104,91.0799 482.22,91.0799 483.336,91.0799 484.452,91.0799 485.568,91.0799 486.684,91.0799 487.8,91.0799 488.916,91.0799 490.032,91.0799 491.148,91.0799 492.264,91.0799 493.38,91.0799 494.496,91.0799 495.612,91.0799 496.728,91.0799 497.844,91.0799 498.96,91.0799 500.076,91.0799 501.192,91.0799 502.308,91.0799 503.424,91.0799 504.54,91.0799 505.656,91.0799 506.772,91.0799 507.888,91.0799 509.004,91.0799 510.12,91.0799 511.236,91.0799 512.352,91.0799 513.468,91.0799 514.584,91.0799 515.7,91.0799 516.816,91.0799 517.932,91.0799 519.048,91.0799 520.164,91.0799"/>
<polygon fill="#ffffff" points="518.535,67.3768 518.535,35.1447 518.535,67.3768"/>
<polygon fill="#ffffff" points="518.535,35.1447 518.535,35.1447 518.535,67.3768"/>
<polygon fill="#ffffff" points="426.974,35.1447 518.535,35.1447 426.974,35.1447"/>
<polygon fill="#ffffff" points="518.535,35.1447 518.535,35.1447 426.974,35.1447"/>
<polygon fill="#ffffff" points="426.974,67.3768 518.535,67.3768 426.974,35.1447"/>
<polygon fill="#ffffff" points="518.535,67.3768 518.535,35.1447 426.974,35.1447"/>
<polyline fill="none" stroke="#000000" stroke-width="0.5" stroke-dasharray="16,0" points="426.974,67.3768 518.535,67.3768"/>
<polyline fill="none" stroke="#000000" stroke-width="0.5" stroke-dasharray="16,0" points="426.974,35.1447 518.535,35.1447"/>
<polyline fill="none" stroke="#000000" stroke-width="0.5" stroke-dasharray="16,0" points="426.974,35.1447 518.535,35.1447"/>
<polyline fill="none" stroke="#000000" stroke-width="0.5" stroke-dasharray="16,0" points="426.974,67.3768 518.535,67.3768"/>
<polyline fill="none" stroke="#000000" stroke-width="0.5" stroke-dasharray="16,0" points="426.974,67.3768 426.974,35.1447"/>
<polyline fill="none" stroke="#000000" stroke-width="0.5" stroke-dasharray="16,0" points="518.535,67.3768 518.535,35.1447"/>
<polyline fill="none" stroke="#000000" stroke-width="0.5" stroke-dasharray="16,0" points="518.535,67.3768 518.535,35.1447"/>
<polyline fill="none" stroke="#000000" stroke-width="0.5" stroke-dasharray="16,0" points="426.974,67.3768 426.974,35.1447 426.974,35.1447"/>
<polyline fill="none" stroke="#000000" stroke-width="0.5" stroke-dasharray="16,0" points="518.535,35.1447 518.535,35.1447"/>
<polyline fill="none" stroke="#000000" stroke-width="0.5" stroke-dasharray="16,0" points="518.535,67.3768 518.535,67.3768"/>
<polyline fill="none" stroke="#000000" stroke-width="0.5" stroke-dasharray="16,0" points="426.974,67.3768 426.974,67.3768"/>
<text fill="#000000" x="453.048" y="43.2027" font-size="10" text-anchor="start" baseline-shift="-5" font-family="Helvetica">Reconstruite</text>
<text fill="#000000" x="453.048" y="59.3188" font-size="10" text-anchor="start" baseline-shift="-5" font-family="Helvetica">Vraie</text>
<polyline fill="none" stroke="#0000ff" stroke-width="0.5" points="429.718,43.2027 450.303,43.2027"/>
<polyline fill="none" stroke="#ff0000" stroke-width="0.5" points="429.718,59.3188 450.303,59.3188"/>
</g>
</svg>
