<?xml version="1.0" encoding="UTF-8" standalone="no"?>
<svg
   xmlns:dc="http://purl.org/dc/elements/1.1/"
   xmlns:cc="http://creativecommons.org/ns#"
   xmlns:rdf="http://www.w3.org/1999/02/22-rdf-syntax-ns#"
   xmlns:svg="http://www.w3.org/2000/svg"
   xmlns="http://www.w3.org/2000/svg"
   xmlns:sodipodi="http://sodipodi.sourceforge.net/DTD/sodipodi-0.dtd"
   xmlns:inkscape="http://www.inkscape.org/namespaces/inkscape"
   width="576px"
   height="432px"
   viewBox="0 0 576 432"
   id="svg3331"
   version="1.1"
   inkscape:version="0.48.4 r9939"
   sodipodi:docname="coupe_vp_mono_uni_hor.svg"
   inkscape:export-filename="/home/dinsenma/Desktop/Stage_M2/redaction/img/mono_param/coupe_vp_mono_uni_hor.png"
   inkscape:export-xdpi="200"
   inkscape:export-ydpi="200">
  <metadata
     id="metadata3509">
    <rdf:RDF>
      <cc:Work
         rdf:about="">
        <dc:format>image/svg+xml</dc:format>
        <dc:type
           rdf:resource="http://purl.org/dc/dcmitype/StillImage" />
        <dc:title>glps_renderer figure</dc:title>
      </cc:Work>
    </rdf:RDF>
  </metadata>
  <sodipodi:namedview
     pagecolor="#ffffff"
     bordercolor="#666666"
     borderopacity="1"
     objecttolerance="10"
     gridtolerance="10"
     guidetolerance="10"
     inkscape:pageopacity="0"
     inkscape:pageshadow="2"
     inkscape:window-width="1600"
     inkscape:window-height="847"
     id="namedview3507"
     showgrid="false"
     inkscape:zoom="1.0925926"
     inkscape:cx="190.74923"
     inkscape:cy="187.82256"
     inkscape:window-x="0"
     inkscape:window-y="31"
     inkscape:window-maximized="1"
     inkscape:current-layer="svg3331" />
  <title
     id="title3333">glps_renderer figure</title>
  <desc
     id="desc3335">
Creator: GL2PS 1.3.8, (C) 1999-2012 C. Geuzaine
For: Octave
CreationDate: Tue Jun 28 13:56:47 2016
</desc>
  <defs
     id="defs3337" />
  <polygon
     style="fill:#ffffff;stroke-width:2.50000000000000000;stroke-miterlimit:4;stroke-dasharray:none"
     id="polygon3341"
     points="521.28,384.48 521.28,384.48 521.28,32.4001 " />
  <polygon
     style="fill:#ffffff;stroke-width:2.50000000000000000;stroke-miterlimit:4;stroke-dasharray:none"
     id="polygon3343"
     points="521.28,384.48 521.28,32.4001 521.28,32.4001 " />
  <polygon
     style="fill:#ffffff;stroke-width:2.50000000000000000;stroke-miterlimit:4;stroke-dasharray:none"
     id="polygon3345"
     points="74.88,32.4001 74.88,32.4001 521.28,32.4001 " />
  <polygon
     style="fill:#ffffff;stroke-width:2.50000000000000000;stroke-miterlimit:4;stroke-dasharray:none"
     id="polygon3347"
     points="74.88,32.4001 521.28,32.4001 521.28,32.4001 " />
  <polygon
     style="fill:#ffffff;stroke-width:2.50000000000000000;stroke-miterlimit:4;stroke-dasharray:none"
     id="polygon3349"
     points="74.88,32.4001 74.88,384.48 521.28,384.48 " />
  <polygon
     style="fill:#ffffff;stroke-width:2.50000000000000000;stroke-miterlimit:4;stroke-dasharray:none"
     id="polygon3351"
     points="74.88,32.4001 521.28,384.48 521.28,32.4001 " />
  <polyline
     style="fill:none;stroke:#000000;stroke-width:2.50000000000000000;stroke-miterlimit:4;stroke-dasharray:none"
     id="polyline3353"
     points="74.88,384.48 521.28,384.48" />
  <polyline
     style="fill:none;stroke:#000000;stroke-width:2.50000000000000000;stroke-miterlimit:4;stroke-dasharray:none"
     id="polyline3355"
     points="74.88,32.4001 521.28,32.4001" />
  <polyline
     style="fill:none;stroke:#000000;stroke-width:2.50000000000000000;stroke-miterlimit:4;stroke-dasharray:none"
     id="polyline3357"
     points="74.88,32.4001 521.28,32.4001" />
  <polyline
     style="fill:none;stroke:#000000;stroke-width:2.50000000000000000;stroke-miterlimit:4;stroke-dasharray:none"
     id="polyline3359"
     points="74.88,384.48 521.28,384.48" />
  <polyline
     style="fill:none;stroke:#000000;stroke-width:2.50000000000000000;stroke-miterlimit:4;stroke-dasharray:none"
     id="polyline3361"
     points="74.88,384.48 74.88,32.4001" />
  <polyline
     style="fill:none;stroke:#000000;stroke-width:2.50000000000000000;stroke-miterlimit:4;stroke-dasharray:none"
     id="polyline3363"
     points="521.28,384.48 521.28,32.4001" />
  <polyline
     style="fill:none;stroke:#000000;stroke-width:2.50000000000000000;stroke-miterlimit:4;stroke-dasharray:none"
     id="polyline3365"
     points="521.28,384.48 521.28,32.4001" />
  <polyline
     style="fill:none;stroke:#000000;stroke-width:2.50000000000000000;stroke-miterlimit:4;stroke-dasharray:none"
     id="polyline3367"
     points="74.88,384.48 74.88,32.4001 74.88,32.4001" />
  <polyline
     style="fill:none;stroke:#000000;stroke-width:2.50000000000000000;stroke-miterlimit:4;stroke-dasharray:none"
     id="polyline3369"
     points="521.28,32.4001 521.28,32.4001" />
  <polyline
     style="fill:none;stroke:#000000;stroke-width:2.50000000000000000;stroke-miterlimit:4;stroke-dasharray:none"
     id="polyline3371"
     points="521.28,384.48 521.28,384.48" />
  <polyline
     style="fill:none;stroke:#000000;stroke-width:2.50000000000000000;stroke-miterlimit:4;stroke-dasharray:none"
     id="polyline3373"
     points="74.88,384.48 74.88,384.48 74.88,380.015" />
  <polyline
     style="fill:none;stroke:#000000;stroke-width:2.50000000000000000;stroke-miterlimit:4;stroke-dasharray:none"
     id="polyline3375"
     points="74.88,32.4001 74.88,36.8651" />
  <polyline
     style="fill:none;stroke:#000000;stroke-width:2.50000000000000000;stroke-miterlimit:4;stroke-dasharray:none"
     id="polyline3377"
     points="164.16,384.48 164.16,380.015" />
  <polyline
     style="fill:none;stroke:#000000;stroke-width:2.50000000000000000;stroke-miterlimit:4;stroke-dasharray:none"
     id="polyline3379"
     points="164.16,32.4001 164.16,36.8651" />
  <polyline
     style="fill:none;stroke:#000000;stroke-width:2.50000000000000000;stroke-miterlimit:4;stroke-dasharray:none"
     id="polyline3381"
     points="253.44,384.48 253.44,380.015" />
  <polyline
     style="fill:none;stroke:#000000;stroke-width:2.50000000000000000;stroke-miterlimit:4;stroke-dasharray:none"
     id="polyline3383"
     points="253.44,32.4001 253.44,36.8651" />
  <polyline
     style="fill:none;stroke:#000000;stroke-width:2.50000000000000000;stroke-miterlimit:4;stroke-dasharray:none"
     id="polyline3385"
     points="342.72,384.48 342.72,380.015" />
  <polyline
     style="fill:none;stroke:#000000;stroke-width:2.50000000000000000;stroke-miterlimit:4;stroke-dasharray:none"
     id="polyline3387"
     points="342.72,32.4001 342.72,36.8651" />
  <polyline
     style="fill:none;stroke:#000000;stroke-width:2.50000000000000000;stroke-miterlimit:4;stroke-dasharray:none"
     id="polyline3389"
     points="432,384.48 432,380.015" />
  <polyline
     style="fill:none;stroke:#000000;stroke-width:2.50000000000000000;stroke-miterlimit:4;stroke-dasharray:none"
     id="polyline3391"
     points="432,32.4001 432,36.8651" />
  <polyline
     style="fill:none;stroke:#000000;stroke-width:2.50000000000000000;stroke-miterlimit:4;stroke-dasharray:none"
     id="polyline3393"
     points="521.28,384.48 521.28,380.015" />
  <polyline
     style="fill:none;stroke:#000000;stroke-width:2.50000000000000000;stroke-miterlimit:4;stroke-dasharray:none"
     id="polyline3395"
     points="521.28,32.4001 521.28,36.8651" />
  <text
     style="font-size:20px;text-anchor:middle;baseline-shift:-10px;fill:#000000;stroke-width:2.5;stroke-miterlimit:4;stroke-dasharray:none;font-family:Helvetica"
     id="text3407"
     baseline-shift="-10"
     font-size="10"
     y="396.80301"
     x="518.30548">100</text>
  <polyline
     style="fill:none;stroke:#000000;stroke-width:2.50000000000000000;stroke-miterlimit:4;stroke-dasharray:none"
     id="polyline3409"
     points="74.88,384.48 79.348,384.48" />
  <text
     style="font-size:20px;text-anchor:middle;baseline-shift:-10px;fill:#000000;stroke-width:2.5;stroke-miterlimit:4;stroke-dasharray:none;font-family:Helvetica"
     id="text3397"
     baseline-shift="-10"
     font-size="10"
     y="397.24719"
     x="74.879997">0</text>
  <text
     style="font-size:20px;text-anchor:middle;baseline-shift:-10px;fill:#000000;stroke-width:2.5;stroke-miterlimit:4;stroke-dasharray:none;font-family:Helvetica"
     id="text3399"
     baseline-shift="-10"
     font-size="10"
     y="397.24719"
     x="164.16">20</text>
  <text
     style="font-size:20px;text-anchor:middle;baseline-shift:-10px;fill:#000000;stroke-width:2.5;stroke-miterlimit:4;stroke-dasharray:none;font-family:Helvetica"
     id="text3401"
     baseline-shift="-10"
     font-size="10"
     y="397.24719"
     x="253.44">40</text>
  <text
     style="font-size:20px;text-anchor:middle;baseline-shift:-10px;fill:#000000;stroke-width:2.5;stroke-miterlimit:4;stroke-dasharray:none;font-family:Helvetica"
     id="text3403"
     baseline-shift="-10"
     font-size="10"
     y="397.24719"
     x="342.72">60</text>
  <text
     style="font-size:20px;text-anchor:middle;baseline-shift:-10px;fill:#000000;stroke-width:2.5;stroke-miterlimit:4;stroke-dasharray:none;font-family:Helvetica"
     id="text3405"
     baseline-shift="-10"
     font-size="10"
     y="397.24719"
     x="432">80</text>
  <polyline
     style="fill:none;stroke:#000000;stroke-width:2.50000000000000000;stroke-miterlimit:4;stroke-dasharray:none"
     id="polyline3413"
     points="74.88,334.183 79.348,334.183" />
  <polyline
     style="fill:none;stroke:#000000;stroke-width:2.50000000000000000;stroke-miterlimit:4;stroke-dasharray:none"
     id="polyline3415"
     points="521.28,334.183 516.812,334.183" />
  <polyline
     style="fill:none;stroke:#000000;stroke-width:2.50000000000000000;stroke-miterlimit:4;stroke-dasharray:none"
     id="polyline3417"
     points="74.88,283.886 79.348,283.886" />
  <polyline
     style="fill:none;stroke:#000000;stroke-width:2.50000000000000000;stroke-miterlimit:4;stroke-dasharray:none"
     id="polyline3419"
     points="521.28,283.886 516.812,283.886" />
  <polyline
     style="fill:none;stroke:#000000;stroke-width:2.50000000000000000;stroke-miterlimit:4;stroke-dasharray:none"
     id="polyline3421"
     points="74.88,233.589 79.348,233.589" />
  <polyline
     style="fill:none;stroke:#000000;stroke-width:2.50000000000000000;stroke-miterlimit:4;stroke-dasharray:none"
     id="polyline3423"
     points="521.28,233.589 516.812,233.589" />
  <polyline
     style="fill:none;stroke:#000000;stroke-width:2.50000000000000000;stroke-miterlimit:4;stroke-dasharray:none"
     id="polyline3425"
     points="74.88,183.292 79.348,183.292" />
  <polyline
     style="fill:none;stroke:#000000;stroke-width:2.50000000000000000;stroke-miterlimit:4;stroke-dasharray:none"
     id="polyline3427"
     points="521.28,183.292 516.812,183.292" />
  <polyline
     style="fill:none;stroke:#000000;stroke-width:2.50000000000000000;stroke-miterlimit:4;stroke-dasharray:none"
     id="polyline3429"
     points="74.88,132.994 79.348,132.994" />
  <polyline
     style="fill:none;stroke:#000000;stroke-width:2.50000000000000000;stroke-miterlimit:4;stroke-dasharray:none"
     id="polyline3431"
     points="521.28,132.994 516.812,132.994" />
  <polyline
     style="fill:none;stroke:#000000;stroke-width:2.50000000000000000;stroke-miterlimit:4;stroke-dasharray:none"
     id="polyline3433"
     points="74.88,82.6973 79.348,82.6973" />
  <polyline
     style="fill:none;stroke:#000000;stroke-width:2.50000000000000000;stroke-miterlimit:4;stroke-dasharray:none"
     id="polyline3435"
     points="521.28,82.6973 516.812,82.6973" />
  <polyline
     style="fill:none;stroke:#000000;stroke-width:2.50000000000000000;stroke-miterlimit:4;stroke-dasharray:none"
     id="polyline3437"
     points="74.88,32.4001 79.348,32.4001" />
  <polyline
     style="fill:none;stroke:#000000;stroke-width:2.50000000000000000;stroke-miterlimit:4;stroke-dasharray:none"
     id="polyline3439"
     points="521.28,32.4001 516.812,32.4001" />
  <text
     style="font-size:20px;text-anchor:end;baseline-shift:-5px;fill:#000000;stroke-width:2.50000000000000000;stroke-miterlimit:4;stroke-dasharray:none;font-family:Helvetica"
     id="text3441"
     baseline-shift="-5"
     font-size="10"
     y="384.48001"
     x="69.875504">4800</text>
  <text
     style="font-size:20px;text-anchor:end;baseline-shift:-5px;fill:#000000;stroke-width:2.50000000000000000;stroke-miterlimit:4;stroke-dasharray:none;font-family:Helvetica"
     id="text3443"
     baseline-shift="-5"
     font-size="10"
     y="334.18301"
     x="69.875504">5000</text>
  <text
     style="font-size:20px;text-anchor:end;baseline-shift:-5px;fill:#000000;stroke-width:2.50000000000000000;stroke-miterlimit:4;stroke-dasharray:none;font-family:Helvetica"
     id="text3445"
     baseline-shift="-5"
     font-size="10"
     y="283.88599"
     x="69.875504">5200</text>
  <text
     style="font-size:20px;text-anchor:end;baseline-shift:-5px;fill:#000000;stroke-width:2.50000000000000000;stroke-miterlimit:4;stroke-dasharray:none;font-family:Helvetica"
     id="text3447"
     baseline-shift="-5"
     font-size="10"
     y="233.589"
     x="69.875504">5400</text>
  <text
     style="font-size:20px;text-anchor:end;baseline-shift:-5px;fill:#000000;stroke-width:2.50000000000000000;stroke-miterlimit:4;stroke-dasharray:none;font-family:Helvetica"
     id="text3449"
     baseline-shift="-5"
     font-size="10"
     y="183.291"
     x="69.875504">5600</text>
  <text
     style="font-size:20px;text-anchor:end;baseline-shift:-5px;fill:#000000;stroke-width:2.50000000000000000;stroke-miterlimit:4;stroke-dasharray:none;font-family:Helvetica"
     id="text3451"
     baseline-shift="-5"
     font-size="10"
     y="132.994"
     x="69.875504">5800</text>
  <text
     style="font-size:20px;text-anchor:end;baseline-shift:-5px;fill:#000000;stroke-width:2.50000000000000000;stroke-miterlimit:4;stroke-dasharray:none;font-family:Helvetica"
     id="text3453"
     baseline-shift="-5"
     font-size="10"
     y="82.697197"
     x="69.875504">6000</text>
  <text
     style="font-size:20px;text-anchor:end;baseline-shift:-5px;fill:#000000;stroke-width:2.50000000000000000;stroke-miterlimit:4;stroke-dasharray:none;font-family:Helvetica"
     id="text3455"
     baseline-shift="-5"
     font-size="10"
     y="32.400101"
     x="69.875504">6200</text>
  <text
     style="font-size:20px;text-anchor:middle;baseline-shift:-10px;fill:#000000;stroke-width:2.5;stroke-miterlimit:4;stroke-dasharray:none;font-family:Helvetica"
     id="text3457"
     baseline-shift="-10"
     font-size="10"
     y="410.24719"
     x="298.07999">mm</text>
  <text
     style="font-size:20px;text-anchor:middle;baseline-shift:0px;fill:#000000;stroke-width:2.5;stroke-miterlimit:4;stroke-dasharray:none;font-family:Helvetica"
     id="text3459"
     baseline-shift="0"
     transform="matrix(0,-1,1,0,0,0)"
     font-size="10"
     y="18.576935"
     x="-208.44">Vitesse en m/s</text>
  <polyline
     style="fill:none;stroke:#0000ff;stroke-width:2.50000000000000000;stroke-miterlimit:4;stroke-dasharray:none"
     id="polyline3461"
     points="74.88,88.2697 75.996,88.217 77.112,88.1594 78.228,88.1025 79.344,88.0037 80.46,87.8769 81.576,87.704 82.692,87.5701 83.808,87.519 84.924,87.5062 86.04,87.4649 87.156,87.3627 88.272,87.2872 89.388,87.2634 90.504,87.3142 91.62,87.3729 92.736,87.3718 93.852,87.3993 94.968,87.4569 96.084,87.6464 97.2,87.9001 98.316,88.136 99.432,88.3147 100.548,88.4932 101.664,88.6907 102.78,88.8794 103.896,89.0799 105.012,89.2016 106.128,89.359 107.244,89.5382 108.36,89.7814 109.476,90.0084 110.592,90.2233 111.708,90.4489 112.824,90.7464 113.94,91.0538 115.056,91.3437 116.172,91.5918 117.288,91.7955 118.404,91.985 119.52,92.1518 120.636,92.309 121.752,92.4425 122.868,92.5516 123.984,92.6915 125.1,92.7789 126.216,92.8757 127.332,92.9371 128.448,92.992 129.564,93.0632 130.68,93.1421 131.796,93.2414 132.912,93.3255 134.028,93.3701 135.144,93.3936 136.26,93.4186 137.376,93.4641 138.492,93.539 139.608,93.5714 140.724,93.5742 141.84,93.5234 142.956,93.4411 144.072,93.3592 145.188,93.2537 146.304,93.1144 147.42,92.9729 148.536,92.7913 149.652,92.5839 150.768,92.3439 151.884,92.0362 153,91.7119 154.116,91.4255 155.232,91.1954 156.348,91.0191 157.464,90.8245 158.58,90.6123 159.696,90.4169 160.812,90.2654 161.928,90.1995 163.044,90.1695 164.16,90.1662 165.276,90.1842 166.392,90.2151 167.508,90.3124 168.624,90.4284 169.74,90.5502 170.856,90.6887 171.972,90.789 173.088,90.8588 174.204,90.8926 175.32,90.9146 176.436,90.8914 177.552,90.8216 178.668,90.6928 179.784,90.487 180.9,90.2195 182.016,89.9433 183.132,89.6598 184.248,89.4075 185.364,89.1714 186.48,88.9324 187.596,88.6768 188.712,88.431 189.828,88.257 190.944,88.1976 192.06,88.254 193.176,88.4423 194.292,88.6833 195.408,89.0272 196.524,89.4498 197.64,89.9011 198.756,90.39 199.872,90.8243 200.988,91.1583 202.104,91.2791 203.22,91.089 204.336,90.5026 205.452,89.5205 206.568,88.119 207.684,86.411 208.8,84.5236 209.916,82.5983 211.032,80.9166 212.148,79.7937 213.264,79.5106 214.38,80.279 215.496,82.0356 216.612,84.4486 217.728,86.9272 218.844,88.6467 219.96,88.818 221.076,86.8901 222.192,82.7468 223.308,76.8947 224.424,70.4116 225.54,64.8481 226.656,61.6916 227.772,62.1331 228.888,66.71 230.004,75.1641 231.12,86.2704 232.236,97.8816 233.352,106.768 234.468,109.368 235.584,102.915 236.7,86.6349 237.816,62.6359 238.932,44.7137 240.048,32.4001 241.164,32.4001 242.28,34.5609 243.396,32.4001 244.512,65.0928 245.628,123.893 246.744,186.3 247.86,235.645 248.976,258.841 250.092,254.043 251.208,229.976 252.324,199.376 253.44,174.092 254.556,162.243 255.672,166.283 256.788,182.501 257.904,202.879 259.02,218.987 260.136,225.472 261.252,222.288 262.368,213.65 263.484,205.332 264.6,201.38 265.716,202.6 266.832,206.984 267.948,211.683 269.064,214.691 270.18,215.374 271.296,214.054 272.412,211.508 273.528,208.292 274.644,204.936 275.76,201.947 276.876,199.822 277.992,198.559 279.108,197.653 280.224,196.405 281.34,194.984 282.456,195.221 283.572,200.46 284.688,213.75 285.804,234.435 286.92,256.017 288.036,269.733 289.152,274.986 290.268,265.73 291.384,273.317 292.5,316.804 293.616,384.48 294.732,384.48 295.848,384.48 296.964,384.48 298.08,384.48 299.196,384.48 300.312,384.48 301.428,343.613 302.544,307.112 303.66,297.196 304.776,297.246 305.892,289.528 307.008,274.105 308.124,252.443 309.24,233.465 310.356,222.848 311.472,220.048 312.588,221.166 313.704,222.476 314.82,222.154 315.936,220.288 317.052,217.767 318.168,215.367 319.284,213.407 320.4,211.766 321.516,210.323 322.632,208.932 323.748,207.616 324.864,206.389 325.98,205.469 327.096,204.993 328.212,205 329.328,205.237 330.444,205.344 331.56,204.888 332.676,203.659 333.792,201.661 334.908,199.284 336.024,197.322 337.14,196.966 338.256,199.158 339.372,203.711 340.488,208.434 341.604,209.338 342.72,202.346 343.836,185.741 344.952,161.351 346.068,133.581 347.184,107.298 348.3,86.1229 349.416,71.8224 350.532,64.433 351.648,62.9086 352.764,65.6288 353.88,70.7551 354.996,76.5523 356.112,81.5636 357.228,84.8244 358.344,85.8597 359.46,84.8337 360.576,82.4119 361.692,79.4688 362.808,76.7914 363.924,75.0768 365.04,74.5939 366.156,75.3576 367.272,77.1464 368.388,79.5877 369.504,82.2049 370.62,84.6832 371.736,86.667 372.852,87.9996 373.968,88.6016 375.084,88.559 376.2,88.001 377.316,87.1317 378.432,86.1113 379.548,85.188 380.664,84.4498 381.78,84.0939 382.896,84.0844 384.012,84.4178 385.128,85.0277 386.244,85.8078 387.36,86.6748 388.476,87.5772 389.592,88.4075 390.708,89.0904 391.824,89.5786 392.94,89.8904 394.056,89.9816 395.172,89.907 396.288,89.685 397.404,89.3483 398.52,88.9812 399.636,88.5702 400.752,88.1957 401.868,87.882 402.984,87.6027 404.1,87.4027 405.216,87.2808 406.332,87.2484 407.448,87.3198 408.564,87.5146 409.68,87.8029 410.796,88.0696 411.912,88.2333 413.028,88.3301 414.144,88.4095 415.26,88.5654 416.376,88.7163 417.492,88.8663 418.608,88.9164 419.724,88.872 420.84,88.7744 421.956,88.61 423.072,88.3974 424.188,88.1351 425.304,87.8959 426.42,87.7628 427.536,87.6964 428.652,87.6205 429.768,87.4256 430.884,87.1938 432,87.0624 433.116,87.1143 434.232,87.2688 435.348,87.3901 436.464,87.3713 437.58,87.3917 438.696,87.4811 439.812,87.6976 440.928,87.8571 442.044,87.8899 443.16,87.8461 444.276,87.8497 445.392,88.0066 446.508,88.1178 447.624,88.1042 448.74,87.9732 449.856,87.899 450.972,87.9567 452.088,88.0065 453.204,87.8755 454.32,87.5721 455.436,87.2166 456.552,87.0428 457.668,86.9891 458.784,86.9659 459.9,86.8201 461.016,86.5495 462.132,86.2953 463.248,86.2181 464.364,86.2857 465.48,86.3469 466.596,86.3144 467.712,86.252 468.828,86.2751 469.944,86.3988 471.06,86.4583 472.176,86.3999 473.292,86.2309 474.408,86.2095 475.524,86.3858 476.64,86.5493 477.756,86.4682 478.872,86.1913 479.988,86.0191 481.104,86.2077 482.22,86.4914 483.336,86.4377 484.452,85.9962 485.568,85.4968 486.684,85.3995 487.8,85.6859 488.916,85.8339 490.032,85.5198 491.148,84.931 492.264,84.6199 493.38,84.7786 494.496,85.0295 495.612,84.9415 496.728,84.5081 497.844,84.1292 498.96,84.1053 500.076,84.235 501.192,84.1356 502.308,83.7664 503.424,83.414 504.54,83.2929 505.656,83.3553 506.772,83.3408 507.888,83.125 509.004,82.8835 510.12,82.8196 511.236,82.8348 512.352,82.7655 513.468,82.5694 514.584,82.43 515.7,82.4478 516.816,82.5051 517.932,82.4455 519.048,82.313 520.164,82.2578" />
  <polyline
     style="fill:none;stroke:#ff0000;stroke-width:2.50000000000000000;stroke-miterlimit:4;stroke-dasharray:none"
     id="polyline3463"
     points="74.88,82.6973 75.996,82.6973 77.112,82.6973 78.228,82.6973 79.344,82.6973 80.46,82.6973 81.576,82.6973 82.692,82.6973 83.808,82.6973 84.924,82.6973 86.04,82.6973 87.156,82.6973 88.272,82.6973 89.388,82.6973 90.504,82.6973 91.62,82.6973 92.736,82.6973 93.852,82.6973 94.968,82.6973 96.084,82.6973 97.2,82.6973 98.316,82.6973 99.432,82.6973 100.548,82.6973 101.664,82.6973 102.78,82.6973 103.896,82.6973 105.012,82.6973 106.128,82.6973 107.244,82.6973 108.36,82.6973 109.476,82.6973 110.592,82.6973 111.708,82.6973 112.824,82.6973 113.94,82.6973 115.056,82.6973 116.172,82.6973 117.288,82.6973 118.404,82.6973 119.52,82.6973 120.636,82.6973 121.752,82.6973 122.868,82.6973 123.984,82.6973 125.1,82.6973 126.216,82.6973 127.332,82.6973 128.448,82.6973 129.564,82.6973 130.68,82.6973 131.796,82.6973 132.912,82.6973 134.028,82.6973 135.144,82.6973 136.26,82.6973 137.376,82.6973 138.492,82.6973 139.608,82.6973 140.724,82.6973 141.84,82.6973 142.956,82.6973 144.072,82.6973 145.188,82.6973 146.304,82.6973 147.42,82.6973 148.536,82.6973 149.652,82.6973 150.768,82.6973 151.884,82.6973 153,82.6973 154.116,82.6973 155.232,82.6973 156.348,82.6973 157.464,82.6973 158.58,82.6973 159.696,82.6973 160.812,82.6973 161.928,82.6973 163.044,82.6973 164.16,82.6973 165.276,82.6973 166.392,82.6973 167.508,82.6973 168.624,82.6973 169.74,82.6973 170.856,82.6973 171.972,82.6973 173.088,82.6973 174.204,82.6973 175.32,82.6973 176.436,82.6973 177.552,82.6973 178.668,82.6973 179.784,82.6973 180.9,82.6973 182.016,82.6973 183.132,82.6973 184.248,82.6973 185.364,82.6973 186.48,82.6973 187.596,82.6973 188.712,82.6973 189.828,82.6973 190.944,82.6973 192.06,82.6973 193.176,82.6973 194.292,82.6973 195.408,82.6973 196.524,82.6973 197.64,82.6973 198.756,82.6973 199.872,82.6973 200.988,82.6973 202.104,82.6973 203.22,82.6973 204.336,82.6973 205.452,82.6973 206.568,82.6973 207.684,82.6973 208.8,82.6973 209.916,82.6973 211.032,82.6973 212.148,82.6973 213.264,82.6973 214.38,82.6973 215.496,82.6973 216.612,82.6973 217.728,82.6973 218.844,82.6973 219.96,82.6973 221.076,82.6973 222.192,82.6973 223.308,82.6973 224.424,82.6973 225.54,82.6973 226.656,82.6973 227.772,82.6973 228.888,82.6973 230.004,82.6973 231.12,82.6973 232.236,82.6973 233.352,82.6973 234.468,82.6973 235.584,82.6973 236.7,82.6973 237.816,82.6973 238.932,82.6973 240.048,82.6973 241.164,82.6973 242.28,82.6973 243.396,82.6973 244.512,82.6973 245.628,82.6973 246.744,82.6973 247.86,334.183 248.976,82.6973 250.092,208.44 251.208,208.44 252.324,208.44 253.44,208.44 254.556,208.44 255.672,208.44 256.788,208.44 257.904,208.44 259.02,208.44 260.136,208.44 261.252,208.44 262.368,208.44 263.484,208.44 264.6,208.44 265.716,208.44 266.832,208.44 267.948,208.44 269.064,208.44 270.18,208.44 271.296,208.44 272.412,208.44 273.528,208.44 274.644,208.44 275.76,208.44 276.876,208.44 277.992,208.44 279.108,208.44 280.224,208.44 281.34,208.44 282.456,208.44 283.572,208.44 284.688,208.44 285.804,208.44 286.92,208.44 288.036,208.44 289.152,208.44 290.268,208.44 291.384,208.44 292.5,208.44 293.616,334.183 294.732,334.183 295.848,334.183 296.964,334.183 298.08,334.183 299.196,334.183 300.312,334.183 301.428,208.44 302.544,208.44 303.66,208.44 304.776,208.44 305.892,208.44 307.008,208.44 308.124,208.44 309.24,208.44 310.356,208.44 311.472,208.44 312.588,208.44 313.704,208.44 314.82,208.44 315.936,208.44 317.052,208.44 318.168,208.44 319.284,208.44 320.4,208.44 321.516,208.44 322.632,208.44 323.748,208.44 324.864,208.44 325.98,208.44 327.096,208.44 328.212,208.44 329.328,208.44 330.444,208.44 331.56,208.44 332.676,208.44 333.792,208.44 334.908,208.44 336.024,208.44 337.14,208.44 338.256,208.44 339.372,208.44 340.488,208.44 341.604,208.44 342.72,208.44 343.836,208.44 344.952,208.44 346.068,82.6973 347.184,82.6973 348.3,82.6973 349.416,82.6973 350.532,82.6973 351.648,82.6973 352.764,82.6973 353.88,82.6973 354.996,82.6973 356.112,82.6973 357.228,82.6973 358.344,82.6973 359.46,82.6973 360.576,82.6973 361.692,82.6973 362.808,82.6973 363.924,82.6973 365.04,82.6973 366.156,82.6973 367.272,82.6973 368.388,82.6973 369.504,82.6973 370.62,82.6973 371.736,82.6973 372.852,82.6973 373.968,82.6973 375.084,82.6973 376.2,82.6973 377.316,82.6973 378.432,82.6973 379.548,82.6973 380.664,82.6973 381.78,82.6973 382.896,82.6973 384.012,82.6973 385.128,82.6973 386.244,82.6973 387.36,82.6973 388.476,82.6973 389.592,82.6973 390.708,82.6973 391.824,82.6973 392.94,82.6973 394.056,82.6973 395.172,82.6973 396.288,82.6973 397.404,82.6973 398.52,82.6973 399.636,82.6973 400.752,82.6973 401.868,82.6973 402.984,82.6973 404.1,82.6973 405.216,82.6973 406.332,82.6973 407.448,82.6973 408.564,82.6973 409.68,82.6973 410.796,82.6973 411.912,82.6973 413.028,82.6973 414.144,82.6973 415.26,82.6973 416.376,82.6973 417.492,82.6973 418.608,82.6973 419.724,82.6973 420.84,82.6973 421.956,82.6973 423.072,82.6973 424.188,82.6973 425.304,82.6973 426.42,82.6973 427.536,82.6973 428.652,82.6973 429.768,82.6973 430.884,82.6973 432,82.6973 433.116,82.6973 434.232,82.6973 435.348,82.6973 436.464,82.6973 437.58,82.6973 438.696,82.6973 439.812,82.6973 440.928,82.6973 442.044,82.6973 443.16,82.6973 444.276,82.6973 445.392,82.6973 446.508,82.6973 447.624,82.6973 448.74,82.6973 449.856,82.6973 450.972,82.6973 452.088,82.6973 453.204,82.6973 454.32,82.6973 455.436,82.6973 456.552,82.6973 457.668,82.6973 458.784,82.6973 459.9,82.6973 461.016,82.6973 462.132,82.6973 463.248,82.6973 464.364,82.6973 465.48,82.6973 466.596,82.6973 467.712,82.6973 468.828,82.6973 469.944,82.6973 471.06,82.6973 472.176,82.6973 473.292,82.6973 474.408,82.6973 475.524,82.6973 476.64,82.6973 477.756,82.6973 478.872,82.6973 479.988,82.6973 481.104,82.6973 482.22,82.6973 483.336,82.6973 484.452,82.6973 485.568,82.6973 486.684,82.6973 487.8,82.6973 488.916,82.6973 490.032,82.6973 491.148,82.6973 492.264,82.6973 493.38,82.6973 494.496,82.6973 495.612,82.6973 496.728,82.6973 497.844,82.6973 498.96,82.6973 500.076,82.6973 501.192,82.6973 502.308,82.6973 503.424,82.6973 504.54,82.6973 505.656,82.6973 506.772,82.6973 507.888,82.6973 509.004,82.6973 510.12,82.6973 511.236,82.6973 512.352,82.6973 513.468,82.6973 514.584,82.6973 515.7,82.6973 516.816,82.6973 517.932,82.6973 519.048,82.6973 520.164,82.6973" />
  <polygon
     style="fill:#ffffff;stroke-width:2.50000000000000000;stroke-miterlimit:4;stroke-dasharray:none"
     id="polygon3465"
     points="518.535,67.3768 518.535,67.3768 518.535,35.1447 " />
  <polygon
     style="fill:#ffffff;stroke-width:2.50000000000000000;stroke-miterlimit:4;stroke-dasharray:none"
     id="polygon3467"
     points="518.535,67.3768 518.535,35.1447 518.535,35.1447 " />
  <polygon
     style="fill:#ffffff;stroke-width:2.50000000000000000;stroke-miterlimit:4;stroke-dasharray:none"
     id="polygon3469"
     points="426.974,35.1447 426.974,35.1447 518.535,35.1447 " />
  <polygon
     style="fill:#ffffff;stroke-width:2.50000000000000000;stroke-miterlimit:4;stroke-dasharray:none"
     id="polygon3471"
     points="426.974,35.1447 518.535,35.1447 518.535,35.1447 " />
  <polygon
     style="fill:#ffffff;stroke-width:2.50000000000000000;stroke-miterlimit:4;stroke-dasharray:none"
     id="polygon3473"
     points="426.974,35.1447 426.974,67.3768 518.535,67.3768 " />
  <polygon
     style="fill:#ffffff;stroke-width:2.50000000000000000;stroke-miterlimit:4;stroke-dasharray:none"
     id="polygon3475"
     points="426.974,35.1447 518.535,67.3768 518.535,35.1447 " />
  <polyline
     style="fill:none;stroke:#000000;stroke-width:2.50000000000000000;stroke-miterlimit:4;stroke-dasharray:none"
     id="polyline3493"
     points="518.535,35.1447 518.535,35.1447" />
  <polyline
     style="fill:none;stroke:#000000;stroke-width:2.50000000000000000;stroke-miterlimit:4;stroke-dasharray:none"
     id="polyline3495"
     points="518.535,67.3768 518.535,67.3768" />
  <polyline
     style="fill:none;stroke:#000000;stroke-width:2.50000000000000000;stroke-miterlimit:4;stroke-dasharray:none"
     id="polyline3497"
     points="426.974,67.3768 426.974,67.3768" />
  <text
     style="font-size:20px;text-anchor:start;baseline-shift:-5px;fill:#000000;stroke-width:2.5;stroke-miterlimit:4;stroke-dasharray:none;font-family:Helvetica"
     id="text3499"
     baseline-shift="-5"
     font-size="10"
     y="347.06714"
     x="396.30225">Reconstruite</text>
  <text
     style="font-size:20px;text-anchor:start;baseline-shift:-5px;fill:#000000;stroke-width:2.5;stroke-miterlimit:4;stroke-dasharray:none;font-family:Helvetica"
     id="text3501"
     baseline-shift="-5"
     font-size="10"
     y="363.18323"
     x="396.30225">Vraie</text>
  <polyline
     style="fill:none;stroke:#0000ff;stroke-width:2.5;stroke-miterlimit:4;stroke-dasharray:none"
     id="polyline3503"
     points="429.718,43.2027 450.303,43.2027"
     transform="translate(-56.745763,303.86441)" />
  <polyline
     style="fill:none;stroke:#ff0000;stroke-width:2.5;stroke-miterlimit:4;stroke-dasharray:none"
     id="polyline3505"
     points="429.718,59.3188 450.303,59.3188"
     transform="translate(-56.745763,303.86441)" />
</svg>
