<?xml version="1.0" encoding="UTF-8" standalone="no"?>
<svg
   xmlns:dc="http://purl.org/dc/elements/1.1/"
   xmlns:cc="http://creativecommons.org/ns#"
   xmlns:rdf="http://www.w3.org/1999/02/22-rdf-syntax-ns#"
   xmlns:svg="http://www.w3.org/2000/svg"
   xmlns="http://www.w3.org/2000/svg"
   xmlns:sodipodi="http://sodipodi.sourceforge.net/DTD/sodipodi-0.dtd"
   xmlns:inkscape="http://www.inkscape.org/namespaces/inkscape"
   width="576px"
   height="432px"
   viewBox="0 0 576 432"
   id="svg2"
   version="1.1"
   inkscape:version="0.48.4 r9939"
   sodipodi:docname="coupe_vp_mono_smooth_hor.svg"
   inkscape:export-filename="/home/dinsenma/Desktop/Stage_M2/redaction/img/mono_param/coupe_vp_mono_smooth_hor.png"
   inkscape:export-xdpi="200"
   inkscape:export-ydpi="200">
  <metadata
     id="metadata180">
    <rdf:RDF>
      <cc:Work
         rdf:about="">
        <dc:format>image/svg+xml</dc:format>
        <dc:type
           rdf:resource="http://purl.org/dc/dcmitype/StillImage" />
        <dc:title>glps_renderer figure</dc:title>
      </cc:Work>
    </rdf:RDF>
  </metadata>
  <sodipodi:namedview
     pagecolor="#ffffff"
     bordercolor="#666666"
     borderopacity="1"
     objecttolerance="10"
     gridtolerance="10"
     guidetolerance="10"
     inkscape:pageopacity="0"
     inkscape:pageshadow="2"
     inkscape:window-width="1600"
     inkscape:window-height="847"
     id="namedview178"
     showgrid="false"
     inkscape:zoom="1.0925926"
     inkscape:cx="446.55843"
     inkscape:cy="179.3565"
     inkscape:window-x="0"
     inkscape:window-y="31"
     inkscape:window-maximized="1"
     inkscape:current-layer="svg2" />
  <title
     id="title4">glps_renderer figure</title>
  <desc
     id="desc6">
Creator: GL2PS 1.3.8, (C) 1999-2012 C. Geuzaine
For: Octave
CreationDate: Tue Jun 28 13:57:18 2016
</desc>
  <defs
     id="defs8" />
  <polygon
     style="fill:#ffffff;stroke-width:2.50000000000000000;stroke-miterlimit:4;stroke-dasharray:none"
     id="polygon12"
     points="521.28,384.48 521.28,384.48 521.28,32.4001 " />
  <polygon
     style="fill:#ffffff;stroke-width:2.50000000000000000;stroke-miterlimit:4;stroke-dasharray:none"
     id="polygon14"
     points="521.28,384.48 521.28,32.4001 521.28,32.4001 " />
  <polygon
     style="fill:#ffffff;stroke-width:2.50000000000000000;stroke-miterlimit:4;stroke-dasharray:none"
     id="polygon16"
     points="74.88,32.4001 74.88,32.4001 521.28,32.4001 " />
  <polygon
     style="fill:#ffffff;stroke-width:2.50000000000000000;stroke-miterlimit:4;stroke-dasharray:none"
     id="polygon18"
     points="74.88,32.4001 521.28,32.4001 521.28,32.4001 " />
  <polygon
     style="fill:#ffffff;stroke-width:2.50000000000000000;stroke-miterlimit:4;stroke-dasharray:none"
     id="polygon20"
     points="74.88,32.4001 74.88,384.48 521.28,384.48 " />
  <polygon
     style="fill:#ffffff;stroke-width:2.50000000000000000;stroke-miterlimit:4;stroke-dasharray:none"
     id="polygon22"
     points="74.88,32.4001 521.28,384.48 521.28,32.4001 " />
  <polyline
     style="fill:none;stroke:#000000;stroke-width:2.50000000000000000;stroke-miterlimit:4;stroke-dasharray:none"
     id="polyline24"
     points="74.88,384.48 521.28,384.48" />
  <polyline
     style="fill:none;stroke:#000000;stroke-width:2.50000000000000000;stroke-miterlimit:4;stroke-dasharray:none"
     id="polyline26"
     points="74.88,32.4001 521.28,32.4001" />
  <polyline
     style="fill:none;stroke:#000000;stroke-width:2.50000000000000000;stroke-miterlimit:4;stroke-dasharray:none"
     id="polyline28"
     points="74.88,32.4001 521.28,32.4001" />
  <polyline
     style="fill:none;stroke:#000000;stroke-width:2.50000000000000000;stroke-miterlimit:4;stroke-dasharray:none"
     id="polyline30"
     points="74.88,384.48 521.28,384.48" />
  <polyline
     style="fill:none;stroke:#000000;stroke-width:2.50000000000000000;stroke-miterlimit:4;stroke-dasharray:none"
     id="polyline32"
     points="74.88,384.48 74.88,32.4001" />
  <polyline
     style="fill:none;stroke:#000000;stroke-width:2.50000000000000000;stroke-miterlimit:4;stroke-dasharray:none"
     id="polyline34"
     points="521.28,384.48 521.28,32.4001" />
  <polyline
     style="fill:none;stroke:#000000;stroke-width:2.50000000000000000;stroke-miterlimit:4;stroke-dasharray:none"
     id="polyline36"
     points="521.28,384.48 521.28,32.4001" />
  <polyline
     style="fill:none;stroke:#000000;stroke-width:2.50000000000000000;stroke-miterlimit:4;stroke-dasharray:none"
     id="polyline38"
     points="74.88,384.48 74.88,32.4001 74.88,32.4001" />
  <polyline
     style="fill:none;stroke:#000000;stroke-width:2.50000000000000000;stroke-miterlimit:4;stroke-dasharray:none"
     id="polyline40"
     points="521.28,32.4001 521.28,32.4001" />
  <polyline
     style="fill:none;stroke:#000000;stroke-width:2.50000000000000000;stroke-miterlimit:4;stroke-dasharray:none"
     id="polyline42"
     points="521.28,384.48 521.28,384.48" />
  <polyline
     style="fill:none;stroke:#000000;stroke-width:2.50000000000000000;stroke-miterlimit:4;stroke-dasharray:none"
     id="polyline44"
     points="74.88,384.48 74.88,384.48 74.88,380.015" />
  <polyline
     style="fill:none;stroke:#000000;stroke-width:2.50000000000000000;stroke-miterlimit:4;stroke-dasharray:none"
     id="polyline46"
     points="74.88,32.4001 74.88,36.8651" />
  <polyline
     style="fill:none;stroke:#000000;stroke-width:2.50000000000000000;stroke-miterlimit:4;stroke-dasharray:none"
     id="polyline48"
     points="164.16,384.48 164.16,380.015" />
  <polyline
     style="fill:none;stroke:#000000;stroke-width:2.50000000000000000;stroke-miterlimit:4;stroke-dasharray:none"
     id="polyline50"
     points="164.16,32.4001 164.16,36.8651" />
  <polyline
     style="fill:none;stroke:#000000;stroke-width:2.50000000000000000;stroke-miterlimit:4;stroke-dasharray:none"
     id="polyline52"
     points="253.44,384.48 253.44,380.015" />
  <polyline
     style="fill:none;stroke:#000000;stroke-width:2.50000000000000000;stroke-miterlimit:4;stroke-dasharray:none"
     id="polyline54"
     points="253.44,32.4001 253.44,36.8651" />
  <polyline
     style="fill:none;stroke:#000000;stroke-width:2.50000000000000000;stroke-miterlimit:4;stroke-dasharray:none"
     id="polyline56"
     points="342.72,384.48 342.72,380.015" />
  <polyline
     style="fill:none;stroke:#000000;stroke-width:2.50000000000000000;stroke-miterlimit:4;stroke-dasharray:none"
     id="polyline58"
     points="342.72,32.4001 342.72,36.8651" />
  <polyline
     style="fill:none;stroke:#000000;stroke-width:2.50000000000000000;stroke-miterlimit:4;stroke-dasharray:none"
     id="polyline60"
     points="432,384.48 432,380.015" />
  <polyline
     style="fill:none;stroke:#000000;stroke-width:2.50000000000000000;stroke-miterlimit:4;stroke-dasharray:none"
     id="polyline62"
     points="432,32.4001 432,36.8651" />
  <polyline
     style="fill:none;stroke:#000000;stroke-width:2.50000000000000000;stroke-miterlimit:4;stroke-dasharray:none"
     id="polyline64"
     points="521.28,384.48 521.28,380.015" />
  <polyline
     style="fill:none;stroke:#000000;stroke-width:2.50000000000000000;stroke-miterlimit:4;stroke-dasharray:none"
     id="polyline66"
     points="521.28,32.4001 521.28,36.8651" />
  <g
     id="g4566"
     transform="translate(0,4.5762712)">
    <text
       x="74.879997"
       y="389.48099"
       font-size="10"
       baseline-shift="-10"
       id="text68"
       style="font-size:20px;text-anchor:middle;baseline-shift:-10px;fill:#000000;stroke-width:2.5;stroke-miterlimit:4;stroke-dasharray:none;font-family:Helvetica">0</text>
    <text
       x="164.16"
       y="389.48099"
       font-size="10"
       baseline-shift="-10"
       id="text70"
       style="font-size:20px;text-anchor:middle;baseline-shift:-10px;fill:#000000;stroke-width:2.5;stroke-miterlimit:4;stroke-dasharray:none;font-family:Helvetica">20</text>
    <text
       x="253.44"
       y="389.48099"
       font-size="10"
       baseline-shift="-10"
       id="text72"
       style="font-size:20px;text-anchor:middle;baseline-shift:-10px;fill:#000000;stroke-width:2.5;stroke-miterlimit:4;stroke-dasharray:none;font-family:Helvetica">40</text>
    <text
       x="342.72"
       y="389.48099"
       font-size="10"
       baseline-shift="-10"
       id="text74"
       style="font-size:20px;text-anchor:middle;baseline-shift:-10px;fill:#000000;stroke-width:2.5;stroke-miterlimit:4;stroke-dasharray:none;font-family:Helvetica">60</text>
    <text
       x="432"
       y="389.48099"
       font-size="10"
       baseline-shift="-10"
       id="text76"
       style="font-size:20px;text-anchor:middle;baseline-shift:-10px;fill:#000000;stroke-width:2.5;stroke-miterlimit:4;stroke-dasharray:none;font-family:Helvetica">80</text>
    <text
       x="521.28003"
       y="389.48099"
       font-size="10"
       baseline-shift="-10"
       id="text78"
       style="font-size:20px;text-anchor:middle;baseline-shift:-10px;fill:#000000;stroke-width:2.5;stroke-miterlimit:4;stroke-dasharray:none;font-family:Helvetica">100</text>
  </g>
  <polyline
     style="fill:none;stroke:#000000;stroke-width:2.50000000000000000;stroke-miterlimit:4;stroke-dasharray:none"
     id="polyline80"
     points="74.88,384.48 79.348,384.48" />
  <polyline
     style="fill:none;stroke:#000000;stroke-width:2.50000000000000000;stroke-miterlimit:4;stroke-dasharray:none"
     id="polyline82"
     points="521.28,384.48 516.812,384.48" />
  <polyline
     style="fill:none;stroke:#000000;stroke-width:2.50000000000000000;stroke-miterlimit:4;stroke-dasharray:none"
     id="polyline84"
     points="74.88,334.183 79.348,334.183" />
  <polyline
     style="fill:none;stroke:#000000;stroke-width:2.50000000000000000;stroke-miterlimit:4;stroke-dasharray:none"
     id="polyline86"
     points="521.28,334.183 516.812,334.183" />
  <polyline
     style="fill:none;stroke:#000000;stroke-width:2.50000000000000000;stroke-miterlimit:4;stroke-dasharray:none"
     id="polyline88"
     points="74.88,283.886 79.348,283.886" />
  <polyline
     style="fill:none;stroke:#000000;stroke-width:2.50000000000000000;stroke-miterlimit:4;stroke-dasharray:none"
     id="polyline90"
     points="521.28,283.886 516.812,283.886" />
  <polyline
     style="fill:none;stroke:#000000;stroke-width:2.50000000000000000;stroke-miterlimit:4;stroke-dasharray:none"
     id="polyline92"
     points="74.88,233.589 79.348,233.589" />
  <polyline
     style="fill:none;stroke:#000000;stroke-width:2.50000000000000000;stroke-miterlimit:4;stroke-dasharray:none"
     id="polyline94"
     points="521.28,233.589 516.812,233.589" />
  <polyline
     style="fill:none;stroke:#000000;stroke-width:2.50000000000000000;stroke-miterlimit:4;stroke-dasharray:none"
     id="polyline96"
     points="74.88,183.292 79.348,183.292" />
  <polyline
     style="fill:none;stroke:#000000;stroke-width:2.50000000000000000;stroke-miterlimit:4;stroke-dasharray:none"
     id="polyline98"
     points="521.28,183.292 516.812,183.292" />
  <polyline
     style="fill:none;stroke:#000000;stroke-width:2.50000000000000000;stroke-miterlimit:4;stroke-dasharray:none"
     id="polyline100"
     points="74.88,132.994 79.348,132.994" />
  <polyline
     style="fill:none;stroke:#000000;stroke-width:2.50000000000000000;stroke-miterlimit:4;stroke-dasharray:none"
     id="polyline102"
     points="521.28,132.994 516.812,132.994" />
  <polyline
     style="fill:none;stroke:#000000;stroke-width:2.50000000000000000;stroke-miterlimit:4;stroke-dasharray:none"
     id="polyline104"
     points="74.88,82.6973 79.348,82.6973" />
  <polyline
     style="fill:none;stroke:#000000;stroke-width:2.50000000000000000;stroke-miterlimit:4;stroke-dasharray:none"
     id="polyline106"
     points="521.28,82.6973 516.812,82.6973" />
  <polyline
     style="fill:none;stroke:#000000;stroke-width:2.50000000000000000;stroke-miterlimit:4;stroke-dasharray:none"
     id="polyline108"
     points="74.88,32.4001 79.348,32.4001" />
  <polyline
     style="fill:none;stroke:#000000;stroke-width:2.50000000000000000;stroke-miterlimit:4;stroke-dasharray:none"
     id="polyline110"
     points="521.28,32.4001 516.812,32.4001" />
  <text
     style="font-size:20px;text-anchor:end;baseline-shift:-5px;fill:#000000;stroke-width:2.50000000000000000;stroke-miterlimit:4;stroke-dasharray:none;font-family:Helvetica"
     id="text112"
     baseline-shift="-5"
     font-size="10"
     y="384.48001"
     x="69.875504">4800</text>
  <text
     style="font-size:20px;text-anchor:end;baseline-shift:-5px;fill:#000000;stroke-width:2.50000000000000000;stroke-miterlimit:4;stroke-dasharray:none;font-family:Helvetica"
     id="text114"
     baseline-shift="-5"
     font-size="10"
     y="334.18301"
     x="69.875504">5000</text>
  <text
     style="font-size:20px;text-anchor:end;baseline-shift:-5px;fill:#000000;stroke-width:2.50000000000000000;stroke-miterlimit:4;stroke-dasharray:none;font-family:Helvetica"
     id="text116"
     baseline-shift="-5"
     font-size="10"
     y="283.88599"
     x="69.875504">5200</text>
  <text
     style="font-size:20px;text-anchor:end;baseline-shift:-5px;fill:#000000;stroke-width:2.50000000000000000;stroke-miterlimit:4;stroke-dasharray:none;font-family:Helvetica"
     id="text118"
     baseline-shift="-5"
     font-size="10"
     y="233.589"
     x="69.875504">5400</text>
  <text
     style="font-size:20px;text-anchor:end;baseline-shift:-5px;fill:#000000;stroke-width:2.50000000000000000;stroke-miterlimit:4;stroke-dasharray:none;font-family:Helvetica"
     id="text120"
     baseline-shift="-5"
     font-size="10"
     y="183.291"
     x="69.875504">5600</text>
  <text
     style="font-size:20px;text-anchor:end;baseline-shift:-5px;fill:#000000;stroke-width:2.50000000000000000;stroke-miterlimit:4;stroke-dasharray:none;font-family:Helvetica"
     id="text122"
     baseline-shift="-5"
     font-size="10"
     y="132.994"
     x="69.875504">5800</text>
  <text
     style="font-size:20px;text-anchor:end;baseline-shift:-5px;fill:#000000;stroke-width:2.50000000000000000;stroke-miterlimit:4;stroke-dasharray:none;font-family:Helvetica"
     id="text124"
     baseline-shift="-5"
     font-size="10"
     y="82.697197"
     x="69.875504">6000</text>
  <text
     style="font-size:20px;text-anchor:end;baseline-shift:-5px;fill:#000000;stroke-width:2.50000000000000000;stroke-miterlimit:4;stroke-dasharray:none;font-family:Helvetica"
     id="text126"
     baseline-shift="-5"
     font-size="10"
     y="32.400101"
     x="69.875504">6200</text>
  <text
     style="font-size:20px;text-anchor:middle;baseline-shift:-10px;fill:#000000;stroke-width:2.5;stroke-miterlimit:4;stroke-dasharray:none;font-family:Helvetica"
     id="text128"
     baseline-shift="-10"
     font-size="10"
     y="409.80301"
     x="298.07999">mm</text>
  <text
     style="font-size:20px;text-anchor:middle;baseline-shift:0px;fill:#000000;stroke-width:2.5;stroke-miterlimit:4;stroke-dasharray:none;font-family:Helvetica"
     id="text130"
     baseline-shift="0"
     transform="matrix(0,-1,1,0,0,0)"
     font-size="10"
     y="18.994148"
     x="-208.44">Vitesse en m/s</text>
  <polyline
     style="fill:none;stroke:#0000ff;stroke-width:2.50000000000000000;stroke-miterlimit:4;stroke-dasharray:none"
     id="polyline132"
     points="74.88,91.7966 75.996,91.736 77.112,91.6572 78.228,91.5537 79.344,91.4408 80.46,91.3118 81.576,91.1682 82.692,91.0492 83.808,90.9623 84.924,90.9069 86.04,90.8237 87.156,90.73 88.272,90.6781 89.388,90.6359 90.504,90.6361 91.62,90.6282 92.736,90.6306 93.852,90.616 94.968,90.6568 96.084,90.7612 97.2,90.9523 98.316,91.127 99.432,91.2803 100.548,91.429 101.664,91.5565 102.78,91.6787 103.896,91.785 105.012,91.8769 106.128,91.9595 107.244,92.1021 108.36,92.2816 109.476,92.4793 110.592,92.6904 111.708,92.9288 112.824,93.2118 113.94,93.5306 115.056,93.8593 116.172,94.1525 117.288,94.4142 118.404,94.6774 119.52,94.9016 120.636,95.1234 121.752,95.332 122.868,95.4987 123.984,95.6779 125.1,95.7992 126.216,95.8857 127.332,95.959 128.448,95.9801 129.564,95.9896 130.68,95.9876 131.796,95.9349 132.912,95.8934 134.028,95.7994 135.144,95.695 136.26,95.6053 137.376,95.5357 138.492,95.4711 139.608,95.4089 140.724,95.3699 141.84,95.3132 142.956,95.2694 144.072,95.2387 145.188,95.2353 146.304,95.2582 147.42,95.2595 148.536,95.2883 149.652,95.3 150.768,95.2787 151.884,95.2097 153,95.1387 154.116,95.0739 155.232,95.0107 156.348,94.9279 157.464,94.7877 158.58,94.5818 159.696,94.3578 160.812,94.1051 161.928,93.8605 163.044,93.5831 164.16,93.3116 165.276,93.0283 166.392,92.7964 167.508,92.6136 168.624,92.5326 169.74,92.5301 170.856,92.6279 171.972,92.8041 173.088,93.0331 174.204,93.3289 175.32,93.6992 176.436,94.1066 177.552,94.5401 178.668,94.9397 179.784,95.2587 180.9,95.5151 182.016,95.6542 183.132,95.7153 184.248,95.6873 185.364,95.4952 186.48,95.178 187.596,94.6954 188.712,94.1109 189.828,93.4692 190.944,92.8354 192.06,92.2969 193.176,91.8699 194.292,91.6616 195.408,91.6656 196.524,91.9252 197.64,92.4309 198.756,93.1492 199.872,94.0358 200.988,94.9445 202.104,95.7454 203.22,96.2133 204.336,96.1918 205.452,95.5771 206.568,94.2869 207.684,92.3568 208.8,89.907 209.916,87.213 211.032,84.6318 212.148,82.6125 213.264,81.595 214.38,81.8762 215.496,83.457 216.612,85.9399 217.728,88.5192 218.844,90.1785 219.96,89.9344 221.076,87.2128 222.192,82.0724 223.308,75.2961 224.424,68.3023 225.54,62.775 226.656,60.2512 227.772,61.76 228.888,67.4632 230.004,76.6757 231.12,87.7918 232.236,98.2461 233.352,104.884 234.468,104.465 235.584,94.974 236.7,76.5074 237.816,51.8863 238.932,33.8279 240.048,32.4001 241.164,32.4001 242.28,40.0819 243.396,33.319 244.512,78.8346 245.628,134.928 246.744,190.063 247.86,232.114 248.976,253.521 250.092,254.095 251.208,238.635 252.324,214.034 253.44,188.491 254.556,170.663 255.672,166.92 256.788,177.936 257.904,198.167 259.02,218.967 260.136,232.735 261.252,236.44 262.368,232.37 263.484,225.828 264.6,221.691 265.716,221.982 266.832,225.706 267.948,230.317 269.064,233.54 270.18,234.321 271.296,232.823 272.412,229.812 273.528,226.12 274.644,222.415 275.76,219.282 276.876,217.07 277.992,215.737 279.108,214.886 280.224,214.25 281.34,214.281 282.456,216.663 283.572,223.955 284.688,238.56 285.804,259.92 286.92,283.242 288.036,293.757 289.152,282.231 290.268,275.985 291.384,301.238 292.5,331.419 293.616,384.48 294.732,384.48 295.848,384.48 296.964,384.48 298.08,384.48 299.196,384.48 300.312,384.48 301.428,362.185 302.544,331.146 303.66,317.463 304.776,317.79 305.892,322.601 307.008,312.109 308.124,286.278 309.24,264.69 310.356,251.041 311.472,244.607 312.588,242.436 313.704,241.569 314.82,240.311 315.936,238.237 317.052,235.693 318.168,233.244 319.284,231.211 320.4,229.595 321.516,228.267 322.632,226.969 323.748,225.604 324.864,224.179 325.98,222.826 327.096,221.6 328.212,220.548 329.328,219.523 330.444,218.217 331.56,216.452 332.676,214.17 333.792,211.515 334.908,209.025 336.024,207.568 337.14,208.106 338.256,210.934 339.372,215.101 340.488,218.059 341.604,216.267 342.72,206.831 343.836,189.033 344.952,164.947 346.068,138.34 347.184,113.294 348.3,92.8111 349.416,78.3752 350.532,70.1708 351.648,67.4396 352.764,68.8817 353.88,72.946 354.996,78.1495 356.112,83.0886 357.228,86.6269 358.344,88.1956 359.46,87.7001 360.576,85.538 361.692,82.492 362.808,79.3394 363.924,76.8478 365.04,75.4943 366.156,75.4419 367.272,76.5359 368.388,78.5377 369.504,80.9536 370.62,83.4336 371.736,85.5478 372.852,87.0456 373.968,87.8212 375.084,87.9126 376.2,87.4468 377.316,86.6225 378.432,85.7278 379.548,84.9491 380.664,84.4434 381.78,84.3554 382.896,84.6689 384.012,85.3544 385.128,86.3284 386.244,87.4087 387.36,88.5145 388.476,89.4886 389.592,90.2601 390.708,90.7562 391.824,90.9437 392.94,90.8418 394.056,90.5196 395.172,89.9983 396.288,89.3869 397.404,88.7731 398.52,88.2099 399.636,87.7783 400.752,87.5453 401.868,87.4663 402.984,87.5425 404.1,87.7775 405.216,88.1436 406.332,88.5875 407.448,89.0914 408.564,89.6099 409.68,90.071 410.796,90.4352 411.912,90.6174 413.028,90.6512 414.144,90.5512 415.26,90.3735 416.376,90.1256 417.492,89.8396 418.608,89.5212 419.724,89.1599 420.84,88.7523 421.956,88.3464 423.072,87.9825 424.188,87.7229 425.304,87.5645 426.42,87.5462 427.536,87.647 428.652,87.7631 429.768,87.8926 430.884,88.0589 432,88.283 433.116,88.5886 434.232,88.9272 435.348,89.2414 436.464,89.4967 437.58,89.7083 438.696,89.8585 439.812,89.9697 440.928,90.0298 442.044,90.0197 443.16,89.9376 444.276,89.837 445.392,89.7358 446.508,89.5934 447.624,89.3956 448.74,89.1782 449.856,88.9999 450.972,88.8421 452.088,88.6976 453.204,88.4907 454.32,88.2116 455.436,87.9384 456.552,87.7675 457.668,87.6519 458.784,87.6124 459.9,87.5466 461.016,87.4344 462.132,87.3069 463.248,87.27 464.364,87.2512 465.48,87.2612 466.596,87.2856 467.712,87.2947 468.828,87.3242 469.944,87.3211 471.06,87.264 472.176,87.143 473.292,87.0601 474.408,87.0343 475.524,87.1018 476.64,87.1412 477.756,87.0544 478.872,86.9077 479.988,86.858 481.104,86.9786 482.22,87.1494 483.336,87.1566 484.452,86.9252 485.568,86.6943 486.684,86.681 487.8,86.8265 488.916,86.9605 490.032,86.8468 491.148,86.5924 492.264,86.4734 493.38,86.5775 494.496,86.7359 495.612,86.7409 496.728,86.5514 497.844,86.388 498.96,86.3666 500.076,86.413 501.192,86.3346 502.308,86.1141 503.424,85.8787 504.54,85.7694 505.656,85.7501 506.772,85.6898 507.888,85.5525 509.004,85.4015 510.12,85.3209 511.236,85.2635 512.352,85.1776 513.468,85.0026 514.584,84.9321 515.7,84.9308 516.816,84.952 517.932,84.9013 519.048,84.824 520.164,84.8032" />
  <polyline
     style="fill:none;stroke:#ff0000;stroke-width:2.50000000000000000;stroke-miterlimit:4;stroke-dasharray:none"
     id="polyline134"
     points="74.88,82.6973 75.996,82.6973 77.112,82.6973 78.228,82.6973 79.344,82.6973 80.46,82.6973 81.576,82.6973 82.692,82.6973 83.808,82.6973 84.924,82.6973 86.04,82.6973 87.156,82.6973 88.272,82.6973 89.388,82.6973 90.504,82.6973 91.62,82.6973 92.736,82.6973 93.852,82.6973 94.968,82.6973 96.084,82.6973 97.2,82.6973 98.316,82.6973 99.432,82.6973 100.548,82.6973 101.664,82.6973 102.78,82.6973 103.896,82.6973 105.012,82.6973 106.128,82.6973 107.244,82.6973 108.36,82.6973 109.476,82.6973 110.592,82.6973 111.708,82.6973 112.824,82.6973 113.94,82.6973 115.056,82.6973 116.172,82.6973 117.288,82.6973 118.404,82.6973 119.52,82.6973 120.636,82.6973 121.752,82.6973 122.868,82.6973 123.984,82.6973 125.1,82.6973 126.216,82.6973 127.332,82.6973 128.448,82.6973 129.564,82.6973 130.68,82.6973 131.796,82.6973 132.912,82.6973 134.028,82.6973 135.144,82.6973 136.26,82.6973 137.376,82.6973 138.492,82.6973 139.608,82.6973 140.724,82.6973 141.84,82.6973 142.956,82.6973 144.072,82.6973 145.188,82.6973 146.304,82.6973 147.42,82.6973 148.536,82.6973 149.652,82.6973 150.768,82.6973 151.884,82.6973 153,82.6973 154.116,82.6973 155.232,82.6973 156.348,82.6973 157.464,82.6973 158.58,82.6973 159.696,82.6973 160.812,82.6973 161.928,82.6973 163.044,82.6973 164.16,82.6973 165.276,82.6973 166.392,82.6973 167.508,82.6973 168.624,82.6973 169.74,82.6973 170.856,82.6973 171.972,82.6973 173.088,82.6973 174.204,82.6973 175.32,82.6973 176.436,82.6973 177.552,82.6973 178.668,82.6973 179.784,82.6973 180.9,82.6973 182.016,82.6973 183.132,82.6973 184.248,82.6973 185.364,82.6973 186.48,82.6973 187.596,82.6973 188.712,82.6973 189.828,82.6973 190.944,82.6973 192.06,82.6973 193.176,82.6973 194.292,82.6973 195.408,82.6973 196.524,82.6973 197.64,82.6973 198.756,82.6973 199.872,82.6973 200.988,82.6973 202.104,82.6973 203.22,82.6973 204.336,82.6973 205.452,82.6973 206.568,82.6973 207.684,82.6973 208.8,82.6973 209.916,82.6973 211.032,82.6973 212.148,82.6973 213.264,82.6973 214.38,82.6973 215.496,82.6973 216.612,82.6973 217.728,82.6973 218.844,82.6973 219.96,82.6973 221.076,82.6973 222.192,82.6973 223.308,82.6973 224.424,82.6973 225.54,82.6973 226.656,82.6973 227.772,82.6973 228.888,82.6973 230.004,82.6973 231.12,82.6973 232.236,82.6973 233.352,82.6973 234.468,82.6973 235.584,82.6973 236.7,82.6973 237.816,82.6973 238.932,82.6973 240.048,82.6973 241.164,82.6973 242.28,82.6973 243.396,82.6973 244.512,82.6973 245.628,82.6973 246.744,82.6973 247.86,334.183 248.976,82.6973 250.092,208.44 251.208,208.44 252.324,208.44 253.44,208.44 254.556,208.44 255.672,208.44 256.788,208.44 257.904,208.44 259.02,208.44 260.136,208.44 261.252,208.44 262.368,208.44 263.484,208.44 264.6,208.44 265.716,208.44 266.832,208.44 267.948,208.44 269.064,208.44 270.18,208.44 271.296,208.44 272.412,208.44 273.528,208.44 274.644,208.44 275.76,208.44 276.876,208.44 277.992,208.44 279.108,208.44 280.224,208.44 281.34,208.44 282.456,208.44 283.572,208.44 284.688,208.44 285.804,208.44 286.92,208.44 288.036,208.44 289.152,208.44 290.268,208.44 291.384,208.44 292.5,208.44 293.616,334.183 294.732,334.183 295.848,334.183 296.964,334.183 298.08,334.183 299.196,334.183 300.312,334.183 301.428,208.44 302.544,208.44 303.66,208.44 304.776,208.44 305.892,208.44 307.008,208.44 308.124,208.44 309.24,208.44 310.356,208.44 311.472,208.44 312.588,208.44 313.704,208.44 314.82,208.44 315.936,208.44 317.052,208.44 318.168,208.44 319.284,208.44 320.4,208.44 321.516,208.44 322.632,208.44 323.748,208.44 324.864,208.44 325.98,208.44 327.096,208.44 328.212,208.44 329.328,208.44 330.444,208.44 331.56,208.44 332.676,208.44 333.792,208.44 334.908,208.44 336.024,208.44 337.14,208.44 338.256,208.44 339.372,208.44 340.488,208.44 341.604,208.44 342.72,208.44 343.836,208.44 344.952,208.44 346.068,82.6973 347.184,82.6973 348.3,82.6973 349.416,82.6973 350.532,82.6973 351.648,82.6973 352.764,82.6973 353.88,82.6973 354.996,82.6973 356.112,82.6973 357.228,82.6973 358.344,82.6973 359.46,82.6973 360.576,82.6973 361.692,82.6973 362.808,82.6973 363.924,82.6973 365.04,82.6973 366.156,82.6973 367.272,82.6973 368.388,82.6973 369.504,82.6973 370.62,82.6973 371.736,82.6973 372.852,82.6973 373.968,82.6973 375.084,82.6973 376.2,82.6973 377.316,82.6973 378.432,82.6973 379.548,82.6973 380.664,82.6973 381.78,82.6973 382.896,82.6973 384.012,82.6973 385.128,82.6973 386.244,82.6973 387.36,82.6973 388.476,82.6973 389.592,82.6973 390.708,82.6973 391.824,82.6973 392.94,82.6973 394.056,82.6973 395.172,82.6973 396.288,82.6973 397.404,82.6973 398.52,82.6973 399.636,82.6973 400.752,82.6973 401.868,82.6973 402.984,82.6973 404.1,82.6973 405.216,82.6973 406.332,82.6973 407.448,82.6973 408.564,82.6973 409.68,82.6973 410.796,82.6973 411.912,82.6973 413.028,82.6973 414.144,82.6973 415.26,82.6973 416.376,82.6973 417.492,82.6973 418.608,82.6973 419.724,82.6973 420.84,82.6973 421.956,82.6973 423.072,82.6973 424.188,82.6973 425.304,82.6973 426.42,82.6973 427.536,82.6973 428.652,82.6973 429.768,82.6973 430.884,82.6973 432,82.6973 433.116,82.6973 434.232,82.6973 435.348,82.6973 436.464,82.6973 437.58,82.6973 438.696,82.6973 439.812,82.6973 440.928,82.6973 442.044,82.6973 443.16,82.6973 444.276,82.6973 445.392,82.6973 446.508,82.6973 447.624,82.6973 448.74,82.6973 449.856,82.6973 450.972,82.6973 452.088,82.6973 453.204,82.6973 454.32,82.6973 455.436,82.6973 456.552,82.6973 457.668,82.6973 458.784,82.6973 459.9,82.6973 461.016,82.6973 462.132,82.6973 463.248,82.6973 464.364,82.6973 465.48,82.6973 466.596,82.6973 467.712,82.6973 468.828,82.6973 469.944,82.6973 471.06,82.6973 472.176,82.6973 473.292,82.6973 474.408,82.6973 475.524,82.6973 476.64,82.6973 477.756,82.6973 478.872,82.6973 479.988,82.6973 481.104,82.6973 482.22,82.6973 483.336,82.6973 484.452,82.6973 485.568,82.6973 486.684,82.6973 487.8,82.6973 488.916,82.6973 490.032,82.6973 491.148,82.6973 492.264,82.6973 493.38,82.6973 494.496,82.6973 495.612,82.6973 496.728,82.6973 497.844,82.6973 498.96,82.6973 500.076,82.6973 501.192,82.6973 502.308,82.6973 503.424,82.6973 504.54,82.6973 505.656,82.6973 506.772,82.6973 507.888,82.6973 509.004,82.6973 510.12,82.6973 511.236,82.6973 512.352,82.6973 513.468,82.6973 514.584,82.6973 515.7,82.6973 516.816,82.6973 517.932,82.6973 519.048,82.6973 520.164,82.6973" />
  <polygon
     style="fill:#ffffff;stroke-width:2.50000000000000000;stroke-miterlimit:4;stroke-dasharray:none"
     id="polygon136"
     points="518.535,67.3768 518.535,67.3768 518.535,35.1447 " />
  <polygon
     style="fill:#ffffff;stroke-width:2.50000000000000000;stroke-miterlimit:4;stroke-dasharray:none"
     id="polygon138"
     points="518.535,67.3768 518.535,35.1447 518.535,35.1447 " />
  <polygon
     style="fill:#ffffff;stroke-width:2.50000000000000000;stroke-miterlimit:4;stroke-dasharray:none"
     id="polygon140"
     points="426.974,35.1447 426.974,35.1447 518.535,35.1447 " />
  <polygon
     style="fill:#ffffff;stroke-width:2.50000000000000000;stroke-miterlimit:4;stroke-dasharray:none"
     id="polygon142"
     points="426.974,35.1447 518.535,35.1447 518.535,35.1447 " />
  <polygon
     style="fill:#ffffff;stroke-width:2.50000000000000000;stroke-miterlimit:4;stroke-dasharray:none"
     id="polygon144"
     points="426.974,35.1447 426.974,67.3768 518.535,67.3768 " />
  <polygon
     style="fill:#ffffff;stroke-width:2.50000000000000000;stroke-miterlimit:4;stroke-dasharray:none"
     id="polygon146"
     points="426.974,35.1447 518.535,67.3768 518.535,35.1447 " />
  <polyline
     style="fill:none;stroke:#000000;stroke-width:2.50000000000000000;stroke-miterlimit:4;stroke-dasharray:none"
     id="polyline164"
     points="518.535,35.1447 518.535,35.1447" />
  <polyline
     style="fill:none;stroke:#000000;stroke-width:2.50000000000000000;stroke-miterlimit:4;stroke-dasharray:none"
     id="polyline166"
     points="518.535,67.3768 518.535,67.3768" />
  <polyline
     style="fill:none;stroke:#000000;stroke-width:2.50000000000000000;stroke-miterlimit:4;stroke-dasharray:none"
     id="polyline168"
     points="426.974,67.3768 426.974,67.3768" />
  <text
     style="font-size:20px;text-anchor:start;baseline-shift:-5px;fill:#000000;stroke-width:2.5;stroke-miterlimit:4;stroke-dasharray:none;font-family:Helvetica"
     id="text170"
     baseline-shift="-5"
     font-size="10"
     y="347.98239"
     x="402.70901">Reconstruite</text>
  <text
     style="font-size:20px;text-anchor:start;baseline-shift:-5px;fill:#000000;stroke-width:2.5;stroke-miterlimit:4;stroke-dasharray:none;font-family:Helvetica"
     id="text172"
     baseline-shift="-5"
     font-size="10"
     y="364.09848"
     x="402.70901">Vraie</text>
  <polyline
     style="fill:none;stroke:#0000ff;stroke-width:2.5;stroke-miterlimit:4;stroke-dasharray:none"
     id="polyline174"
     points="429.718,43.2027 450.303,43.2027"
     transform="translate(-50.338983,304.77966)" />
  <polyline
     style="fill:none;stroke:#ff0000;stroke-width:2.5;stroke-miterlimit:4;stroke-dasharray:none"
     id="polyline176"
     points="429.718,59.3188 450.303,59.3188"
     transform="translate(-50.338983,304.77966)" />
</svg>
