<?xml version="1.0" encoding="UTF-8" standalone="no"?>
<svg
   xmlns:dc="http://purl.org/dc/elements/1.1/"
   xmlns:cc="http://creativecommons.org/ns#"
   xmlns:rdf="http://www.w3.org/1999/02/22-rdf-syntax-ns#"
   xmlns:svg="http://www.w3.org/2000/svg"
   xmlns="http://www.w3.org/2000/svg"
   xmlns:sodipodi="http://sodipodi.sourceforge.net/DTD/sodipodi-0.dtd"
   xmlns:inkscape="http://www.inkscape.org/namespaces/inkscape"
   width="576px"
   height="432px"
   viewBox="0 0 576 432"
   id="svg2"
   version="1.1"
   inkscape:version="0.48.4 r9939"
   sodipodi:docname="coupe_vp_mono.svg"
   inkscape:export-filename="/home/dinsenma/Desktop/Stage_M2/redaction/img/mono_param/coupe_vp_mono.png"
   inkscape:export-xdpi="200"
   inkscape:export-ydpi="200">
  <metadata
     id="metadata180">
    <rdf:RDF>
      <cc:Work
         rdf:about="">
        <dc:format>image/svg+xml</dc:format>
        <dc:type
           rdf:resource="http://purl.org/dc/dcmitype/StillImage" />
        <dc:title>glps_renderer figure</dc:title>
      </cc:Work>
    </rdf:RDF>
  </metadata>
  <sodipodi:namedview
     pagecolor="#ffffff"
     bordercolor="#666666"
     borderopacity="1"
     objecttolerance="10"
     gridtolerance="10"
     guidetolerance="10"
     inkscape:pageopacity="0"
     inkscape:pageshadow="2"
     inkscape:window-width="1600"
     inkscape:window-height="847"
     id="namedview178"
     showgrid="false"
     inkscape:zoom="1.0925926"
     inkscape:cx="275.42101"
     inkscape:cy="213.26947"
     inkscape:window-x="0"
     inkscape:window-y="31"
     inkscape:window-maximized="1"
     inkscape:current-layer="svg2" />
  <title
     id="title4">glps_renderer figure</title>
  <desc
     id="desc6">
Creator: GL2PS 1.3.8, (C) 1999-2012 C. Geuzaine
For: Octave
CreationDate: Wed Jun 22 16:31:57 2016
</desc>
  <defs
     id="defs8" />
  <polygon
     style="fill:#ffffff;stroke-width:2.5;stroke-miterlimit:4;stroke-dasharray:none"
     id="polygon12"
     points="521.28,384.48 521.28,384.48 521.28,32.4001 " />
  <polygon
     style="fill:#ffffff;stroke-width:2.5;stroke-miterlimit:4;stroke-dasharray:none"
     id="polygon14"
     points="521.28,384.48 521.28,32.4001 521.28,32.4001 " />
  <polygon
     style="fill:#ffffff;stroke-width:2.5;stroke-miterlimit:4;stroke-dasharray:none"
     id="polygon16"
     points="74.88,32.4001 74.88,32.4001 521.28,32.4001 " />
  <polygon
     style="fill:#ffffff;stroke-width:2.5;stroke-miterlimit:4;stroke-dasharray:none"
     id="polygon18"
     points="74.88,32.4001 521.28,32.4001 521.28,32.4001 " />
  <polygon
     style="fill:#ffffff;stroke-width:2.5;stroke-miterlimit:4;stroke-dasharray:none"
     id="polygon20"
     points="74.88,32.4001 74.88,384.48 521.28,384.48 " />
  <polygon
     style="fill:#ffffff;stroke-width:2.5;stroke-miterlimit:4;stroke-dasharray:none"
     id="polygon22"
     points="74.88,32.4001 521.28,384.48 521.28,32.4001 " />
  <polyline
     style="fill:none;stroke:#000000;stroke-width:2.5;stroke-miterlimit:4;stroke-dasharray:none"
     id="polyline24"
     points="74.88,384.48 521.28,384.48" />
  <polyline
     style="fill:none;stroke:#000000;stroke-width:2.5;stroke-miterlimit:4;stroke-dasharray:none"
     id="polyline26"
     points="74.88,32.4001 521.28,32.4001" />
  <polyline
     style="fill:none;stroke:#000000;stroke-width:2.5;stroke-miterlimit:4;stroke-dasharray:none"
     id="polyline28"
     points="74.88,32.4001 521.28,32.4001" />
  <polyline
     style="fill:none;stroke:#000000;stroke-width:2.5;stroke-miterlimit:4;stroke-dasharray:none"
     id="polyline30"
     points="74.88,384.48 521.28,384.48" />
  <polyline
     style="fill:none;stroke:#000000;stroke-width:2.5;stroke-miterlimit:4;stroke-dasharray:none"
     id="polyline32"
     points="74.88,384.48 74.88,32.4001" />
  <polyline
     style="fill:none;stroke:#000000;stroke-width:2.5;stroke-miterlimit:4;stroke-dasharray:none"
     id="polyline34"
     points="521.28,384.48 521.28,32.4001" />
  <polyline
     style="fill:none;stroke:#000000;stroke-width:2.5;stroke-miterlimit:4;stroke-dasharray:none"
     id="polyline36"
     points="521.28,384.48 521.28,32.4001" />
  <polyline
     style="fill:none;stroke:#000000;stroke-width:2.5;stroke-miterlimit:4;stroke-dasharray:none"
     id="polyline38"
     points="74.88,384.48 74.88,32.4001 74.88,32.4001" />
  <polyline
     style="fill:none;stroke:#000000;stroke-width:2.5;stroke-miterlimit:4;stroke-dasharray:none"
     id="polyline42"
     points="521.28,384.48 521.28,384.48" />
  <polyline
     style="fill:none;stroke:#000000;stroke-width:2.5;stroke-miterlimit:4;stroke-dasharray:none"
     id="polyline44"
     points="74.88,384.48 74.88,384.48 74.88,380.015" />
  <polyline
     style="fill:none;stroke:#000000;stroke-width:2.5;stroke-miterlimit:4;stroke-dasharray:none"
     id="polyline46"
     points="74.88,32.4001 74.88,36.8651" />
  <polyline
     style="fill:none;stroke:#000000;stroke-width:2.5;stroke-miterlimit:4;stroke-dasharray:none"
     id="polyline48"
     points="164.16,384.48 164.16,380.015" />
  <polyline
     style="fill:none;stroke:#000000;stroke-width:2.5;stroke-miterlimit:4;stroke-dasharray:none"
     id="polyline50"
     points="164.16,32.4001 164.16,36.8651" />
  <polyline
     style="fill:none;stroke:#000000;stroke-width:2.5;stroke-miterlimit:4;stroke-dasharray:none"
     id="polyline52"
     points="253.44,384.48 253.44,380.015" />
  <polyline
     style="fill:none;stroke:#000000;stroke-width:2.5;stroke-miterlimit:4;stroke-dasharray:none"
     id="polyline54"
     points="253.44,32.4001 253.44,36.8651" />
  <polyline
     style="fill:none;stroke:#000000;stroke-width:2.5;stroke-miterlimit:4;stroke-dasharray:none"
     id="polyline56"
     points="342.72,384.48 342.72,380.015" />
  <polyline
     style="fill:none;stroke:#000000;stroke-width:2.5;stroke-miterlimit:4;stroke-dasharray:none"
     id="polyline58"
     points="342.72,32.4001 342.72,36.8651" />
  <polyline
     style="fill:none;stroke:#000000;stroke-width:2.5;stroke-miterlimit:4;stroke-dasharray:none"
     id="polyline60"
     points="432,384.48 432,380.015" />
  <polyline
     style="fill:none;stroke:#000000;stroke-width:2.5;stroke-miterlimit:4;stroke-dasharray:none"
     id="polyline64"
     points="521.28,384.48 521.28,380.015" />
  <g
     id="g4179"
     inkscape:export-xdpi="200"
     inkscape:export-ydpi="200">
    <text
       x="74.879997"
       y="393.142"
       font-size="10"
       baseline-shift="-10"
       id="text68"
       style="font-size:20px;text-anchor:middle;baseline-shift:-10px;fill:#000000;stroke-width:2.5;stroke-miterlimit:4;stroke-dasharray:none;font-family:Helvetica">0</text>
    <text
       x="164.16"
       y="393.142"
       font-size="10"
       baseline-shift="-10"
       id="text70"
       style="font-size:20px;text-anchor:middle;baseline-shift:-10px;fill:#000000;stroke-width:2.5;stroke-miterlimit:4;stroke-dasharray:none;font-family:Helvetica">20</text>
    <text
       x="253.44"
       y="393.142"
       font-size="10"
       baseline-shift="-10"
       id="text72"
       style="font-size:20px;text-anchor:middle;baseline-shift:-10px;fill:#000000;stroke-width:2.5;stroke-miterlimit:4;stroke-dasharray:none;font-family:Helvetica">40</text>
    <text
       x="342.72"
       y="393.142"
       font-size="10"
       baseline-shift="-10"
       id="text74"
       style="font-size:20px;text-anchor:middle;baseline-shift:-10px;fill:#000000;stroke-width:2.5;stroke-miterlimit:4;stroke-dasharray:none;font-family:Helvetica">60</text>
    <text
       x="432"
       y="393.142"
       font-size="10"
       baseline-shift="-10"
       id="text76"
       style="font-size:20px;text-anchor:middle;baseline-shift:-10px;fill:#000000;stroke-width:2.5;stroke-miterlimit:4;stroke-dasharray:none;font-family:Helvetica">80</text>
    <text
       x="521.28003"
       y="393.142"
       font-size="10"
       baseline-shift="-10"
       id="text78"
       style="font-size:20px;text-anchor:middle;baseline-shift:-10px;fill:#000000;stroke-width:2.5;stroke-miterlimit:4;stroke-dasharray:none;font-family:Helvetica">10</text>
  </g>
  <polyline
     style="fill:none;stroke:#000000;stroke-width:2.5;stroke-miterlimit:4;stroke-dasharray:none"
     id="polyline80"
     points="74.88,384.48 79.348,384.48" />
  <polyline
     style="fill:none;stroke:#000000;stroke-width:2.50000000000000000;stroke-miterlimit:4;stroke-dasharray:none"
     id="polyline82"
     points="521.28,384.48 516.812,384.48" />
  <polyline
     style="fill:none;stroke:#000000;stroke-width:2.5;stroke-miterlimit:4;stroke-dasharray:none"
     id="polyline84"
     points="74.88,334.183 79.348,334.183" />
  <polyline
     style="fill:none;stroke:#000000;stroke-width:2.5;stroke-miterlimit:4;stroke-dasharray:none"
     id="polyline86"
     points="521.28,334.183 516.812,334.183" />
  <polyline
     style="fill:none;stroke:#000000;stroke-width:2.5;stroke-miterlimit:4;stroke-dasharray:none"
     id="polyline88"
     points="74.88,283.886 79.348,283.886" />
  <polyline
     style="fill:none;stroke:#000000;stroke-width:2.5;stroke-miterlimit:4;stroke-dasharray:none"
     id="polyline90"
     points="521.28,283.886 516.812,283.886" />
  <polyline
     style="fill:none;stroke:#000000;stroke-width:2.5;stroke-miterlimit:4;stroke-dasharray:none"
     id="polyline92"
     points="74.88,233.589 79.348,233.589" />
  <polyline
     style="fill:none;stroke:#000000;stroke-width:2.5;stroke-miterlimit:4;stroke-dasharray:none"
     id="polyline94"
     points="521.28,233.589 516.812,233.589" />
  <polyline
     style="fill:none;stroke:#000000;stroke-width:2.5;stroke-miterlimit:4;stroke-dasharray:none"
     id="polyline96"
     points="74.88,183.292 79.348,183.292" />
  <polyline
     style="fill:none;stroke:#000000;stroke-width:2.5;stroke-miterlimit:4;stroke-dasharray:none"
     id="polyline98"
     points="521.28,183.292 516.812,183.292" />
  <polyline
     style="fill:none;stroke:#000000;stroke-width:2.5;stroke-miterlimit:4;stroke-dasharray:none"
     id="polyline100"
     points="74.88,132.994 79.348,132.994" />
  <polyline
     style="fill:none;stroke:#000000;stroke-width:2.5;stroke-miterlimit:4;stroke-dasharray:none"
     id="polyline104"
     points="74.88,82.6973 79.348,82.6973" />
  <polyline
     style="fill:none;stroke:#000000;stroke-width:2.5;stroke-miterlimit:4;stroke-dasharray:none"
     id="polyline108"
     points="74.88,32.4001 79.348,32.4001" />
  <text
     style="font-size:20px;text-anchor:end;baseline-shift:-5px;fill:#000000;stroke-width:2.50000000000000000;stroke-miterlimit:4;stroke-dasharray:none;font-family:Helvetica"
     id="text112"
     baseline-shift="-5"
     font-size="10"
     y="384.48001"
     x="69.875504">4800</text>
  <text
     style="font-size:20px;text-anchor:end;baseline-shift:-5px;fill:#000000;stroke-width:2.50000000000000000;stroke-miterlimit:4;stroke-dasharray:none;font-family:Helvetica"
     id="text114"
     baseline-shift="-5"
     font-size="10"
     y="334.18301"
     x="69.875504">5000</text>
  <text
     style="font-size:20px;text-anchor:end;baseline-shift:-5px;fill:#000000;stroke-width:2.50000000000000000;stroke-miterlimit:4;stroke-dasharray:none;font-family:Helvetica"
     id="text116"
     baseline-shift="-5"
     font-size="10"
     y="283.88599"
     x="69.875504">5200</text>
  <text
     style="font-size:20px;text-anchor:end;baseline-shift:-5px;fill:#000000;stroke-width:2.50000000000000000;stroke-miterlimit:4;stroke-dasharray:none;font-family:Helvetica"
     id="text118"
     baseline-shift="-5"
     font-size="10"
     y="233.589"
     x="69.875504">5400</text>
  <text
     style="font-size:20px;text-anchor:end;baseline-shift:-5px;fill:#000000;stroke-width:2.50000000000000000;stroke-miterlimit:4;stroke-dasharray:none;font-family:Helvetica"
     id="text120"
     baseline-shift="-5"
     font-size="10"
     y="183.291"
     x="69.875504">5600</text>
  <text
     style="font-size:20px;text-anchor:end;baseline-shift:-5px;fill:#000000;stroke-width:2.50000000000000000;stroke-miterlimit:4;stroke-dasharray:none;font-family:Helvetica"
     id="text122"
     baseline-shift="-5"
     font-size="10"
     y="132.994"
     x="69.875504">5800</text>
  <text
     style="font-size:20px;text-anchor:end;baseline-shift:-5px;fill:#000000;stroke-width:2.50000000000000000;stroke-miterlimit:4;stroke-dasharray:none;font-family:Helvetica"
     id="text124"
     baseline-shift="-5"
     font-size="10"
     y="82.697197"
     x="69.875504">6000</text>
  <text
     style="font-size:20px;text-anchor:end;baseline-shift:-5px;fill:#000000;stroke-width:2.50000000000000000;stroke-miterlimit:4;stroke-dasharray:none;font-family:Helvetica"
     id="text126"
     baseline-shift="-5"
     font-size="10"
     y="32.400101"
     x="69.875504">6200</text>
  <text
     style="font-size:20px;text-anchor:middle;baseline-shift:-10px;fill:#000000;stroke-width:2.5;stroke-miterlimit:4;stroke-dasharray:none;font-family:Helvetica"
     id="text128"
     baseline-shift="-10"
     font-size="10"
     y="408.88776"
     x="298.07999">mm</text>
  <text
     style="font-size:20px;text-anchor:middle;baseline-shift:0px;fill:#000000;stroke-width:2.5;stroke-miterlimit:4;stroke-dasharray:none;font-family:Helvetica"
     id="text130"
     baseline-shift="0"
     transform="matrix(0,-1,1,0,0,0)"
     font-size="10"
     y="15.988204"
     x="-207.14563">Vitesse en m/s</text>
  <polyline
     style="fill:none;stroke:#ff0000;stroke-width:2.5;stroke-miterlimit:4;stroke-dasharray:none"
     id="polyline134"
     points="74.88,82.6973 75.996,82.6973 77.112,82.6973 78.228,82.6973 79.344,82.6973 80.46,82.6973 81.576,82.6973 82.692,82.6973 83.808,82.6973 84.924,82.6973 86.04,82.6973 87.156,82.6973 88.272,82.6973 89.388,82.6973 90.504,82.6973 91.62,82.6973 92.736,82.6973 93.852,82.6973 94.968,82.6973 96.084,82.6973 97.2,82.6973 98.316,82.6973 99.432,82.6973 100.548,82.6973 101.664,82.6973 102.78,82.6973 103.896,82.6973 105.012,82.6973 106.128,82.6973 107.244,82.6973 108.36,82.6973 109.476,82.6973 110.592,82.6973 111.708,82.6973 112.824,82.6973 113.94,82.6973 115.056,82.6973 116.172,82.6973 117.288,82.6973 118.404,82.6973 119.52,82.6973 120.636,82.6973 121.752,82.6973 122.868,82.6973 123.984,82.6973 125.1,82.6973 126.216,82.6973 127.332,82.6973 128.448,82.6973 129.564,82.6973 130.68,82.6973 131.796,82.6973 132.912,82.6973 134.028,82.6973 135.144,82.6973 136.26,82.6973 137.376,82.6973 138.492,82.6973 139.608,82.6973 140.724,82.6973 141.84,82.6973 142.956,82.6973 144.072,82.6973 145.188,82.6973 146.304,82.6973 147.42,82.6973 148.536,82.6973 149.652,82.6973 150.768,82.6973 151.884,82.6973 153,82.6973 154.116,82.6973 155.232,82.6973 156.348,82.6973 157.464,82.6973 158.58,82.6973 159.696,82.6973 160.812,82.6973 161.928,82.6973 163.044,82.6973 164.16,82.6973 165.276,82.6973 166.392,82.6973 167.508,82.6973 168.624,82.6973 169.74,82.6973 170.856,82.6973 171.972,82.6973 173.088,82.6973 174.204,82.6973 175.32,82.6973 176.436,82.6973 177.552,82.6973 178.668,82.6973 179.784,82.6973 180.9,82.6973 182.016,82.6973 183.132,82.6973 184.248,82.6973 185.364,82.6973 186.48,82.6973 187.596,82.6973 188.712,82.6973 189.828,82.6973 190.944,82.6973 192.06,82.6973 193.176,82.6973 194.292,82.6973 195.408,82.6973 196.524,82.6973 197.64,82.6973 198.756,82.6973 199.872,82.6973 200.988,82.6973 202.104,82.6973 203.22,82.6973 204.336,82.6973 205.452,82.6973 206.568,82.6973 207.684,82.6973 208.8,82.6973 209.916,82.6973 211.032,82.6973 212.148,82.6973 213.264,82.6973 214.38,82.6973 215.496,82.6973 216.612,82.6973 217.728,82.6973 218.844,82.6973 219.96,82.6973 221.076,82.6973 222.192,82.6973 223.308,82.6973 224.424,82.6973 225.54,82.6973 226.656,82.6973 227.772,82.6973 228.888,82.6973 230.004,82.6973 231.12,82.6973 232.236,82.6973 233.352,82.6973 234.468,82.6973 235.584,82.6973 236.7,82.6973 237.816,82.6973 238.932,82.6973 240.048,82.6973 241.164,82.6973 242.28,82.6973 243.396,82.6973 244.512,82.6973 245.628,82.6973 246.744,82.6973 247.86,334.183 248.976,82.6973 250.092,208.44 251.208,208.44 252.324,208.44 253.44,208.44 254.556,208.44 255.672,208.44 256.788,208.44 257.904,208.44 259.02,208.44 260.136,208.44 261.252,208.44 262.368,208.44 263.484,208.44 264.6,208.44 265.716,208.44 266.832,208.44 267.948,208.44 269.064,208.44 270.18,208.44 271.296,208.44 272.412,208.44 273.528,208.44 274.644,208.44 275.76,208.44 276.876,208.44 277.992,208.44 279.108,208.44 280.224,208.44 281.34,208.44 282.456,208.44 283.572,208.44 284.688,208.44 285.804,208.44 286.92,208.44 288.036,208.44 289.152,208.44 290.268,208.44 291.384,208.44 292.5,208.44 293.616,334.183 294.732,334.183 295.848,334.183 296.964,334.183 298.08,334.183 299.196,334.183 300.312,334.183 301.428,208.44 302.544,208.44 303.66,208.44 304.776,208.44 305.892,208.44 307.008,208.44 308.124,208.44 309.24,208.44 310.356,208.44 311.472,208.44 312.588,208.44 313.704,208.44 314.82,208.44 315.936,208.44 317.052,208.44 318.168,208.44 319.284,208.44 320.4,208.44 321.516,208.44 322.632,208.44 323.748,208.44 324.864,208.44 325.98,208.44 327.096,208.44 328.212,208.44 329.328,208.44 330.444,208.44 331.56,208.44 332.676,208.44 333.792,208.44 334.908,208.44 336.024,208.44 337.14,208.44 338.256,208.44 339.372,208.44 340.488,208.44 341.604,208.44 342.72,208.44 343.836,208.44 344.952,208.44 346.068,82.6973 347.184,82.6973 348.3,82.6973 349.416,82.6973 350.532,82.6973 351.648,82.6973 352.764,82.6973 353.88,82.6973 354.996,82.6973 356.112,82.6973 357.228,82.6973 358.344,82.6973 359.46,82.6973 360.576,82.6973 361.692,82.6973 362.808,82.6973 363.924,82.6973 365.04,82.6973 366.156,82.6973 367.272,82.6973 368.388,82.6973 369.504,82.6973 370.62,82.6973 371.736,82.6973 372.852,82.6973 373.968,82.6973 375.084,82.6973 376.2,82.6973 377.316,82.6973 378.432,82.6973 379.548,82.6973 380.664,82.6973 381.78,82.6973 382.896,82.6973 384.012,82.6973 385.128,82.6973 386.244,82.6973 387.36,82.6973 388.476,82.6973 389.592,82.6973 390.708,82.6973 391.824,82.6973 392.94,82.6973 394.056,82.6973 395.172,82.6973 396.288,82.6973 397.404,82.6973 398.52,82.6973 399.636,82.6973 400.752,82.6973 401.868,82.6973 402.984,82.6973 404.1,82.6973 405.216,82.6973 406.332,82.6973 407.448,82.6973 408.564,82.6973 409.68,82.6973 410.796,82.6973 411.912,82.6973 413.028,82.6973 414.144,82.6973 415.26,82.6973 416.376,82.6973 417.492,82.6973 418.608,82.6973 419.724,82.6973 420.84,82.6973 421.956,82.6973 423.072,82.6973 424.188,82.6973 425.304,82.6973 426.42,82.6973 427.536,82.6973 428.652,82.6973 429.768,82.6973 430.884,82.6973 432,82.6973 433.116,82.6973 434.232,82.6973 435.348,82.6973 436.464,82.6973 437.58,82.6973 438.696,82.6973 439.812,82.6973 440.928,82.6973 442.044,82.6973 443.16,82.6973 444.276,82.6973 445.392,82.6973 446.508,82.6973 447.624,82.6973 448.74,82.6973 449.856,82.6973 450.972,82.6973 452.088,82.6973 453.204,82.6973 454.32,82.6973 455.436,82.6973 456.552,82.6973 457.668,82.6973 458.784,82.6973 459.9,82.6973 461.016,82.6973 462.132,82.6973 463.248,82.6973 464.364,82.6973 465.48,82.6973 466.596,82.6973 467.712,82.6973 468.828,82.6973 469.944,82.6973 471.06,82.6973 472.176,82.6973 473.292,82.6973 474.408,82.6973 475.524,82.6973 476.64,82.6973 477.756,82.6973 478.872,82.6973 479.988,82.6973 481.104,82.6973 482.22,82.6973 483.336,82.6973 484.452,82.6973 485.568,82.6973 486.684,82.6973 487.8,82.6973 488.916,82.6973 490.032,82.6973 491.148,82.6973 492.264,82.6973 493.38,82.6973 494.496,82.6973 495.612,82.6973 496.728,82.6973 497.844,82.6973 498.96,82.6973 500.076,82.6973 501.192,82.6973 502.308,82.6973 503.424,82.6973 504.54,82.6973 505.656,82.6973 506.772,82.6973 507.888,82.6973 509.004,82.6973 510.12,82.6973 511.236,82.6973 512.352,82.6973 513.468,82.6973 514.584,82.6973 515.7,82.6973 516.816,82.6973 517.932,82.6973 519.048,82.6973 520.164,82.6973" />
  <polyline
     style="fill:none;stroke:#0000ff;stroke-width:2.5;stroke-miterlimit:4;stroke-dasharray:none"
     id="polyline132"
     points="74.88,92.4019 75.996,92.3509 77.112,92.2725 78.228,92.2279 79.344,92.1586 80.46,92.0331 81.576,91.8693 82.692,91.7199 83.808,91.6029 84.924,91.6101 86.04,91.5822 87.156,91.4924 88.272,91.3644 89.388,91.3241 90.504,91.3695 91.62,91.4019 92.736,91.3991 93.852,91.3291 94.968,91.3367 96.084,91.4611 97.2,91.7003 98.316,91.9019 99.432,92.0494 100.548,92.1611 101.664,92.2819 102.78,92.4016 103.896,92.4942 105.012,92.54 106.128,92.534 107.244,92.5952 108.36,92.696 109.476,92.8159 110.592,92.9241 111.708,93.015 112.824,93.1891 113.94,93.3969 115.056,93.5801 116.172,93.7756 117.288,93.8885 118.404,93.9845 119.52,94.0849 120.636,94.1541 121.752,94.2248 122.868,94.2616 123.984,94.3192 125.1,94.3632 126.216,94.3807 127.332,94.3812 128.448,94.3647 129.564,94.3696 130.68,94.3889 131.796,94.4049 132.912,94.3799 134.028,94.3133 135.144,94.1834 136.26,94.0279 137.376,93.8985 138.492,93.7579 139.608,93.5955 140.724,93.3972 141.84,93.1271 142.956,92.8624 144.072,92.6088 145.188,92.3744 146.304,92.1703 147.42,91.9979 148.536,91.8453 149.652,91.7352 150.768,91.6081 151.884,91.4727 153,91.3358 154.116,91.2829 155.232,91.2734 156.348,91.2728 157.464,91.2244 158.58,91.0988 159.696,90.8816 160.812,90.632 161.928,90.369 163.044,90.0667 164.16,89.7148 165.276,89.244 166.392,88.7592 167.508,88.2558 168.624,87.7979 169.74,87.4041 170.856,87.0844 171.972,86.8636 173.088,86.7047 174.204,86.6911 175.32,86.8177 176.436,87.0412 177.552,87.3251 178.668,87.6502 179.784,87.925 180.9,88.1842 182.016,88.3978 183.132,88.5866 184.248,88.7203 185.364,88.7418 186.48,88.5695 187.596,88.2136 188.712,87.6411 189.828,86.949 190.944,86.1827 192.06,85.4417 193.176,84.8376 194.292,84.3124 195.408,84.0009 196.524,83.965 197.64,84.2209 198.756,84.8304 199.872,85.7786 200.988,86.9351 202.104,88.1457 203.22,89.1812 204.336,89.8293 205.452,89.8864 206.568,89.2589 207.684,87.8124 208.8,85.6148 209.916,82.799 211.032,79.644 212.148,76.591 213.264,74.1401 214.38,72.8658 215.496,73.1327 216.612,74.9432 217.728,77.8482 218.844,80.9503 219.96,83.1224 221.076,83.2161 222.192,80.5027 223.308,75.007 224.424,67.6238 225.54,60.0485 226.656,54.3492 227.772,52.2881 228.888,54.9876 230.004,62.4831 231.12,73.604 232.236,85.8369 233.352,95.5699 234.468,98.6645 235.584,91.9735 236.7,77.3391 237.816,55.342 238.932,37.8135 240.048,32.4031 241.164,32.4001 242.28,32.4001 243.396,53.0891 244.512,36.1391 245.628,100.173 246.744,170.599 247.86,228.487 248.976,257.57 250.092,254.098 251.208,227.333 252.324,192.025 253.44,162.179 254.556,147.878 255.672,152.745 256.788,172.598 257.904,197.558 259.02,217.006 260.136,224.627 261.252,220.734 262.368,210.78 263.484,201.883 264.6,198.946 265.716,202.604 266.832,209.495 267.948,215.255 269.064,217.22 270.18,215.076 271.296,209.689 272.412,202.185 273.528,193.513 274.644,184.625 275.76,176.509 276.876,169.891 277.992,164.553 279.108,159.252 280.224,152.493 281.34,144.179 282.456,136.704 283.572,134.681 284.688,142.339 285.804,160.062 286.92,182.493 288.036,202.947 289.152,192.833 290.268,187.2 291.384,182.434 292.5,222.286 293.616,344.708 294.732,384.48 295.848,384.48 296.964,384.48 298.08,384.48 299.196,384.48 300.312,379.54 301.428,262.767 302.544,212.227 303.66,229.686 304.776,229.127 305.892,231.395 307.008,208.328 308.124,185.59 309.24,169.468 310.356,163.65 311.472,166.368 312.588,172.896 313.704,178.956 314.82,182.495 315.936,183.762 317.052,184.137 318.168,184.907 319.284,186.387 320.4,188.263 321.516,189.911 322.632,190.913 323.748,191.164 324.864,190.805 325.98,190.3 327.096,190.057 328.212,190.316 329.328,190.868 330.444,191.333 331.56,191.235 332.676,190.208 333.792,188.125 334.908,185.454 336.024,183.334 337.14,183.265 338.256,186.412 339.372,192.445 340.488,198.636 341.604,200.183 342.72,192.491 343.836,174.014 344.952,147.317 346.068,117.814 347.184,90.9287 348.3,70.4806 349.416,57.8935 350.532,52.6962 351.648,53.2414 352.764,57.4545 353.88,63.2691 354.996,69.0126 356.112,73.3799 357.228,75.635 358.344,75.6407 359.46,73.794 360.576,70.8677 361.692,67.8603 362.808,65.5798 363.924,64.5749 365.04,65.0132 366.156,66.7616 367.272,69.426 368.388,72.4932 369.504,75.4582 370.62,77.8875 371.736,79.5717 372.852,80.3954 373.968,80.4312 375.084,79.8745 376.2,79.0368 377.316,78.1291 378.432,77.4467 379.548,77.1086 380.664,77.1981 381.78,77.7816 382.896,78.7447 384.012,79.9641 385.128,81.2668 386.244,82.4861 387.36,83.5457 388.476,84.3297 389.592,84.807 390.708,85.0043 391.824,84.902 392.94,84.5845 394.056,84.1212 395.172,83.6281 396.288,83.1058 397.404,82.7257 398.52,82.4984 399.636,82.4791 400.752,82.6649 401.868,83.0252 402.984,83.5198 404.1,84.1251 405.216,84.759 406.332,85.3895 407.448,85.9901 408.564,86.5413 409.68,86.9824 410.796,87.226 411.912,87.2249 413.028,87.0093 414.144,86.7136 415.26,86.4611 416.376,86.258 417.492,86.0684 418.608,85.8285 419.724,85.6262 420.84,85.4568 421.956,85.3641 423.072,85.2856 424.188,85.2489 425.304,85.334 426.42,85.6176 427.536,86.0304 428.652,86.3877 429.768,86.5962 430.884,86.7346 432,86.9245 433.116,87.2604 434.232,87.6213 435.348,87.8318 436.464,87.8119 437.58,87.717 438.696,87.7357 439.812,87.8292 440.928,87.839 442.044,87.6188 443.16,87.3402 444.276,87.1938 445.392,87.2246 446.508,87.2501 447.624,87.1227 448.74,86.8956 449.856,86.8251 450.972,86.9534 452.088,87.0894 453.204,87.0195 454.32,86.7198 455.436,86.4414 456.552,86.3232 457.668,86.3743 458.784,86.3973 459.9,86.2759 461.016,86.0115 462.132,85.7403 463.248,85.6388 464.364,85.6865 465.48,85.7351 466.596,85.666 467.712,85.5275 468.828,85.4904 469.944,85.6068 471.06,85.6943 472.176,85.5812 473.292,85.3818 474.408,85.3673 475.524,85.6349 476.64,85.9079 477.756,85.9018 478.872,85.6628 479.988,85.5464 481.104,85.8795 482.22,86.3912 483.336,86.5121 484.452,86.0742 485.568,85.5812 486.684,85.6224 487.8,86.1005 488.916,86.43 490.032,86.1214 491.148,85.5087 492.264,85.2258 493.38,85.4918 494.496,85.9043 495.612,85.8262 496.728,85.3477 497.844,84.9611 498.96,85.0057 500.076,85.2259 501.192,85.1423 502.308,84.7206 503.424,84.3004 504.54,84.2621 505.656,84.3972 506.772,84.3573 507.888,84.0957 509.004,83.7904 510.12,83.7638 511.236,83.8463 512.352,83.7398 513.468,83.4751 514.584,83.2965 515.7,83.3665 516.816,83.4379 517.932,83.3356 519.048,83.1428 520.164,83.0531" />
  <polyline
     style="fill:none;stroke:#000000;stroke-width:2.5;stroke-miterlimit:4;stroke-dasharray:none"
     id="polyline62"
     points="432,32.4001 432,36.8651" />
  <polygon
     style="fill:#ffffff;stroke-width:2.5;stroke-miterlimit:4;stroke-dasharray:none"
     id="polygon146"
     points="518.535,35.1447 426.974,35.1447 518.535,67.3768 " />
  <g
     id="g4163"
     transform="translate(-148.18574,206.77289)">
    <polyline
       points="521.28,132.994 516.812,132.994"
       id="polyline102"
       style="fill:none;stroke:#000000;stroke-width:2.5;stroke-miterlimit:4;stroke-dasharray:none" />
    <polyline
       transform="translate(87.177966,86.720338)"
       points="521.28,32.4001 521.28,32.4001"
       id="polyline40"
       style="fill:none;stroke:#000000;stroke-width:2.5;stroke-miterlimit:4;stroke-dasharray:none" />
    <polygon
       transform="translate(87.177966,86.720338)"
       points="518.535,35.1447 518.535,67.3768 518.535,67.3768 "
       id="polygon136"
       style="fill:#ffffff;stroke-width:2.5;stroke-miterlimit:4;stroke-dasharray:none" />
    <polygon
       transform="translate(87.177966,86.720338)"
       points="518.535,35.1447 518.535,67.3768 518.535,35.1447 "
       id="polygon138"
       style="fill:#ffffff;stroke-width:2.5;stroke-miterlimit:4;stroke-dasharray:none" />
    <polygon
       transform="translate(87.177966,86.720338)"
       points="518.535,35.1447 426.974,35.1447 426.974,35.1447 "
       id="polygon140"
       style="fill:#ffffff;stroke-width:2.5;stroke-miterlimit:4;stroke-dasharray:none" />
    <polygon
       transform="translate(87.177966,86.720338)"
       points="518.535,35.1447 426.974,35.1447 518.535,35.1447 "
       id="polygon142"
       style="fill:#ffffff;stroke-width:2.5;stroke-miterlimit:4;stroke-dasharray:none" />
    <polygon
       transform="translate(87.177966,86.720338)"
       points="518.535,67.3768 426.974,35.1447 426.974,67.3768 "
       id="polygon144"
       style="fill:#ffffff;stroke-width:2.5;stroke-miterlimit:4;stroke-dasharray:none" />
    <polyline
       transform="translate(87.177966,86.720338)"
       points="518.535,35.1447 518.535,35.1447"
       id="polyline164"
       style="fill:none;stroke:#000000;stroke-width:2.5;stroke-miterlimit:4;stroke-dasharray:none" />
    <polyline
       transform="translate(87.177966,86.720338)"
       points="518.535,67.3768 518.535,67.3768"
       id="polyline166"
       style="fill:none;stroke:#000000;stroke-width:2.5;stroke-miterlimit:4;stroke-dasharray:none" />
    <polyline
       transform="translate(87.177966,86.720338)"
       points="426.974,67.3768 426.974,67.3768"
       id="polyline168"
       style="fill:none;stroke:#000000;stroke-width:2.5;stroke-miterlimit:4;stroke-dasharray:none" />
    <text
       x="540.22595"
       y="129.92303"
       font-size="10"
       baseline-shift="-5"
       id="text170"
       style="font-size:20px;text-anchor:start;baseline-shift:-5px;fill:#000000;stroke-width:2.5;stroke-miterlimit:4;stroke-dasharray:none;font-family:Helvetica">Reconstruite</text>
    <text
       x="540.22595"
       y="146.03914"
       font-size="10"
       baseline-shift="-5"
       id="text172"
       style="font-size:20px;text-anchor:start;baseline-shift:-5px;fill:#000000;stroke-width:2.5;stroke-miterlimit:4;stroke-dasharray:none;font-family:Helvetica">Vraie</text>
    <polyline
       transform="translate(87.177966,86.720338)"
       points="429.718,43.2027 450.303,43.2027"
       id="polyline174"
       style="fill:none;stroke:#0000ff;stroke-width:2.5;stroke-miterlimit:4;stroke-dasharray:none" />
    <polyline
       transform="translate(87.177966,86.720338)"
       points="429.718,59.3188 450.303,59.3188"
       id="polyline176"
       style="fill:none;stroke:#ff0000;stroke-width:2.5;stroke-miterlimit:4;stroke-dasharray:none" />
  </g>
</svg>
