<?xml version="1.0" encoding="UTF-8" standalone="no"?>
<svg xmlns="http://www.w3.org/2000/svg"
     xmlns:xlink="http://www.w3.org/1999/xlink"
     width="576px" height="432px" viewBox="0 0 576 432">
<title>glps_renderer figure</title>
<desc>
Creator: GL2PS 1.3.8, (C) 1999-2012 C. Geuzaine
For: Octave
CreationDate: Sun Jun 12 16:39:14 2016
</desc>
<defs>
</defs>
<g shape-rendering="crispEdges">
<polygon fill="#ffffff" points="474.12,384.48 474.12,32.4 474.12,384.48"/>
<polygon fill="#ffffff" points="474.12,32.4 474.12,32.4 474.12,384.48"/>
<polygon fill="#ffffff" points="122.04,32.4 474.12,32.4 122.04,32.4"/>
<polygon fill="#ffffff" points="474.12,32.4 474.12,32.4 122.04,32.4"/>
<polygon fill="#ffffff" points="122.04,384.48 474.12,384.48 122.04,32.4"/>
<polygon fill="#ffffff" points="474.12,384.48 474.12,32.4 122.04,32.4"/>
<polyline fill="none" stroke="#000000" stroke-width="0.5" stroke-dasharray="16,0" points="122.04,384.48 474.12,384.48"/>
<polyline fill="none" stroke="#000000" stroke-width="0.5" stroke-dasharray="16,0" points="122.04,32.4 474.12,32.4"/>
<polyline fill="none" stroke="#000000" stroke-width="0.5" stroke-dasharray="16,0" points="122.04,32.4 474.12,32.4"/>
<polyline fill="none" stroke="#000000" stroke-width="0.5" stroke-dasharray="16,0" points="122.04,384.48 474.12,384.48"/>
<polyline fill="none" stroke="#000000" stroke-width="0.5" stroke-dasharray="16,0" points="122.04,384.48 122.04,32.4"/>
<polyline fill="none" stroke="#000000" stroke-width="0.5" stroke-dasharray="16,0" points="474.12,384.48 474.12,32.4"/>
<polyline fill="none" stroke="#000000" stroke-width="0.5" stroke-dasharray="16,0" points="474.12,384.48 474.12,32.4"/>
<polyline fill="none" stroke="#000000" stroke-width="0.5" stroke-dasharray="16,0" points="122.04,384.48 122.04,32.4 122.04,32.4"/>
<polyline fill="none" stroke="#000000" stroke-width="0.5" stroke-dasharray="16,0" points="474.12,32.4 474.12,32.4"/>
<polyline fill="none" stroke="#000000" stroke-width="0.5" stroke-dasharray="16,0" points="474.12,384.48 474.12,384.48"/>
<polyline fill="none" stroke="#000000" stroke-width="0.5" stroke-dasharray="16,0" points="122.04,384.48 122.04,384.48"/>
<polyline fill="none" stroke="#000000" stroke-width="0.5" stroke-dasharray="16,0" points="127.375,384.48 127.375,380.015"/>
<polyline fill="none" stroke="#000000" stroke-width="0.5" stroke-dasharray="16,0" points="127.375,32.4 127.375,36.865"/>
<polyline fill="none" stroke="#000000" stroke-width="0.5" stroke-dasharray="16,0" points="214.061,384.48 214.061,380.015"/>
<polyline fill="none" stroke="#000000" stroke-width="0.5" stroke-dasharray="16,0" points="214.061,32.4 214.061,36.865"/>
<polyline fill="none" stroke="#000000" stroke-width="0.5" stroke-dasharray="16,0" points="300.747,384.48 300.747,380.015"/>
<polyline fill="none" stroke="#000000" stroke-width="0.5" stroke-dasharray="16,0" points="300.747,32.4 300.747,36.865"/>
<polyline fill="none" stroke="#000000" stroke-width="0.5" stroke-dasharray="16,0" points="387.434,384.48 387.434,380.015"/>
<polyline fill="none" stroke="#000000" stroke-width="0.5" stroke-dasharray="16,0" points="387.434,32.4 387.434,36.865"/>
<text fill="#000000" x="127.375" y="389.481" font-size="10" text-anchor="middle" baseline-shift="-10" font-family="Helvetica">-2000</text>
<text fill="#000000" x="214.061" y="389.481" font-size="10" text-anchor="middle" baseline-shift="-10" font-family="Helvetica">-1000</text>
<text fill="#000000" x="300.747" y="389.481" font-size="10" text-anchor="middle" baseline-shift="-10" font-family="Helvetica">0</text>
<text fill="#000000" x="387.434" y="389.481" font-size="10" text-anchor="middle" baseline-shift="-10" font-family="Helvetica">1000</text>
<polyline fill="none" stroke="#000000" stroke-width="0.5" stroke-dasharray="16,0" points="122.04,37.7346 126.505,37.7346"/>
<polyline fill="none" stroke="#000000" stroke-width="0.5" stroke-dasharray="16,0" points="474.12,37.7346 469.655,37.7346"/>
<polyline fill="none" stroke="#000000" stroke-width="0.5" stroke-dasharray="16,0" points="122.04,124.421 126.505,124.421"/>
<polyline fill="none" stroke="#000000" stroke-width="0.5" stroke-dasharray="16,0" points="474.12,124.421 469.655,124.421"/>
<polyline fill="none" stroke="#000000" stroke-width="0.5" stroke-dasharray="16,0" points="122.04,211.107 126.505,211.107"/>
<polyline fill="none" stroke="#000000" stroke-width="0.5" stroke-dasharray="16,0" points="474.12,211.107 469.655,211.107"/>
<polyline fill="none" stroke="#000000" stroke-width="0.5" stroke-dasharray="16,0" points="122.04,297.794 126.505,297.794"/>
<polyline fill="none" stroke="#000000" stroke-width="0.5" stroke-dasharray="16,0" points="474.12,297.794 469.655,297.794"/>
<text fill="#000000" x="117.039" y="37.7346" font-size="10" text-anchor="end" baseline-shift="-5" font-family="Helvetica">-2000</text>
<text fill="#000000" x="117.039" y="124.421" font-size="10" text-anchor="end" baseline-shift="-5" font-family="Helvetica">-1000</text>
<text fill="#000000" x="117.039" y="211.107" font-size="10" text-anchor="end" baseline-shift="-5" font-family="Helvetica">0</text>
<text fill="#000000" x="117.039" y="297.794" font-size="10" text-anchor="end" baseline-shift="-5" font-family="Helvetica">1000</text>
</g>
</svg>
