<?xml version="1.0" encoding="UTF-8" standalone="no"?>
<svg xmlns="http://www.w3.org/2000/svg"
     xmlns:xlink="http://www.w3.org/1999/xlink"
     width="576px" height="432px" viewBox="0 0 576 432">
<title>glps_renderer figure</title>
<desc>
Creator: GL2PS 1.3.8, (C) 1999-2012 C. Geuzaine
For: Octave
CreationDate: Mon Jun 13 09:50:06 2016
</desc>
<defs>
</defs>
<g shape-rendering="crispEdges">
<polygon fill="#ffffff" points="560.523,394.676 560.523,318.833 560.523,394.676"/>
<polygon fill="#ffffff" points="560.523,318.833 560.523,318.833 560.523,394.676"/>
<polygon fill="#ffffff" points="566.211,318.833 560.523,318.833 566.211,318.833"/>
<polygon fill="#ffffff" points="560.523,318.833 560.523,318.833 566.211,318.833"/>
<polygon fill="#ffffff" points="566.211,394.676 560.523,394.676 566.211,318.833"/>
<polygon fill="#ffffff" points="560.523,394.676 560.523,318.833 566.211,318.833"/>
<polyline fill="none" stroke="#000000" stroke-width="0.5" stroke-dasharray="16,0" points="566.211,394.676 560.523,394.676"/>
<polyline fill="none" stroke="#000000" stroke-width="0.5" stroke-dasharray="16,0" points="566.211,318.833 560.523,318.833"/>
<polyline fill="none" stroke="#000000" stroke-width="0.5" stroke-dasharray="16,0" points="566.211,318.833 560.523,318.833"/>
<polyline fill="none" stroke="#000000" stroke-width="0.5" stroke-dasharray="16,0" points="566.211,394.676 560.523,394.676"/>
<polyline fill="none" stroke="#000000" stroke-width="0.5" stroke-dasharray="16,0" points="566.211,394.676 566.211,318.833"/>
<polyline fill="none" stroke="#000000" stroke-width="0.5" stroke-dasharray="16,0" points="560.523,394.676 560.523,318.833"/>
<polyline fill="none" stroke="#000000" stroke-width="0.5" stroke-dasharray="16,0" points="560.523,394.676 560.523,318.833"/>
<polyline fill="none" stroke="#000000" stroke-width="0.5" stroke-dasharray="16,0" points="566.211,394.676 566.211,318.833 566.211,318.833"/>
<polyline fill="none" stroke="#000000" stroke-width="0.5" stroke-dasharray="16,0" points="560.523,318.833 560.523,318.833"/>
<polyline fill="none" stroke="#000000" stroke-width="0.5" stroke-dasharray="16,0" points="560.523,394.676 560.523,394.676"/>
<polyline fill="none" stroke="#000000" stroke-width="0.5" stroke-dasharray="16,0" points="566.211,394.676 566.211,394.676"/>
<polyline fill="none" stroke="#000000" stroke-width="0.5" stroke-dasharray="16,0" points="566.211,381.513 565.492,381.513"/>
<polyline fill="none" stroke="#000000" stroke-width="0.5" stroke-dasharray="16,0" points="560.523,381.513 561.242,381.513"/>
<polyline fill="none" stroke="#000000" stroke-width="0.5" stroke-dasharray="16,0" points="566.211,360.491 565.492,360.491"/>
<polyline fill="none" stroke="#000000" stroke-width="0.5" stroke-dasharray="16,0" points="560.523,360.491 561.242,360.491"/>
<polyline fill="none" stroke="#000000" stroke-width="0.5" stroke-dasharray="16,0" points="566.211,339.469 565.492,339.469"/>
<polyline fill="none" stroke="#000000" stroke-width="0.5" stroke-dasharray="16,0" points="560.523,339.469 561.242,339.469"/>
<text fill="#000000" x="570.951" y="381.513" font-size="10" text-anchor="start" baseline-shift="-5" font-family="Helvetica">-10</text>
<text fill="#000000" x="570.951" y="360.491" font-size="10" text-anchor="start" baseline-shift="-5" font-family="Helvetica">-5</text>
<text fill="#000000" x="570.951" y="339.469" font-size="10" text-anchor="start" baseline-shift="-5" font-family="Helvetica">0</text>
</g>
</svg>
