<?xml version="1.0" encoding="UTF-8" standalone="no"?>
<svg
   xmlns:dc="http://purl.org/dc/elements/1.1/"
   xmlns:cc="http://creativecommons.org/ns#"
   xmlns:rdf="http://www.w3.org/1999/02/22-rdf-syntax-ns#"
   xmlns:svg="http://www.w3.org/2000/svg"
   xmlns="http://www.w3.org/2000/svg"
   xmlns:sodipodi="http://sodipodi.sourceforge.net/DTD/sodipodi-0.dtd"
   xmlns:inkscape="http://www.inkscape.org/namespaces/inkscape"
   width="576px"
   height="432px"
   viewBox="0 0 576 432"
   id="svg3151"
   version="1.1"
   inkscape:version="0.48.4 r9939"
   sodipodi:docname="coupe_vp_mono_vert.svg"
   inkscape:export-filename="/home/dinsenma/Desktop/Stage_M2/redaction/img/mono_param/coupe_vp_mono_vert.png"
   inkscape:export-xdpi="200"
   inkscape:export-ydpi="200">
  <metadata
     id="metadata3329">
    <rdf:RDF>
      <cc:Work
         rdf:about="">
        <dc:format>image/svg+xml</dc:format>
        <dc:type
           rdf:resource="http://purl.org/dc/dcmitype/StillImage" />
        <dc:title>glps_renderer figure</dc:title>
      </cc:Work>
    </rdf:RDF>
  </metadata>
  <sodipodi:namedview
     pagecolor="#ffffff"
     bordercolor="#666666"
     borderopacity="1"
     objecttolerance="10"
     gridtolerance="10"
     guidetolerance="10"
     inkscape:pageopacity="0"
     inkscape:pageshadow="2"
     inkscape:window-width="1600"
     inkscape:window-height="847"
     id="namedview3327"
     showgrid="false"
     inkscape:zoom="1.0925926"
     inkscape:cx="186.30375"
     inkscape:cy="233.93359"
     inkscape:window-x="0"
     inkscape:window-y="31"
     inkscape:window-maximized="1"
     inkscape:current-layer="svg3151" />
  <title
     id="title3153">glps_renderer figure</title>
  <desc
     id="desc3155">
Creator: GL2PS 1.3.8, (C) 1999-2012 C. Geuzaine
For: Octave
CreationDate: Thu Jun 23 11:18:57 2016
</desc>
  <defs
     id="defs3157" />
  <polygon
     style="fill:#ffffff;stroke-width:2.50000000000000000;stroke-miterlimit:4;stroke-dasharray:none"
     id="polygon3161"
     points="521.28,384.48 521.28,384.48 521.28,32.4 " />
  <polygon
     style="fill:#ffffff;stroke-width:2.50000000000000000;stroke-miterlimit:4;stroke-dasharray:none"
     id="polygon3163"
     points="521.28,384.48 521.28,32.4 521.28,32.4 " />
  <polygon
     style="fill:#ffffff;stroke-width:2.50000000000000000;stroke-miterlimit:4;stroke-dasharray:none"
     id="polygon3165"
     points="74.8799,32.4 74.8799,32.4 521.28,32.4 " />
  <polygon
     style="fill:#ffffff;stroke-width:2.50000000000000000;stroke-miterlimit:4;stroke-dasharray:none"
     id="polygon3167"
     points="74.8799,32.4 521.28,32.4 521.28,32.4 " />
  <polygon
     style="fill:#ffffff;stroke-width:2.50000000000000000;stroke-miterlimit:4;stroke-dasharray:none"
     id="polygon3169"
     points="74.8799,32.4 74.8799,384.48 521.28,384.48 " />
  <polygon
     style="fill:#ffffff;stroke-width:2.50000000000000000;stroke-miterlimit:4;stroke-dasharray:none"
     id="polygon3171"
     points="74.8799,32.4 521.28,384.48 521.28,32.4 " />
  <polyline
     style="fill:none;stroke:#000000;stroke-width:2.50000000000000000;stroke-miterlimit:4;stroke-dasharray:none"
     id="polyline3173"
     points="74.8799,384.48 521.28,384.48" />
  <polyline
     style="fill:none;stroke:#000000;stroke-width:2.50000000000000000;stroke-miterlimit:4;stroke-dasharray:none"
     id="polyline3175"
     points="74.8799,32.4 521.28,32.4" />
  <polyline
     style="fill:none;stroke:#000000;stroke-width:2.50000000000000000;stroke-miterlimit:4;stroke-dasharray:none"
     id="polyline3177"
     points="74.8799,32.4 521.28,32.4" />
  <polyline
     style="fill:none;stroke:#000000;stroke-width:2.50000000000000000;stroke-miterlimit:4;stroke-dasharray:none"
     id="polyline3179"
     points="74.8799,384.48 521.28,384.48" />
  <polyline
     style="fill:none;stroke:#000000;stroke-width:2.50000000000000000;stroke-miterlimit:4;stroke-dasharray:none"
     id="polyline3181"
     points="74.8799,384.48 74.8799,32.4" />
  <polyline
     style="fill:none;stroke:#000000;stroke-width:2.50000000000000000;stroke-miterlimit:4;stroke-dasharray:none"
     id="polyline3183"
     points="521.28,384.48 521.28,32.4" />
  <polyline
     style="fill:none;stroke:#000000;stroke-width:2.50000000000000000;stroke-miterlimit:4;stroke-dasharray:none"
     id="polyline3185"
     points="521.28,384.48 521.28,32.4" />
  <polyline
     style="fill:none;stroke:#000000;stroke-width:2.50000000000000000;stroke-miterlimit:4;stroke-dasharray:none"
     id="polyline3187"
     points="74.8799,384.48 74.8799,32.4 74.8799,32.4" />
  <polyline
     style="fill:none;stroke:#000000;stroke-width:2.50000000000000000;stroke-miterlimit:4;stroke-dasharray:none"
     id="polyline3189"
     points="521.28,32.4 521.28,32.4" />
  <polyline
     style="fill:none;stroke:#000000;stroke-width:2.50000000000000000;stroke-miterlimit:4;stroke-dasharray:none"
     id="polyline3191"
     points="521.28,384.48 521.28,384.48" />
  <polyline
     style="fill:none;stroke:#000000;stroke-width:2.50000000000000000;stroke-miterlimit:4;stroke-dasharray:none"
     id="polyline3193"
     points="74.8799,384.48 74.8799,384.48 74.8799,380.015" />
  <polyline
     style="fill:none;stroke:#000000;stroke-width:2.50000000000000000;stroke-miterlimit:4;stroke-dasharray:none"
     id="polyline3195"
     points="74.8799,32.4 74.8799,36.865" />
  <polyline
     style="fill:none;stroke:#000000;stroke-width:2.50000000000000000;stroke-miterlimit:4;stroke-dasharray:none"
     id="polyline3197"
     points="138.651,384.48 138.651,380.015" />
  <polyline
     style="fill:none;stroke:#000000;stroke-width:2.50000000000000000;stroke-miterlimit:4;stroke-dasharray:none"
     id="polyline3199"
     points="138.651,32.4 138.651,36.865" />
  <polyline
     style="fill:none;stroke:#000000;stroke-width:2.50000000000000000;stroke-miterlimit:4;stroke-dasharray:none"
     id="polyline3201"
     points="202.423,384.48 202.423,380.015" />
  <polyline
     style="fill:none;stroke:#000000;stroke-width:2.50000000000000000;stroke-miterlimit:4;stroke-dasharray:none"
     id="polyline3203"
     points="202.423,32.4 202.423,36.865" />
  <polyline
     style="fill:none;stroke:#000000;stroke-width:2.50000000000000000;stroke-miterlimit:4;stroke-dasharray:none"
     id="polyline3205"
     points="266.194,384.48 266.194,380.015" />
  <polyline
     style="fill:none;stroke:#000000;stroke-width:2.50000000000000000;stroke-miterlimit:4;stroke-dasharray:none"
     id="polyline3207"
     points="266.194,32.4 266.194,36.865" />
  <polyline
     style="fill:none;stroke:#000000;stroke-width:2.50000000000000000;stroke-miterlimit:4;stroke-dasharray:none"
     id="polyline3209"
     points="329.966,384.48 329.966,380.015" />
  <polyline
     style="fill:none;stroke:#000000;stroke-width:2.50000000000000000;stroke-miterlimit:4;stroke-dasharray:none"
     id="polyline3211"
     points="329.966,32.4 329.966,36.865" />
  <polyline
     style="fill:none;stroke:#000000;stroke-width:2.50000000000000000;stroke-miterlimit:4;stroke-dasharray:none"
     id="polyline3213"
     points="393.737,384.48 393.737,380.015" />
  <polyline
     style="fill:none;stroke:#000000;stroke-width:2.50000000000000000;stroke-miterlimit:4;stroke-dasharray:none"
     id="polyline3215"
     points="393.737,32.4 393.737,36.865" />
  <polyline
     style="fill:none;stroke:#000000;stroke-width:2.50000000000000000;stroke-miterlimit:4;stroke-dasharray:none"
     id="polyline3217"
     points="457.508,384.48 457.508,380.015" />
  <polyline
     style="fill:none;stroke:#000000;stroke-width:2.50000000000000000;stroke-miterlimit:4;stroke-dasharray:none"
     id="polyline3219"
     points="457.508,32.4 457.508,36.865" />
  <polyline
     style="fill:none;stroke:#000000;stroke-width:2.50000000000000000;stroke-miterlimit:4;stroke-dasharray:none"
     id="polyline3221"
     points="521.28,384.48 521.28,380.015" />
  <polyline
     style="fill:none;stroke:#000000;stroke-width:2.50000000000000000;stroke-miterlimit:4;stroke-dasharray:none"
     id="polyline3223"
     points="521.28,32.4 521.28,36.865" />
  <g
     id="g4182"
     transform="translate(0,5.8246423)">
    <text
       x="74.879997"
       y="389.48099"
       font-size="10"
       baseline-shift="-10"
       id="text3225"
       style="font-size:20px;text-anchor:middle;baseline-shift:-10px;fill:#000000;stroke-width:2.5;stroke-miterlimit:4;stroke-dasharray:none;font-family:Helvetica">4800</text>
    <text
       x="138.651"
       y="389.48099"
       font-size="10"
       baseline-shift="-10"
       id="text3227"
       style="font-size:20px;text-anchor:middle;baseline-shift:-10px;fill:#000000;stroke-width:2.5;stroke-miterlimit:4;stroke-dasharray:none;font-family:Helvetica">5000</text>
    <text
       x="202.423"
       y="389.48099"
       font-size="10"
       baseline-shift="-10"
       id="text3229"
       style="font-size:20px;text-anchor:middle;baseline-shift:-10px;fill:#000000;stroke-width:2.5;stroke-miterlimit:4;stroke-dasharray:none;font-family:Helvetica">5200</text>
    <text
       x="266.194"
       y="389.48099"
       font-size="10"
       baseline-shift="-10"
       id="text3231"
       style="font-size:20px;text-anchor:middle;baseline-shift:-10px;fill:#000000;stroke-width:2.5;stroke-miterlimit:4;stroke-dasharray:none;font-family:Helvetica">5400</text>
    <text
       x="329.966"
       y="389.48099"
       font-size="10"
       baseline-shift="-10"
       id="text3233"
       style="font-size:20px;text-anchor:middle;baseline-shift:-10px;fill:#000000;stroke-width:2.5;stroke-miterlimit:4;stroke-dasharray:none;font-family:Helvetica">5600</text>
    <text
       x="393.737"
       y="389.48099"
       font-size="10"
       baseline-shift="-10"
       id="text3235"
       style="font-size:20px;text-anchor:middle;baseline-shift:-10px;fill:#000000;stroke-width:2.5;stroke-miterlimit:4;stroke-dasharray:none;font-family:Helvetica">5800</text>
    <text
       x="457.508"
       y="389.48099"
       font-size="10"
       baseline-shift="-10"
       id="text3237"
       style="font-size:20px;text-anchor:middle;baseline-shift:-10px;fill:#000000;stroke-width:2.5;stroke-miterlimit:4;stroke-dasharray:none;font-family:Helvetica">6000</text>
    <text
       x="521.28003"
       y="389.48099"
       font-size="10"
       baseline-shift="-10"
       id="text3239"
       style="font-size:20px;text-anchor:middle;baseline-shift:-10px;fill:#000000;stroke-width:2.5;stroke-miterlimit:4;stroke-dasharray:none;font-family:Helvetica">6200</text>
  </g>
  <polyline
     style="fill:none;stroke:#000000;stroke-width:2.50000000000000000;stroke-miterlimit:4;stroke-dasharray:none"
     id="polyline3241"
     points="74.8799,384.48 79.3479,384.48" />
  <polyline
     style="fill:none;stroke:#000000;stroke-width:2.50000000000000000;stroke-miterlimit:4;stroke-dasharray:none"
     id="polyline3243"
     points="521.28,384.48 516.812,384.48" />
  <polyline
     style="fill:none;stroke:#000000;stroke-width:2.50000000000000000;stroke-miterlimit:4;stroke-dasharray:none"
     id="polyline3245"
     points="74.8799,314.064 79.3479,314.064" />
  <polyline
     style="fill:none;stroke:#000000;stroke-width:2.50000000000000000;stroke-miterlimit:4;stroke-dasharray:none"
     id="polyline3247"
     points="521.28,314.064 516.812,314.064" />
  <polyline
     style="fill:none;stroke:#000000;stroke-width:2.50000000000000000;stroke-miterlimit:4;stroke-dasharray:none"
     id="polyline3249"
     points="74.8799,243.648 79.3479,243.648" />
  <polyline
     style="fill:none;stroke:#000000;stroke-width:2.50000000000000000;stroke-miterlimit:4;stroke-dasharray:none"
     id="polyline3251"
     points="521.28,243.648 516.812,243.648" />
  <polyline
     style="fill:none;stroke:#000000;stroke-width:2.50000000000000000;stroke-miterlimit:4;stroke-dasharray:none"
     id="polyline3253"
     points="74.8799,173.232 79.3479,173.232" />
  <polyline
     style="fill:none;stroke:#000000;stroke-width:2.50000000000000000;stroke-miterlimit:4;stroke-dasharray:none"
     id="polyline3255"
     points="521.28,173.232 516.812,173.232" />
  <polyline
     style="fill:none;stroke:#000000;stroke-width:2.50000000000000000;stroke-miterlimit:4;stroke-dasharray:none"
     id="polyline3257"
     points="74.8799,102.816 79.3479,102.816" />
  <polyline
     style="fill:none;stroke:#000000;stroke-width:2.50000000000000000;stroke-miterlimit:4;stroke-dasharray:none"
     id="polyline3259"
     points="521.28,102.816 516.812,102.816" />
  <polyline
     style="fill:none;stroke:#000000;stroke-width:2.50000000000000000;stroke-miterlimit:4;stroke-dasharray:none"
     id="polyline3261"
     points="74.8799,32.4 79.3479,32.4" />
  <polyline
     style="fill:none;stroke:#000000;stroke-width:2.50000000000000000;stroke-miterlimit:4;stroke-dasharray:none"
     id="polyline3263"
     points="521.28,32.4 516.812,32.4" />
  <text
     style="font-size:20px;text-anchor:end;baseline-shift:-5px;fill:#000000;stroke-width:2.5;stroke-miterlimit:4;stroke-dasharray:none;font-family:Helvetica"
     id="text3265"
     baseline-shift="-5"
     font-size="10"
     y="384.48001"
     x="69.875504">50</text>
  <text
     style="font-size:20px;text-anchor:end;baseline-shift:-5px;fill:#000000;stroke-width:2.5;stroke-miterlimit:4;stroke-dasharray:none;font-family:Helvetica"
     id="text3267"
     baseline-shift="-5"
     font-size="10"
     y="314.064"
     x="69.875504">40</text>
  <text
     style="font-size:20px;text-anchor:end;baseline-shift:-5px;fill:#000000;stroke-width:2.5;stroke-miterlimit:4;stroke-dasharray:none;font-family:Helvetica"
     id="text3269"
     baseline-shift="-5"
     font-size="10"
     y="243.64799"
     x="69.875504">30</text>
  <text
     style="font-size:20px;text-anchor:end;baseline-shift:-5px;fill:#000000;stroke-width:2.5;stroke-miterlimit:4;stroke-dasharray:none;font-family:Helvetica"
     id="text3271"
     baseline-shift="-5"
     font-size="10"
     y="173.23199"
     x="69.875504">20</text>
  <text
     style="font-size:20px;text-anchor:end;baseline-shift:-5px;fill:#000000;stroke-width:2.5;stroke-miterlimit:4;stroke-dasharray:none;font-family:Helvetica"
     id="text3273"
     baseline-shift="-5"
     font-size="10"
     y="102.816"
     x="69.875504">10</text>
  <text
     style="font-size:20px;text-anchor:end;baseline-shift:-5px;fill:#000000;stroke-width:2.50000000000000000;stroke-miterlimit:4;stroke-dasharray:none;font-family:Helvetica"
     id="text3275"
     baseline-shift="-5"
     font-size="10"
     y="32.400002"
     x="69.875504">0</text>
  <text
     style="font-size:20px;text-anchor:middle;baseline-shift:-10px;fill:#000000;stroke-width:2.5;stroke-miterlimit:4;stroke-dasharray:none;font-family:Helvetica"
     id="text3277"
     baseline-shift="-10"
     font-size="10"
     y="32.860764"
     x="-206.63954"
     transform="matrix(0,-1,1,0,0,0)">mm</text>
  <text
     style="font-size:20px;text-anchor:middle;baseline-shift:0px;fill:#000000;stroke-width:2.5;stroke-miterlimit:4;stroke-dasharray:none;font-family:Helvetica"
     id="text3279"
     baseline-shift="0"
     font-size="10"
     y="428.89426"
     x="300.08194">Vitesse en m/s</text>
  <polyline
     style="fill:none;stroke:#0000ff;stroke-width:2.50000000000000000;stroke-miterlimit:4;stroke-dasharray:none"
     id="polyline3281"
     points="326.413,32.4 326.745,34.1604 311.338,35.9208 281.96,37.6812 277.7,39.4416 299.271,41.202 311.567,42.9624 304.888,44.7228 297.886,46.4832 301.227,48.2436 308.396,50.004 310.941,51.7644 308.507,53.5248 305.217,55.2852 303.721,57.0456 303.737,58.806 303.998,60.5664 303.53,62.3268 301.587,64.0872 298.578,65.8476 296.725,67.608 297.157,69.3684 297.526,71.1288 296.293,72.8892 295.031,74.6496 296.157,76.41 299.602,78.1704 302.568,79.9308 302.448,81.6912 299.603,83.4516 297.05,85.212 296.748,86.9724 297.425,88.7328 297.062,90.4932 295.787,92.2536 294.861,94.014 294.492,95.7744 294.27,97.5348 294.282,99.2952 294.739,101.056 295.618,102.816 297.025,104.576 298.853,106.337 300.475,108.097 301.447,109.858 302.26,111.618 303.426,113.378 304.702,115.139 305.462,116.899 305.665,118.66 305.615,120.42 305.338,122.18 304.628,123.941 303.259,125.701 301.543,127.462 299.898,129.222 298.438,130.982 296.806,132.743 295.102,134.503 293.785,136.264 293.095,138.024 293.027,139.784 293.281,141.545 293.863,143.305 295.006,145.066 296.788,146.826 299.104,148.586 301.786,150.347 304.676,152.107 307.583,153.868 310.221,155.628 312.304,157.388 313.856,159.149 314.946,160.909 315.625,162.67 315.85,164.43 315.694,166.19 315.203,167.951 314.327,169.711 313.156,171.472 312.055,173.232 311.629,174.992 312.148,176.753 313.477,178.513 314.881,180.274 315.909,182.034 316.11,183.794 315.065,185.555 312.24,187.315 307.316,189.076 300.597,190.836 292.369,192.596 282.847,194.357 272.636,196.117 262.373,197.878 253.152,199.638 245.966,201.398 241.61,203.159 240.644,204.919 243.304,206.68 249.285,208.44 258.271,210.2 270.034,211.961 283.679,213.721 296.497,215.482 304.263,217.242 304.128,219.002 298.558,220.763 292.99,222.523 285.769,224.284 263.831,226.044 224.209,227.804 212.192,229.565 290.312,231.325 428.044,233.086 495.185,234.846 322.764,236.606 74.8799,238.367 74.8799,240.127 74.8799,241.888 74.8799,243.648 74.8799,245.408 74.8799,247.169 436.328,248.929 521.28,250.69 494.087,252.45 348.345,254.21 226.854,255.971 238.266,257.731 294.269,259.492 310.288,261.252 295.931,263.012 284.109,264.773 281.364,266.533 278.081,268.294 268.277,270.054 253,271.814 237.422,273.575 226.143,275.335 220.729,277.096 219.745,278.856 221.792,280.616 226.986,282.377 236.39,284.137 249.17,285.898 262.81,287.658 275.509,289.418 287.59,291.179 298.345,292.939 305.206,294.7 307.802,296.46 308.17,298.22 307.107,299.981 304.112,301.741 300.265,303.502 297.104,305.262 295.039,307.022 293.709,308.783 292.971,310.543 292.798,312.304 293.4,314.064 295.544,315.824 299.651,317.585 304.9,319.345 309.487,321.106 312.59,322.866 314.989,324.626 317.589,326.387 319.892,328.147 320.85,329.908 320.372,331.668 318.955,333.428 317.055,335.189 314.806,336.949 312.05,338.71 308.204,340.47 303.383,342.23 299.172,343.991 297.096,345.751 296.883,347.512 296.036,349.272 293.293,351.032 291.204,352.793 291.422,354.553 292.59,356.314 291.483,358.074 287.647,359.834 285.436,361.595 288.677,363.355 293.815,365.116 293.286,366.876 286.458,368.636 282.971,370.397 290.014,372.157 299.634,373.918 300.258,375.678 296.173,377.438 298.185,379.199 300.118,380.959 302.323,382.72" />
  <polyline
     style="fill:none;stroke:#ff0000;stroke-width:2.50000000000000000;stroke-miterlimit:4;stroke-dasharray:none"
     id="polyline3283"
     points="298.08,32.4 298.08,34.1604 298.08,35.9208 298.08,37.6812 298.08,39.4416 298.08,41.202 298.08,42.9624 298.08,44.7228 298.08,46.4832 298.08,48.2436 298.08,50.004 298.08,51.7644 298.08,53.5248 298.08,55.2852 298.08,57.0456 298.08,58.806 298.08,60.5664 298.08,62.3268 298.08,64.0872 298.08,65.8476 298.08,67.608 298.08,69.3684 298.08,71.1288 298.08,72.8892 298.08,74.6496 298.08,76.41 298.08,78.1704 298.08,79.9308 298.08,81.6912 298.08,83.4516 298.08,85.212 298.08,86.9724 298.08,88.7328 298.08,90.4932 298.08,92.2536 298.08,94.014 298.08,95.7744 298.08,97.5348 298.08,99.2952 298.08,101.056 298.08,102.816 298.08,104.576 298.08,106.337 298.08,108.097 298.08,109.858 298.08,111.618 298.08,113.378 298.08,115.139 298.08,116.899 298.08,118.66 298.08,120.42 298.08,122.18 298.08,123.941 298.08,125.701 298.08,127.462 298.08,129.222 298.08,130.982 298.08,132.743 298.08,134.503 298.08,136.264 298.08,138.024 298.08,139.784 298.08,141.545 298.08,143.305 298.08,145.066 298.08,146.826 298.08,148.586 298.08,150.347 298.08,152.107 298.08,153.868 298.08,155.628 298.08,157.388 298.08,159.149 298.08,160.909 298.08,162.67 298.08,164.43 298.08,166.19 298.08,167.951 298.08,169.711 298.08,171.472 298.08,173.232 298.08,174.992 298.08,176.753 298.08,178.513 298.08,180.274 298.08,182.034 298.08,183.794 298.08,185.555 298.08,187.315 298.08,189.076 298.08,190.836 298.08,192.596 298.08,194.357 298.08,196.117 298.08,197.878 298.08,199.638 298.08,201.398 298.08,203.159 298.08,204.919 298.08,206.68 298.08,208.44 298.08,210.2 298.08,211.961 298.08,213.721 298.08,215.482 298.08,217.242 298.08,219.002 298.08,220.763 298.08,222.523 298.08,224.284 298.08,226.044 298.08,227.804 298.08,229.565 298.08,231.325 298.08,233.086 298.08,234.846 138.651,236.606 138.651,238.367 138.651,240.127 138.651,241.888 138.651,243.648 138.651,245.408 138.651,247.169 298.08,248.929 298.08,250.69 298.08,252.45 298.08,254.21 298.08,255.971 298.08,257.731 298.08,259.492 298.08,261.252 298.08,263.012 298.08,264.773 298.08,266.533 298.08,268.294 298.08,270.054 298.08,271.814 298.08,273.575 298.08,275.335 298.08,277.096 298.08,278.856 298.08,280.616 298.08,282.377 298.08,284.137 298.08,285.898 298.08,287.658 298.08,289.418 298.08,291.179 298.08,292.939 298.08,294.7 298.08,296.46 298.08,298.22 298.08,299.981 298.08,301.741 298.08,303.502 298.08,305.262 298.08,307.022 298.08,308.783 298.08,310.543 298.08,312.304 298.08,314.064 298.08,315.824 298.08,317.585 298.08,319.345 298.08,321.106 298.08,322.866 298.08,324.626 298.08,326.387 298.08,328.147 298.08,329.908 298.08,331.668 298.08,333.428 298.08,335.189 298.08,336.949 298.08,338.71 298.08,340.47 298.08,342.23 298.08,343.991 298.08,345.751 298.08,347.512 298.08,349.272 298.08,351.032 298.08,352.793 298.08,354.553 298.08,356.314 298.08,358.074 298.08,359.834 298.08,361.595 298.08,363.355 298.08,365.116 298.08,366.876 298.08,368.636 298.08,370.397 298.08,372.157 298.08,373.918 298.08,375.678 298.08,377.438 298.08,379.199 298.08,380.959 298.08,382.72" />
  <polygon
     style="fill:#ffffff;stroke-width:2.50000000000000000;stroke-miterlimit:4;stroke-dasharray:none"
     id="polygon3285"
     points="518.535,67.3768 518.535,67.3768 518.535,35.1447 " />
  <polygon
     style="fill:#ffffff;stroke-width:2.50000000000000000;stroke-miterlimit:4;stroke-dasharray:none"
     id="polygon3287"
     points="518.535,67.3768 518.535,35.1447 518.535,35.1447 " />
  <polygon
     style="fill:#ffffff;stroke-width:2.50000000000000000;stroke-miterlimit:4;stroke-dasharray:none"
     id="polygon3289"
     points="426.974,35.1447 426.974,35.1447 518.535,35.1447 " />
  <polygon
     style="fill:#ffffff;stroke-width:2.50000000000000000;stroke-miterlimit:4;stroke-dasharray:none"
     id="polygon3291"
     points="426.974,35.1447 518.535,35.1447 518.535,35.1447 " />
  <polygon
     style="fill:#ffffff;stroke-width:2.50000000000000000;stroke-miterlimit:4;stroke-dasharray:none"
     id="polygon3293"
     points="426.974,35.1447 426.974,67.3768 518.535,67.3768 " />
  <polygon
     style="fill:#ffffff;stroke-width:2.50000000000000000;stroke-miterlimit:4;stroke-dasharray:none"
     id="polygon3295"
     points="426.974,35.1447 518.535,67.3768 518.535,35.1447 " />
  <polyline
     style="fill:none;stroke:#000000;stroke-width:2.50000000000000000;stroke-miterlimit:4;stroke-dasharray:none"
     id="polyline3313"
     points="518.535,35.1447 518.535,35.1447" />
  <polyline
     style="fill:none;stroke:#000000;stroke-width:2.50000000000000000;stroke-miterlimit:4;stroke-dasharray:none"
     id="polyline3315"
     points="518.535,67.3768 518.535,67.3768" />
  <polyline
     style="fill:none;stroke:#000000;stroke-width:2.50000000000000000;stroke-miterlimit:4;stroke-dasharray:none"
     id="polyline3317"
     points="426.974,67.3768 426.974,67.3768" />
  <text
     style="font-size:20px;text-anchor:start;baseline-shift:-5px;fill:#000000;stroke-width:2.50000000000000000;stroke-miterlimit:4;stroke-dasharray:none;font-family:Helvetica"
     id="text3319"
     baseline-shift="-5"
     font-size="10"
     y="56.931515"
     x="119.89546">Reconstruite</text>
  <text
     style="font-size:20px;text-anchor:start;baseline-shift:-5px;fill:#000000;stroke-width:2.50000000000000000;stroke-miterlimit:4;stroke-dasharray:none;font-family:Helvetica"
     id="text3321"
     baseline-shift="-5"
     font-size="10"
     y="73.047615"
     x="119.89546">Vraie</text>
  <polyline
     style="fill:none;stroke:#0000ff;stroke-width:2.50000000000000000;stroke-miterlimit:4;stroke-dasharray:none"
     id="polyline3323"
     points="429.718,43.2027 450.303,43.2027"
     transform="translate(-333.15254,13.728814)" />
  <polyline
     style="fill:none;stroke:#ff0000;stroke-width:2.50000000000000000;stroke-miterlimit:4;stroke-dasharray:none"
     id="polyline3325"
     points="429.718,59.3188 450.303,59.3188"
     transform="translate(-333.15254,13.728814)" />
</svg>
