<?xml version="1.0" encoding="UTF-8" standalone="no"?>
<svg xmlns="http://www.w3.org/2000/svg"
     xmlns:xlink="http://www.w3.org/1999/xlink"
     width="576px" height="432px" viewBox="0 0 576 432">
<title>glps_renderer figure</title>
<desc>
Creator: GL2PS 1.3.8, (C) 1999-2012 C. Geuzaine
For: Octave
CreationDate: Tue Jul 19 16:43:27 2016
</desc>
<defs>
</defs>
<g shape-rendering="crispEdges">
<polygon fill="#ffffff" points="521.28,384.48 521.28,32.4 521.28,384.48"/>
<polygon fill="#ffffff" points="521.28,32.4 521.28,32.4 521.28,384.48"/>
<polygon fill="#ffffff" points="74.88,32.4 521.28,32.4 74.88,32.4"/>
<polygon fill="#ffffff" points="521.28,32.4 521.28,32.4 74.88,32.4"/>
<polygon fill="#ffffff" points="74.88,384.48 521.28,384.48 74.88,32.4"/>
<polygon fill="#ffffff" points="521.28,384.48 521.28,32.4 74.88,32.4"/>
<polyline fill="none" stroke="#000000" stroke-width="0.5" stroke-dasharray="16,0" points="74.88,384.48 521.28,384.48"/>
<polyline fill="none" stroke="#000000" stroke-width="0.5" stroke-dasharray="16,0" points="74.88,32.4 521.28,32.4"/>
<polyline fill="none" stroke="#000000" stroke-width="0.5" stroke-dasharray="16,0" points="74.88,32.4 521.28,32.4"/>
<polyline fill="none" stroke="#000000" stroke-width="0.5" stroke-dasharray="16,0" points="74.88,384.48 521.28,384.48"/>
<polyline fill="none" stroke="#000000" stroke-width="0.5" stroke-dasharray="16,0" points="74.88,384.48 74.88,32.4"/>
<polyline fill="none" stroke="#000000" stroke-width="0.5" stroke-dasharray="16,0" points="521.28,384.48 521.28,32.4"/>
<polyline fill="none" stroke="#000000" stroke-width="0.5" stroke-dasharray="16,0" points="521.28,384.48 521.28,32.4"/>
<polyline fill="none" stroke="#000000" stroke-width="0.5" stroke-dasharray="16,0" points="74.88,384.48 74.88,32.4 74.88,32.4"/>
<polyline fill="none" stroke="#000000" stroke-width="0.5" stroke-dasharray="16,0" points="521.28,32.4 521.28,32.4"/>
<polyline fill="none" stroke="#000000" stroke-width="0.5" stroke-dasharray="16,0" points="521.28,384.48 521.28,384.48"/>
<polyline fill="none" stroke="#000000" stroke-width="0.5" stroke-dasharray="16,0" points="74.88,384.48 74.88,384.48 74.88,380.015"/>
<polyline fill="none" stroke="#000000" stroke-width="0.5" stroke-dasharray="16,0" points="74.88,32.4 74.88,36.8651"/>
<polyline fill="none" stroke="#000000" stroke-width="0.5" stroke-dasharray="16,0" points="164.16,384.48 164.16,380.015"/>
<polyline fill="none" stroke="#000000" stroke-width="0.5" stroke-dasharray="16,0" points="164.16,32.4 164.16,36.8651"/>
<polyline fill="none" stroke="#000000" stroke-width="0.5" stroke-dasharray="16,0" points="253.44,384.48 253.44,380.015"/>
<polyline fill="none" stroke="#000000" stroke-width="0.5" stroke-dasharray="16,0" points="253.44,32.4 253.44,36.8651"/>
<polyline fill="none" stroke="#000000" stroke-width="0.5" stroke-dasharray="16,0" points="342.72,384.48 342.72,380.015"/>
<polyline fill="none" stroke="#000000" stroke-width="0.5" stroke-dasharray="16,0" points="342.72,32.4 342.72,36.8651"/>
<polyline fill="none" stroke="#000000" stroke-width="0.5" stroke-dasharray="16,0" points="432,384.48 432,380.015"/>
<polyline fill="none" stroke="#000000" stroke-width="0.5" stroke-dasharray="16,0" points="432,32.4 432,36.8651"/>
<polyline fill="none" stroke="#000000" stroke-width="0.5" stroke-dasharray="16,0" points="521.28,384.48 521.28,380.015"/>
<polyline fill="none" stroke="#000000" stroke-width="0.5" stroke-dasharray="16,0" points="521.28,32.4 521.28,36.8651"/>
<text fill="#000000" x="74.88" y="389.481" font-size="10" text-anchor="middle" baseline-shift="-10" font-family="Helvetica">0</text>
<text fill="#000000" x="164.16" y="389.481" font-size="10" text-anchor="middle" baseline-shift="-10" font-family="Helvetica">20</text>
<text fill="#000000" x="253.44" y="389.481" font-size="10" text-anchor="middle" baseline-shift="-10" font-family="Helvetica">40</text>
<text fill="#000000" x="342.72" y="389.481" font-size="10" text-anchor="middle" baseline-shift="-10" font-family="Helvetica">60</text>
<text fill="#000000" x="432" y="389.481" font-size="10" text-anchor="middle" baseline-shift="-10" font-family="Helvetica">80</text>
<text fill="#000000" x="521.28" y="389.481" font-size="10" text-anchor="middle" baseline-shift="-10" font-family="Helvetica">100</text>
<polyline fill="none" stroke="#000000" stroke-width="0.5" stroke-dasharray="16,0" points="74.88,384.48 79.348,384.48"/>
<polyline fill="none" stroke="#000000" stroke-width="0.5" stroke-dasharray="16,0" points="521.28,384.48 516.812,384.48"/>
<polyline fill="none" stroke="#000000" stroke-width="0.5" stroke-dasharray="16,0" points="74.88,325.8 79.348,325.8"/>
<polyline fill="none" stroke="#000000" stroke-width="0.5" stroke-dasharray="16,0" points="521.28,325.8 516.812,325.8"/>
<polyline fill="none" stroke="#000000" stroke-width="0.5" stroke-dasharray="16,0" points="74.88,267.12 79.348,267.12"/>
<polyline fill="none" stroke="#000000" stroke-width="0.5" stroke-dasharray="16,0" points="521.28,267.12 516.812,267.12"/>
<polyline fill="none" stroke="#000000" stroke-width="0.5" stroke-dasharray="16,0" points="74.88,208.44 79.348,208.44"/>
<polyline fill="none" stroke="#000000" stroke-width="0.5" stroke-dasharray="16,0" points="521.28,208.44 516.812,208.44"/>
<polyline fill="none" stroke="#000000" stroke-width="0.5" stroke-dasharray="16,0" points="74.88,149.76 79.348,149.76"/>
<polyline fill="none" stroke="#000000" stroke-width="0.5" stroke-dasharray="16,0" points="521.28,149.76 516.812,149.76"/>
<polyline fill="none" stroke="#000000" stroke-width="0.5" stroke-dasharray="16,0" points="74.88,91.08 79.348,91.08"/>
<polyline fill="none" stroke="#000000" stroke-width="0.5" stroke-dasharray="16,0" points="521.28,91.08 516.812,91.08"/>
<polyline fill="none" stroke="#000000" stroke-width="0.5" stroke-dasharray="16,0" points="74.88,32.4 79.348,32.4"/>
<polyline fill="none" stroke="#000000" stroke-width="0.5" stroke-dasharray="16,0" points="521.28,32.4 516.812,32.4"/>
<text fill="#000000" x="69.8755" y="384.48" font-size="10" text-anchor="end" baseline-shift="-5" font-family="Helvetica">3000</text>
<text fill="#000000" x="69.8755" y="325.8" font-size="10" text-anchor="end" baseline-shift="-5" font-family="Helvetica">4000</text>
<text fill="#000000" x="69.8755" y="267.12" font-size="10" text-anchor="end" baseline-shift="-5" font-family="Helvetica">5000</text>
<text fill="#000000" x="69.8755" y="208.44" font-size="10" text-anchor="end" baseline-shift="-5" font-family="Helvetica">6000</text>
<text fill="#000000" x="69.8755" y="149.76" font-size="10" text-anchor="end" baseline-shift="-5" font-family="Helvetica">7000</text>
<text fill="#000000" x="69.8755" y="91.08" font-size="10" text-anchor="end" baseline-shift="-5" font-family="Helvetica">8000</text>
<text fill="#000000" x="69.8755" y="32.4" font-size="10" text-anchor="end" baseline-shift="-5" font-family="Helvetica">9000</text>
<text fill="#000000" x="298.08" y="402.481" font-size="10" text-anchor="middle" baseline-shift="-10" font-family="Helvetica">mm</text>
<text fill="#000000" x="41.8755" y="208.44" font-size="10" transform="rotate(-90, 41.8755, 208.44)" text-anchor="middle" baseline-shift="0" font-family="Helvetica">Vitesse en m/s</text>
<polyline fill="none" stroke="#0000ff" stroke-width="0.5" points="74.88,91.08 75.996,91.08 77.112,91.08 78.228,91.08 79.344,91.08 80.46,91.08 81.576,91.08 82.692,91.08 83.808,91.08 84.924,91.08 86.04,91.08 87.156,91.08 88.272,91.08 89.388,91.08 90.504,91.08 91.62,91.08 92.736,91.08 93.852,91.08 94.968,91.08 96.084,91.08 97.2,91.08 98.316,91.08 99.432,91.08 100.548,91.08 101.664,91.08 102.78,91.08 103.896,91.08 105.012,91.08 106.128,91.08 107.244,91.08 108.36,91.08 109.476,91.08 110.592,91.08 111.708,91.08 112.824,91.08 113.94,91.08 115.056,91.08 116.172,91.08 117.288,91.08 118.404,91.08 119.52,91.08 120.636,91.08 121.752,91.08 122.868,91.08 123.984,91.08 125.1,91.08 126.216,91.08 127.332,91.08 128.448,91.08 129.564,91.08 130.68,91.08 131.796,91.08 132.912,91.08 134.028,91.08 135.144,91.08 136.26,91.08 137.376,91.08 138.492,91.08 139.608,91.08 140.724,91.08 141.84,91.08 142.956,91.08 144.072,91.08 145.188,91.08 146.304,91.08 147.42,91.08 148.536,91.08 149.652,91.08 150.768,91.08 151.884,91.08 153,91.08 154.116,91.08 155.232,91.08 156.348,91.08 157.464,91.08 158.58,91.08 159.696,91.08 160.812,91.08 161.928,91.08 163.044,91.08 164.16,91.08 165.276,91.08 166.392,91.08 167.508,91.08 168.624,91.08 169.74,91.08 170.856,91.08 171.972,91.08 173.088,91.08 174.204,91.08 175.32,91.08 176.436,91.08 177.552,91.08 178.668,91.08 179.784,91.08 180.9,91.08 182.016,91.08 183.132,91.08 184.248,91.08 185.364,91.08 186.48,91.08 187.596,91.08 188.712,91.08 189.828,91.08 190.944,91.08 192.06,91.08 193.176,91.08 194.292,91.08 195.408,91.08 196.524,91.08 197.64,91.08 198.756,91.08 199.872,91.08 200.988,91.08 202.104,91.08 203.22,91.08 204.336,91.08 205.452,91.08 206.568,91.08 207.684,91.08 208.8,91.08 209.916,91.08 211.032,91.08 212.148,91.08 213.264,91.08 214.38,91.08 215.496,91.08 216.612,91.08 217.728,91.08 218.844,91.08 219.96,91.08 221.076,91.08 222.192,91.08 223.308,91.08 224.424,91.08 225.54,91.08 226.656,91.08 227.772,91.08 228.888,91.08 230.004,91.08 231.12,91.08 232.236,91.08 233.352,91.08 234.468,91.08 235.584,91.08 236.7,91.08 237.816,91.08 238.932,91.08 240.048,91.08 241.164,91.08 242.28,91.08 243.396,91.08 244.512,91.08 245.628,91.08 246.744,91.08 247.86,91.08 248.976,384.48 250.092,91.08 251.208,91.08 252.324,91.08 253.44,91.08 254.556,91.08 255.672,91.08 256.788,91.08 257.904,91.08 259.02,91.08 260.136,91.08 261.252,91.08 262.368,91.08 263.484,91.08 264.6,91.08 265.716,91.08 266.832,91.08 267.948,91.08 269.064,91.08 270.18,91.08 271.296,91.08 272.412,91.08 273.528,91.08 274.644,91.08 275.76,91.08 276.876,91.08 277.992,91.08 279.108,91.08 280.224,91.08 281.34,91.08 282.456,91.08 283.572,91.08 284.688,91.08 285.804,91.08 286.92,91.08 288.036,91.08 289.152,91.08 290.268,91.08 291.384,91.08 292.5,91.08 293.616,384.48 294.732,384.48 295.848,384.48 296.964,384.48 298.08,384.48 299.196,384.48 300.312,384.48 301.428,91.08 302.544,91.08 303.66,91.08 304.776,91.08 305.892,91.08 307.008,91.08 308.124,91.08 309.24,91.08 310.356,91.08 311.472,91.08 312.588,91.08 313.704,91.08 314.82,91.08 315.936,91.08 317.052,91.08 318.168,91.08 319.284,91.08 320.4,91.08 321.516,91.08 322.632,91.08 323.748,91.08 324.864,91.08 325.98,91.08 327.096,91.08 328.212,91.08 329.328,91.08 330.444,91.08 331.56,91.08 332.676,91.08 333.792,91.08 334.908,91.08 336.024,91.08 337.14,91.08 338.256,91.08 339.372,91.08 340.488,91.08 341.604,91.08 342.72,91.08 343.836,91.08 344.952,91.08 346.068,91.08 347.184,91.08 348.3,91.08 349.416,91.08 350.532,91.08 351.648,91.08 352.764,91.08 353.88,91.08 354.996,91.08 356.112,91.08 357.228,91.08 358.344,91.08 359.46,91.08 360.576,91.08 361.692,91.08 362.808,91.08 363.924,91.08 365.04,91.08 366.156,91.08 367.272,91.08 368.388,91.08 369.504,91.08 370.62,91.08 371.736,91.08 372.852,91.08 373.968,91.08 375.084,91.08 376.2,91.08 377.316,91.08 378.432,91.08 379.548,91.08 380.664,91.08 381.78,91.08 382.896,91.08 384.012,91.08 385.128,91.08 386.244,91.08 387.36,91.08 388.476,91.08 389.592,91.08 390.708,91.08 391.824,91.08 392.94,91.08 394.056,91.08 395.172,91.08 396.288,91.08 397.404,91.08 398.52,91.08 399.636,91.08 400.752,91.08 401.868,91.08 402.984,91.08 404.1,91.08 405.216,91.08 406.332,91.08 407.448,91.08 408.564,91.08 409.68,91.08 410.796,91.08 411.912,91.08 413.028,91.08 414.144,91.08 415.26,91.08 416.376,91.08 417.492,91.08 418.608,91.08 419.724,91.08 420.84,91.08 421.956,91.08 423.072,91.08 424.188,91.08 425.304,91.08 426.42,91.08 427.536,91.08 428.652,91.08 429.768,91.08 430.884,91.08 432,91.08 433.116,91.08 434.232,91.08 435.348,91.08 436.464,91.08 437.58,91.08 438.696,91.08 439.812,91.08 440.928,91.08 442.044,91.08 443.16,91.08 444.276,91.08 445.392,91.08 446.508,91.08 447.624,91.08 448.74,91.08 449.856,91.08 450.972,91.08 452.088,91.08 453.204,91.08 454.32,91.08 455.436,91.08 456.552,91.08 457.668,91.08 458.784,91.08 459.9,91.08 461.016,91.08 462.132,91.08 463.248,91.08 464.364,91.08 465.48,91.08 466.596,91.08 467.712,91.08 468.828,91.08 469.944,91.08 471.06,91.08 472.176,91.08 473.292,91.08 474.408,91.08 475.524,91.08 476.64,91.08 477.756,91.08 478.872,91.08 479.988,91.08 481.104,91.08 482.22,91.08 483.336,91.08 484.452,91.08 485.568,91.08 486.684,91.08 487.8,91.08 488.916,91.08 490.032,91.08 491.148,91.08 492.264,91.08 493.38,91.08 494.496,91.08 495.612,91.08 496.728,91.08 497.844,91.08 498.96,91.08 500.076,91.08 501.192,91.08 502.308,91.08 503.424,91.08 504.54,91.08 505.656,91.08 506.772,91.08 507.888,91.08 509.004,91.08 510.12,91.08 511.236,91.08 512.352,91.08 513.468,91.08 514.584,91.08 515.7,91.08 516.816,91.08 517.932,91.08 519.048,91.08 520.164,91.08"/>
<polyline fill="none" stroke="#ff0000" stroke-width="0.5" points="74.88,91.0768 75.996,91.0769 77.112,91.077 78.228,91.0774 79.344,91.0773 80.46,91.0764 81.576,91.0747 82.692,91.0745 83.808,91.0759 84.924,91.0781 86.04,91.0784 87.156,91.077 88.272,91.075 89.388,91.0753 90.504,91.0775 91.62,91.0789 92.736,91.0777 93.852,91.0757 94.968,91.0751 96.084,91.0772 97.2,91.079 98.316,91.0793 99.432,91.0768 100.548,91.0747 101.664,91.0734 102.78,91.0725 103.896,91.0707 105.012,91.0683 106.128,91.0653 107.244,91.0625 108.36,91.0606 109.476,91.0579 110.592,91.0554 111.708,91.0534 112.824,91.0524 113.94,91.0525 115.056,91.0517 116.172,91.0502 117.288,91.0493 118.404,91.05 119.52,91.0516 120.636,91.054 121.752,91.0556 122.868,91.058 123.984,91.0618 125.1,91.0666 126.216,91.0715 127.332,91.0756 128.448,91.08 129.564,91.0839 130.68,91.0883 131.796,91.0922 132.912,91.0966 134.028,91.1002 135.144,91.1028 136.26,91.1047 137.376,91.1064 138.492,91.1075 139.608,91.1084 140.724,91.1083 141.84,91.1069 142.956,91.1052 144.072,91.1033 145.188,91.1009 146.304,91.0983 147.42,91.0951 148.536,91.0922 149.652,91.0891 150.768,91.0866 151.884,91.0827 153,91.0791 154.116,91.0757 155.232,91.0741 156.348,91.0737 157.464,91.0726 158.58,91.0714 159.696,91.0701 160.812,91.0696 161.928,91.0701 163.044,91.0705 164.16,91.0711 165.276,91.0725 166.392,91.075 167.508,91.0775 168.624,91.08 169.74,91.0827 170.856,91.085 171.972,91.0869 173.088,91.0892 174.204,91.0917 175.32,91.0942 176.436,91.0975 177.552,91.1014 178.668,91.1049 179.784,91.1086 180.9,91.1118 182.016,91.115 183.132,91.1182 184.248,91.1214 185.364,91.1243 186.48,91.1266 187.596,91.1277 188.712,91.1284 189.828,91.1291 190.944,91.1306 192.06,91.1319 193.176,91.1329 194.292,91.1323 195.408,91.129 196.524,91.1235 197.64,91.1157 198.756,91.1063 199.872,91.0956 200.988,91.0829 202.104,91.0681 203.22,91.0502 204.336,91.0298 205.452,91.0052 206.568,90.9764 207.684,90.9437 208.8,90.9064 209.916,90.8654 211.032,90.82 212.148,90.7707 213.264,90.7166 214.38,90.6579 215.496,90.5947 216.612,90.5272 217.728,90.4555 218.844,90.3797 219.96,90.3006 221.076,90.2175 222.192,90.1309 223.308,90.0423 224.424,89.9542 225.54,89.8663 226.656,89.781 227.772,89.6965 228.888,89.6116 230.004,89.5234 231.12,89.4281 232.236,89.3224 233.352,89.199 234.468,89.0533 235.584,88.8782 236.7,88.6746 237.816,88.4548 238.932,88.2503 240.048,88.1121 241.164,88.1009 242.28,88.2657 243.396,88.6236 244.512,89.1332 245.628,89.6875 246.744,90.1375 247.86,90.3525 248.976,90.2923 250.092,90.0319 251.208,89.6971 252.324,89.3862 253.44,89.141 254.556,88.9672 255.672,88.8582 256.788,88.8071 257.904,88.8103 259.02,88.8618 260.136,88.9503 261.252,89.0576 262.368,89.1626 263.484,89.2518 264.6,89.3231 265.716,89.3797 266.832,89.4275 267.948,89.4708 269.064,89.5142 270.18,89.5617 271.296,89.6133 272.412,89.6675 273.528,89.7203 274.644,89.7723 275.76,89.8236 276.876,89.8748 277.992,89.9254 279.108,89.9757 280.224,90.0287 281.34,90.0886 282.456,90.1598 283.572,90.2437 284.688,90.3441 285.804,90.4595 286.92,90.5747 288.036,90.6726 289.152,90.78 290.268,91.0166 291.384,91.5549 292.5,92.4995 293.616,93.7524 294.732,95.0072 295.848,95.9021 296.964,96.1929 298.08,95.7976 299.196,94.8034 300.312,93.5092 301.428,92.3211 302.544,91.5224 303.66,91.14 304.776,91.0226 305.892,90.9911 307.008,90.9484 308.124,90.8835 309.24,90.818 310.356,90.7676 311.472,90.7316 312.588,90.7088 313.704,90.6971 314.82,90.6938 315.936,90.6933 317.052,90.6932 318.168,90.6938 319.284,90.6965 320.4,90.7031 321.516,90.7141 322.632,90.7262 323.748,90.7359 324.864,90.7416 325.98,90.7466 327.096,90.7544 328.212,90.7668 329.328,90.782 330.444,90.8013 331.56,90.8251 332.676,90.8578 333.792,90.9036 334.908,90.9642 336.024,91.0414 337.14,91.1345 338.256,91.2368 339.372,91.3358 340.488,91.4085 341.604,91.4251 342.72,91.3603 343.836,91.2079 344.952,90.9895 346.068,90.7427 347.184,90.509 348.3,90.3182 349.416,90.1849 350.532,90.1127 351.648,90.0952 352.764,90.1222 353.88,90.1819 354.996,90.2612 356.112,90.3493 357.228,90.4367 358.344,90.5164 359.46,90.5873 360.576,90.6481 361.692,90.6996 362.808,90.7438 363.924,90.7811 365.04,90.8136 366.156,90.8415 367.272,90.8664 368.388,90.8901 369.504,90.9135 370.62,90.9359 371.736,90.9572 372.852,90.9785 373.968,90.9988 375.084,91.0179 376.2,91.0362 377.316,91.0529 378.432,91.0689 379.548,91.0837 380.664,91.0975 381.78,91.1105 382.896,91.1219 384.012,91.132 385.128,91.1406 386.244,91.1491 387.36,91.1568 388.476,91.1634 389.592,91.1678 390.708,91.1702 391.824,91.1721 392.94,91.1742 394.056,91.1765 395.172,91.1778 396.288,91.1783 397.404,91.1775 398.52,91.1763 399.636,91.175 400.752,91.1722 401.868,91.1691 402.984,91.1646 404.1,91.1598 405.216,91.1553 406.332,91.1514 407.448,91.1479 408.564,91.145 409.68,91.1416 410.796,91.1382 411.912,91.1332 413.028,91.1274 414.144,91.1218 415.26,91.118 416.376,91.1154 417.492,91.1133 418.608,91.11 419.724,91.1067 420.84,91.1039 421.956,91.1017 423.072,91.0986 424.188,91.0949 425.304,91.0922 426.42,91.0909 427.536,91.0914 428.652,91.0911 429.768,91.0889 430.884,91.0856 432,91.0828 433.116,91.0827 434.232,91.085 435.348,91.0876 436.464,91.0879 437.58,91.0872 438.696,91.0874 439.812,91.0903 440.928,91.0942 442.044,91.0963 443.16,91.0961 444.276,91.0974 445.392,91.101 446.508,91.1063 447.624,91.1086 448.74,91.1093 449.856,91.1107 450.972,91.115 452.088,91.1199 453.204,91.1209 454.32,91.1183 455.436,91.1147 456.552,91.1128 457.668,91.1129 458.784,91.1124 459.9,91.1099 461.016,91.1036 462.132,91.0962 463.248,91.0907 464.364,91.0881 465.48,91.0865 466.596,91.0825 467.712,91.0755 468.828,91.0692 469.944,91.0652 471.06,91.0633 472.176,91.0594 473.292,91.0537 474.408,91.0483 475.524,91.0472 476.64,91.0482 477.756,91.0469 478.872,91.0436 479.988,91.0427 481.104,91.047 482.22,91.0544 483.336,91.0574 484.452,91.0545 485.568,91.0521 486.684,91.0573 487.8,91.068 488.916,91.0752 490.032,91.0734 491.148,91.0678 492.264,91.0682 493.38,91.0765 494.496,91.0856 495.612,91.0864 496.728,91.0813 497.844,91.0777 498.96,91.0808 500.076,91.0857 501.192,91.0866 502.308,91.082 503.424,91.0775 504.54,91.0782 505.656,91.0815 506.772,91.0819 507.888,91.0793 509.004,91.0762 510.12,91.0761 511.236,91.0778 512.352,91.0778 513.468,91.0752 514.584,91.0732 515.7,91.0742 516.816,91.0767 517.932,91.0761 519.048,91.074 520.164,91.0738"/>
<polygon fill="#ffffff" points="518.535,67.3768 518.535,35.1447 518.535,67.3768"/>
<polygon fill="#ffffff" points="518.535,35.1447 518.535,35.1447 518.535,67.3768"/>
<polygon fill="#ffffff" points="340.574,35.1447 518.535,35.1447 340.574,35.1447"/>
<polygon fill="#ffffff" points="518.535,35.1447 518.535,35.1447 340.574,35.1447"/>
<polygon fill="#ffffff" points="340.574,67.3768 518.535,67.3768 340.574,35.1447"/>
<polygon fill="#ffffff" points="518.535,67.3768 518.535,35.1447 340.574,35.1447"/>
<polyline fill="none" stroke="#000000" stroke-width="0.5" stroke-dasharray="16,0" points="340.574,67.3768 518.535,67.3768"/>
<polyline fill="none" stroke="#000000" stroke-width="0.5" stroke-dasharray="16,0" points="340.574,35.1447 518.535,35.1447"/>
<polyline fill="none" stroke="#000000" stroke-width="0.5" stroke-dasharray="16,0" points="340.574,35.1447 518.535,35.1447"/>
<polyline fill="none" stroke="#000000" stroke-width="0.5" stroke-dasharray="16,0" points="340.574,67.3768 518.535,67.3768"/>
<polyline fill="none" stroke="#000000" stroke-width="0.5" stroke-dasharray="16,0" points="340.574,67.3768 340.574,35.1447"/>
<polyline fill="none" stroke="#000000" stroke-width="0.5" stroke-dasharray="16,0" points="518.535,67.3768 518.535,35.1447"/>
<polyline fill="none" stroke="#000000" stroke-width="0.5" stroke-dasharray="16,0" points="518.535,67.3768 518.535,35.1447"/>
<polyline fill="none" stroke="#000000" stroke-width="0.5" stroke-dasharray="16,0" points="340.574,67.3768 340.574,35.1447 340.574,35.1447"/>
<polyline fill="none" stroke="#000000" stroke-width="0.5" stroke-dasharray="16,0" points="518.535,35.1447 518.535,35.1447"/>
<polyline fill="none" stroke="#000000" stroke-width="0.5" stroke-dasharray="16,0" points="518.535,67.3768 518.535,67.3768"/>
<polyline fill="none" stroke="#000000" stroke-width="0.5" stroke-dasharray="16,0" points="340.574,67.3768 340.574,67.3768"/>
<text fill="#000000" x="366.648" y="43.2027" font-size="10" text-anchor="start" baseline-shift="-5" font-family="Helvetica">Masse volumique vraie</text>
<text fill="#000000" x="366.648" y="59.3188" font-size="10" text-anchor="start" baseline-shift="-5" font-family="Helvetica">Masse volumique reconstruite</text>
<polyline fill="none" stroke="#0000ff" stroke-width="0.5" points="343.318,43.2027 363.903,43.2027"/>
<polyline fill="none" stroke="#ff0000" stroke-width="0.5" points="343.318,59.3188 363.903,59.3188"/>
</g>
</svg>
