<?xml version="1.0" encoding="UTF-8" standalone="no"?>
<svg
   xmlns:dc="http://purl.org/dc/elements/1.1/"
   xmlns:cc="http://creativecommons.org/ns#"
   xmlns:rdf="http://www.w3.org/1999/02/22-rdf-syntax-ns#"
   xmlns:svg="http://www.w3.org/2000/svg"
   xmlns="http://www.w3.org/2000/svg"
   xmlns:sodipodi="http://sodipodi.sourceforge.net/DTD/sodipodi-0.dtd"
   xmlns:inkscape="http://www.inkscape.org/namespaces/inkscape"
   width="576px"
   height="432px"
   viewBox="0 0 576 432"
   id="svg2"
   version="1.1"
   inkscape:version="0.48.4 r9939"
   sodipodi:docname="filtre_ecrete.svg"
   inkscape:export-filename="/home/dinsenma/Desktop/Stage_M2/perspectives/img/coupe_ecrete_filtre.png"
   inkscape:export-xdpi="200"
   inkscape:export-ydpi="200">
  <metadata
     id="metadata186">
    <rdf:RDF>
      <cc:Work
         rdf:about="">
        <dc:format>image/svg+xml</dc:format>
        <dc:type
           rdf:resource="http://purl.org/dc/dcmitype/StillImage" />
        <dc:title>glps_renderer figure</dc:title>
      </cc:Work>
    </rdf:RDF>
  </metadata>
  <sodipodi:namedview
     pagecolor="#ffffff"
     bordercolor="#666666"
     borderopacity="1"
     objecttolerance="10"
     gridtolerance="10"
     guidetolerance="10"
     inkscape:pageopacity="0"
     inkscape:pageshadow="2"
     inkscape:window-width="1600"
     inkscape:window-height="847"
     id="namedview184"
     showgrid="false"
     inkscape:zoom="1.5451593"
     inkscape:cx="221.06387"
     inkscape:cy="216.14003"
     inkscape:window-x="0"
     inkscape:window-y="31"
     inkscape:window-maximized="1"
     inkscape:current-layer="svg2" />
  <title
     id="title4">glps_renderer figure</title>
  <desc
     id="desc6">
Creator: GL2PS 1.3.8, (C) 1999-2012 C. Geuzaine
For: Octave
CreationDate: Tue Jul 19 16:12:35 2016
</desc>
  <defs
     id="defs8" />
  <polygon
     style="fill:#ffffff;stroke-width:2.50000000000000000;stroke-miterlimit:4;stroke-dasharray:none"
     id="polygon12"
     points="521.28,384.48 521.28,384.48 521.28,32.4001 " />
  <polygon
     style="fill:#ffffff;stroke-width:2.50000000000000000;stroke-miterlimit:4;stroke-dasharray:none"
     id="polygon14"
     points="521.28,384.48 521.28,32.4001 521.28,32.4001 " />
  <polygon
     style="fill:#ffffff;stroke-width:2.50000000000000000;stroke-miterlimit:4;stroke-dasharray:none"
     id="polygon16"
     points="74.88,32.4001 74.88,32.4001 521.28,32.4001 " />
  <polygon
     style="fill:#ffffff;stroke-width:2.50000000000000000;stroke-miterlimit:4;stroke-dasharray:none"
     id="polygon18"
     points="74.88,32.4001 521.28,32.4001 521.28,32.4001 " />
  <polygon
     style="fill:#ffffff;stroke-width:2.50000000000000000;stroke-miterlimit:4;stroke-dasharray:none"
     id="polygon20"
     points="74.88,32.4001 74.88,384.48 521.28,384.48 " />
  <polygon
     style="fill:#ffffff;stroke-width:2.50000000000000000;stroke-miterlimit:4;stroke-dasharray:none"
     id="polygon22"
     points="74.88,32.4001 521.28,384.48 521.28,32.4001 " />
  <polyline
     style="fill:none;stroke:#000000;stroke-width:2.50000000000000000;stroke-dasharray:none;stroke-miterlimit:4"
     id="polyline24"
     points="74.88,384.48 521.28,384.48" />
  <polyline
     style="fill:none;stroke:#000000;stroke-width:2.50000000000000000;stroke-dasharray:none;stroke-miterlimit:4"
     id="polyline26"
     points="74.88,32.4001 521.28,32.4001" />
  <polyline
     style="fill:none;stroke:#000000;stroke-width:2.50000000000000000;stroke-dasharray:none;stroke-miterlimit:4"
     id="polyline28"
     points="74.88,32.4001 521.28,32.4001" />
  <polyline
     style="fill:none;stroke:#000000;stroke-width:2.50000000000000000;stroke-dasharray:none;stroke-miterlimit:4"
     id="polyline30"
     points="74.88,384.48 521.28,384.48" />
  <polyline
     style="fill:none;stroke:#000000;stroke-width:2.50000000000000000;stroke-dasharray:none;stroke-miterlimit:4"
     id="polyline32"
     points="74.88,384.48 74.88,32.4001" />
  <polyline
     style="fill:none;stroke:#000000;stroke-width:2.50000000000000000;stroke-dasharray:none;stroke-miterlimit:4"
     id="polyline34"
     points="521.28,384.48 521.28,32.4001" />
  <polyline
     style="fill:none;stroke:#000000;stroke-width:2.50000000000000000;stroke-dasharray:none;stroke-miterlimit:4"
     id="polyline36"
     points="521.28,384.48 521.28,32.4001" />
  <polyline
     style="fill:none;stroke:#000000;stroke-width:2.50000000000000000;stroke-dasharray:none;stroke-miterlimit:4"
     id="polyline38"
     points="74.88,384.48 74.88,32.4001 74.88,32.4001" />
  <polyline
     style="fill:none;stroke:#000000;stroke-width:2.50000000000000000;stroke-dasharray:none;stroke-miterlimit:4"
     id="polyline40"
     points="521.28,32.4001 521.28,32.4001" />
  <polyline
     style="fill:none;stroke:#000000;stroke-width:2.50000000000000000;stroke-dasharray:none;stroke-miterlimit:4"
     id="polyline42"
     points="521.28,384.48 521.28,384.48" />
  <polyline
     style="fill:none;stroke:#000000;stroke-width:2.50000000000000000;stroke-dasharray:none;stroke-miterlimit:4"
     id="polyline44"
     points="74.88,384.48 74.88,384.48 74.88,380.015" />
  <polyline
     style="fill:none;stroke:#000000;stroke-width:2.50000000000000000;stroke-dasharray:none;stroke-miterlimit:4"
     id="polyline46"
     points="74.88,32.4001 74.88,36.8651" />
  <polyline
     style="fill:none;stroke:#000000;stroke-width:2.50000000000000000;stroke-dasharray:none;stroke-miterlimit:4"
     id="polyline48"
     points="164.16,384.48 164.16,380.015" />
  <polyline
     style="fill:none;stroke:#000000;stroke-width:2.50000000000000000;stroke-dasharray:none;stroke-miterlimit:4"
     id="polyline50"
     points="164.16,32.4001 164.16,36.8651" />
  <polyline
     style="fill:none;stroke:#000000;stroke-width:2.50000000000000000;stroke-dasharray:none;stroke-miterlimit:4"
     id="polyline52"
     points="253.44,384.48 253.44,380.015" />
  <polyline
     style="fill:none;stroke:#000000;stroke-width:2.50000000000000000;stroke-dasharray:none;stroke-miterlimit:4"
     id="polyline54"
     points="253.44,32.4001 253.44,36.8651" />
  <polyline
     style="fill:none;stroke:#000000;stroke-width:2.50000000000000000;stroke-dasharray:none;stroke-miterlimit:4"
     id="polyline56"
     points="342.72,384.48 342.72,380.015" />
  <polyline
     style="fill:none;stroke:#000000;stroke-width:2.50000000000000000;stroke-dasharray:none;stroke-miterlimit:4"
     id="polyline58"
     points="342.72,32.4001 342.72,36.8651" />
  <polyline
     style="fill:none;stroke:#000000;stroke-width:2.50000000000000000;stroke-dasharray:none;stroke-miterlimit:4"
     id="polyline60"
     points="432,384.48 432,380.015" />
  <polyline
     style="fill:none;stroke:#000000;stroke-width:2.50000000000000000;stroke-dasharray:none;stroke-miterlimit:4"
     id="polyline62"
     points="432,32.4001 432,36.8651" />
  <polyline
     style="fill:none;stroke:#000000;stroke-width:2.50000000000000000;stroke-dasharray:none;stroke-miterlimit:4"
     id="polyline64"
     points="521.28,384.48 521.28,380.015" />
  <polyline
     style="fill:none;stroke:#000000;stroke-width:2.50000000000000000;stroke-dasharray:none;stroke-miterlimit:4"
     id="polyline66"
     points="521.28,32.4001 521.28,36.8651" />
  <text
     style="font-size:15px;text-anchor:middle;baseline-shift:-10px;fill:#000000;font-family:Helvetica;stroke-width:2.50000000000000000;stroke-miterlimit:4;stroke-dasharray:none"
     id="text68"
     baseline-shift="-10"
     font-size="10"
     y="389.48099"
     x="74.879997">0</text>
  <text
     style="font-size:15px;text-anchor:middle;baseline-shift:-10px;fill:#000000;font-family:Helvetica;stroke-width:2.50000000000000000;stroke-miterlimit:4;stroke-dasharray:none"
     id="text70"
     baseline-shift="-10"
     font-size="10"
     y="389.48099"
     x="164.16">20</text>
  <text
     style="font-size:15px;text-anchor:middle;baseline-shift:-10px;fill:#000000;font-family:Helvetica;stroke-width:2.50000000000000000;stroke-miterlimit:4;stroke-dasharray:none"
     id="text72"
     baseline-shift="-10"
     font-size="10"
     y="389.48099"
     x="253.44">40</text>
  <text
     style="font-size:15px;text-anchor:middle;baseline-shift:-10px;fill:#000000;font-family:Helvetica;stroke-width:2.50000000000000000;stroke-miterlimit:4;stroke-dasharray:none"
     id="text74"
     baseline-shift="-10"
     font-size="10"
     y="389.48099"
     x="342.72">60</text>
  <text
     style="font-size:15px;text-anchor:middle;baseline-shift:-10px;fill:#000000;font-family:Helvetica;stroke-width:2.50000000000000000;stroke-miterlimit:4;stroke-dasharray:none"
     id="text76"
     baseline-shift="-10"
     font-size="10"
     y="389.48099"
     x="432">80</text>
  <text
     style="font-size:15px;text-anchor:middle;baseline-shift:-10px;fill:#000000;font-family:Helvetica;stroke-width:2.50000000000000000;stroke-miterlimit:4;stroke-dasharray:none"
     id="text78"
     baseline-shift="-10"
     font-size="10"
     y="389.48099"
     x="521.28003">100</text>
  <polyline
     style="fill:none;stroke:#000000;stroke-width:2.50000000000000000;stroke-dasharray:none;stroke-miterlimit:4"
     id="polyline80"
     points="74.88,384.48 79.348,384.48" />
  <polyline
     style="fill:none;stroke:#000000;stroke-width:2.50000000000000000;stroke-dasharray:none;stroke-miterlimit:4"
     id="polyline82"
     points="521.28,384.48 516.812,384.48" />
  <polyline
     style="fill:none;stroke:#000000;stroke-width:2.50000000000000000;stroke-dasharray:none;stroke-miterlimit:4"
     id="polyline84"
     points="74.88,334.183 79.348,334.183" />
  <polyline
     style="fill:none;stroke:#000000;stroke-width:2.50000000000000000;stroke-dasharray:none;stroke-miterlimit:4"
     id="polyline86"
     points="521.28,334.183 516.812,334.183" />
  <polyline
     style="fill:none;stroke:#000000;stroke-width:2.50000000000000000;stroke-dasharray:none;stroke-miterlimit:4"
     id="polyline88"
     points="74.88,283.886 79.348,283.886" />
  <polyline
     style="fill:none;stroke:#000000;stroke-width:2.50000000000000000;stroke-dasharray:none;stroke-miterlimit:4"
     id="polyline90"
     points="521.28,283.886 516.812,283.886" />
  <polyline
     style="fill:none;stroke:#000000;stroke-width:2.50000000000000000;stroke-dasharray:none;stroke-miterlimit:4"
     id="polyline92"
     points="74.88,233.589 79.348,233.589" />
  <polyline
     style="fill:none;stroke:#000000;stroke-width:2.50000000000000000;stroke-dasharray:none;stroke-miterlimit:4"
     id="polyline94"
     points="521.28,233.589 516.812,233.589" />
  <polyline
     style="fill:none;stroke:#000000;stroke-width:2.50000000000000000;stroke-dasharray:none;stroke-miterlimit:4"
     id="polyline96"
     points="74.88,183.292 79.348,183.292" />
  <polyline
     style="fill:none;stroke:#000000;stroke-width:2.50000000000000000;stroke-dasharray:none;stroke-miterlimit:4"
     id="polyline98"
     points="521.28,183.292 516.812,183.292" />
  <polyline
     style="fill:none;stroke:#000000;stroke-width:2.50000000000000000;stroke-dasharray:none;stroke-miterlimit:4"
     id="polyline100"
     points="74.88,132.994 79.348,132.994" />
  <polyline
     style="fill:none;stroke:#000000;stroke-width:2.50000000000000000;stroke-dasharray:none;stroke-miterlimit:4"
     id="polyline102"
     points="521.28,132.994 516.812,132.994" />
  <polyline
     style="fill:none;stroke:#000000;stroke-width:2.50000000000000000;stroke-dasharray:none;stroke-miterlimit:4"
     id="polyline104"
     points="74.88,82.6973 79.348,82.6973" />
  <polyline
     style="fill:none;stroke:#000000;stroke-width:2.50000000000000000;stroke-dasharray:none;stroke-miterlimit:4"
     id="polyline106"
     points="521.28,82.6973 516.812,82.6973" />
  <polyline
     style="fill:none;stroke:#000000;stroke-width:2.50000000000000000;stroke-dasharray:none;stroke-miterlimit:4"
     id="polyline108"
     points="74.88,32.4001 79.348,32.4001" />
  <polyline
     style="fill:none;stroke:#000000;stroke-width:2.50000000000000000;stroke-dasharray:none;stroke-miterlimit:4"
     id="polyline110"
     points="521.28,32.4001 516.812,32.4001" />
  <text
     style="font-size:15px;text-anchor:end;baseline-shift:-5px;fill:#000000;font-family:Helvetica;stroke-width:2.50000000000000000;stroke-miterlimit:4;stroke-dasharray:none"
     id="text112"
     baseline-shift="-5"
     font-size="10"
     y="384.48001"
     x="69.875504">4800</text>
  <text
     style="font-size:15px;text-anchor:end;baseline-shift:-5px;fill:#000000;font-family:Helvetica;stroke-width:2.50000000000000000;stroke-miterlimit:4;stroke-dasharray:none"
     id="text114"
     baseline-shift="-5"
     font-size="10"
     y="334.18301"
     x="69.875504">5000</text>
  <text
     style="font-size:15px;text-anchor:end;baseline-shift:-5px;fill:#000000;font-family:Helvetica;stroke-width:2.50000000000000000;stroke-miterlimit:4;stroke-dasharray:none"
     id="text116"
     baseline-shift="-5"
     font-size="10"
     y="283.88599"
     x="69.875504">5200</text>
  <text
     style="font-size:15px;text-anchor:end;baseline-shift:-5px;fill:#000000;font-family:Helvetica;stroke-width:2.50000000000000000;stroke-miterlimit:4;stroke-dasharray:none"
     id="text118"
     baseline-shift="-5"
     font-size="10"
     y="233.589"
     x="69.875504">5400</text>
  <text
     style="font-size:15px;text-anchor:end;baseline-shift:-5px;fill:#000000;font-family:Helvetica;stroke-width:2.50000000000000000;stroke-miterlimit:4;stroke-dasharray:none"
     id="text120"
     baseline-shift="-5"
     font-size="10"
     y="183.291"
     x="69.875504">5600</text>
  <text
     style="font-size:15px;text-anchor:end;baseline-shift:-5px;fill:#000000;font-family:Helvetica;stroke-width:2.50000000000000000;stroke-miterlimit:4;stroke-dasharray:none"
     id="text122"
     baseline-shift="-5"
     font-size="10"
     y="132.994"
     x="69.875504">5800</text>
  <text
     style="font-size:15px;text-anchor:end;baseline-shift:-5px;fill:#000000;font-family:Helvetica;stroke-width:2.50000000000000000;stroke-miterlimit:4;stroke-dasharray:none"
     id="text124"
     baseline-shift="-5"
     font-size="10"
     y="82.697197"
     x="69.875504">6000</text>
  <text
     style="font-size:15px;text-anchor:end;baseline-shift:-5px;fill:#000000;font-family:Helvetica;stroke-width:2.50000000000000000;stroke-miterlimit:4;stroke-dasharray:none"
     id="text126"
     baseline-shift="-5"
     font-size="10"
     y="32.400101"
     x="69.875504">6200</text>
  <text
     style="font-size:15px;text-anchor:middle;baseline-shift:-10px;fill:#000000;font-family:Helvetica;stroke-width:2.50000000000000000;stroke-miterlimit:4;stroke-dasharray:none"
     id="text128"
     baseline-shift="-10"
     font-size="10"
     y="402.48099"
     x="298.07999">mm</text>
  <text
     style="font-size:15px;text-anchor:middle;baseline-shift:0px;fill:#000000;stroke-width:2.5;stroke-miterlimit:4;stroke-dasharray:none;font-family:Helvetica"
     id="text130"
     baseline-shift="0"
     transform="matrix(0,-1,1,0,0,0)"
     font-size="10"
     y="32.722961"
     x="-208.44">Vitesse en m/s</text>
  <polyline
     style="fill:none;stroke:#0000ff;stroke-width:2.50000000000000000;stroke-miterlimit:4;stroke-dasharray:none"
     id="polyline132"
     points="74.88,82.6973 75.996,82.6973 77.112,82.6973 78.228,82.6973 79.344,82.6973 80.46,82.6973 81.576,82.6973 82.692,82.6973 83.808,82.6973 84.924,82.6973 86.04,82.6973 87.156,82.6973 88.272,82.6973 89.388,82.6973 90.504,82.6973 91.62,82.6973 92.736,82.6973 93.852,82.6973 94.968,82.6973 96.084,82.6973 97.2,82.6973 98.316,82.6973 99.432,82.6973 100.548,82.6973 101.664,82.6973 102.78,82.6973 103.896,82.6973 105.012,82.6973 106.128,82.6973 107.244,82.6973 108.36,82.6973 109.476,82.6973 110.592,82.6973 111.708,82.6973 112.824,82.6973 113.94,82.6973 115.056,82.6973 116.172,82.6973 117.288,82.6973 118.404,82.6973 119.52,82.6973 120.636,82.6973 121.752,82.6973 122.868,82.6973 123.984,82.6973 125.1,82.6973 126.216,82.6973 127.332,82.6973 128.448,82.6973 129.564,82.6973 130.68,82.6973 131.796,82.6973 132.912,82.6973 134.028,82.6973 135.144,82.6973 136.26,82.6973 137.376,82.6973 138.492,82.6973 139.608,82.6973 140.724,82.6973 141.84,82.6973 142.956,82.6973 144.072,82.6973 145.188,82.6973 146.304,82.6973 147.42,82.6973 148.536,82.6973 149.652,82.6973 150.768,82.6973 151.884,82.6973 153,82.6973 154.116,82.6973 155.232,82.6973 156.348,82.6973 157.464,82.6973 158.58,82.6973 159.696,82.6973 160.812,82.6973 161.928,82.6973 163.044,82.6973 164.16,82.6973 165.276,82.6973 166.392,82.6973 167.508,82.6973 168.624,82.6973 169.74,82.6973 170.856,82.6973 171.972,82.6973 173.088,82.6973 174.204,82.6973 175.32,82.6973 176.436,82.6973 177.552,82.6973 178.668,82.6973 179.784,82.6973 180.9,82.6973 182.016,82.6973 183.132,82.6973 184.248,82.6973 185.364,82.6973 186.48,82.6973 187.596,82.6973 188.712,82.6973 189.828,82.6973 190.944,82.6973 192.06,82.6973 193.176,82.6973 194.292,82.6973 195.408,82.6973 196.524,82.6973 197.64,82.6973 198.756,82.6973 199.872,82.6973 200.988,82.6973 202.104,82.6973 203.22,82.6973 204.336,82.6973 205.452,82.6973 206.568,82.6973 207.684,82.6973 208.8,82.6973 209.916,82.6973 211.032,82.6973 212.148,82.6973 213.264,82.6973 214.38,82.6973 215.496,82.6973 216.612,82.6973 217.728,82.6973 218.844,82.6973 219.96,82.6973 221.076,82.6973 222.192,82.6973 223.308,82.6973 224.424,82.6973 225.54,82.6973 226.656,82.6973 227.772,82.6973 228.888,82.6973 230.004,82.6973 231.12,82.6973 232.236,82.6973 233.352,82.6973 234.468,82.6973 235.584,82.6973 236.7,82.6973 237.816,82.6973 238.932,82.6973 240.048,82.6973 241.164,82.6973 242.28,82.6973 243.396,82.6973 244.512,82.6973 245.628,82.6973 246.744,208.44 247.86,208.44 248.976,208.44 250.092,208.44 251.208,208.44 252.324,208.44 253.44,208.44 254.556,208.44 255.672,208.44 256.788,208.44 257.904,208.44 259.02,208.44 260.136,208.44 261.252,208.44 262.368,208.44 263.484,208.44 264.6,208.44 265.716,208.44 266.832,208.44 267.948,208.44 269.064,208.44 270.18,208.44 271.296,208.44 272.412,208.44 273.528,208.44 274.644,208.44 275.76,208.44 276.876,208.44 277.992,208.44 279.108,208.44 280.224,208.44 281.34,208.44 282.456,208.44 283.572,208.44 284.688,208.44 285.804,208.44 286.92,208.44 288.036,208.44 289.152,208.44 290.268,208.44 291.384,208.44 292.5,208.44 293.616,208.44 294.732,208.44 295.848,208.44 296.964,208.44 298.08,208.44 299.196,208.44 300.312,208.44 301.428,208.44 302.544,208.44 303.66,208.44 304.776,208.44 305.892,208.44 307.008,208.44 308.124,208.44 309.24,208.44 310.356,208.44 311.472,208.44 312.588,208.44 313.704,208.44 314.82,208.44 315.936,208.44 317.052,208.44 318.168,208.44 319.284,208.44 320.4,208.44 321.516,208.44 322.632,208.44 323.748,208.44 324.864,208.44 325.98,208.44 327.096,208.44 328.212,208.44 329.328,208.44 330.444,208.44 331.56,208.44 332.676,208.44 333.792,208.44 334.908,208.44 336.024,208.44 337.14,208.44 338.256,208.44 339.372,208.44 340.488,208.44 341.604,208.44 342.72,208.44 343.836,208.44 344.952,208.44 346.068,82.6973 347.184,82.6973 348.3,82.6973 349.416,82.6973 350.532,82.6973 351.648,82.6973 352.764,82.6973 353.88,82.6973 354.996,82.6973 356.112,82.6973 357.228,82.6973 358.344,82.6973 359.46,82.6973 360.576,82.6973 361.692,82.6973 362.808,82.6973 363.924,82.6973 365.04,82.6973 366.156,82.6973 367.272,82.6973 368.388,82.6973 369.504,82.6973 370.62,82.6973 371.736,82.6973 372.852,82.6973 373.968,82.6973 375.084,82.6973 376.2,82.6973 377.316,82.6973 378.432,82.6973 379.548,82.6973 380.664,82.6973 381.78,82.6973 382.896,82.6973 384.012,82.6973 385.128,82.6973 386.244,82.6973 387.36,82.6973 388.476,82.6973 389.592,82.6973 390.708,82.6973 391.824,82.6973 392.94,82.6973 394.056,82.6973 395.172,82.6973 396.288,82.6973 397.404,82.6973 398.52,82.6973 399.636,82.6973 400.752,82.6973 401.868,82.6973 402.984,82.6973 404.1,82.6973 405.216,82.6973 406.332,82.6973 407.448,82.6973 408.564,82.6973 409.68,82.6973 410.796,82.6973 411.912,82.6973 413.028,82.6973 414.144,82.6973 415.26,82.6973 416.376,82.6973 417.492,82.6973 418.608,82.6973 419.724,82.6973 420.84,82.6973 421.956,82.6973 423.072,82.6973 424.188,82.6973 425.304,82.6973 426.42,82.6973 427.536,82.6973 428.652,82.6973 429.768,82.6973 430.884,82.6973 432,82.6973 433.116,82.6973 434.232,82.6973 435.348,82.6973 436.464,82.6973 437.58,82.6973 438.696,82.6973 439.812,82.6973 440.928,82.6973 442.044,82.6973 443.16,82.6973 444.276,82.6973 445.392,82.6973 446.508,82.6973 447.624,82.6973 448.74,82.6973 449.856,82.6973 450.972,82.6973 452.088,82.6973 453.204,82.6973 454.32,82.6973 455.436,82.6973 456.552,82.6973 457.668,82.6973 458.784,82.6973 459.9,82.6973 461.016,82.6973 462.132,82.6973 463.248,82.6973 464.364,82.6973 465.48,82.6973 466.596,82.6973 467.712,82.6973 468.828,82.6973 469.944,82.6973 471.06,82.6973 472.176,82.6973 473.292,82.6973 474.408,82.6973 475.524,82.6973 476.64,82.6973 477.756,82.6973 478.872,82.6973 479.988,82.6973 481.104,82.6973 482.22,82.6973 483.336,82.6973 484.452,82.6973 485.568,82.6973 486.684,82.6973 487.8,82.6973 488.916,82.6973 490.032,82.6973 491.148,82.6973 492.264,82.6973 493.38,82.6973 494.496,82.6973 495.612,82.6973 496.728,82.6973 497.844,82.6973 498.96,82.6973 500.076,82.6973 501.192,82.6973 502.308,82.6973 503.424,82.6973 504.54,82.6973 505.656,82.6973 506.772,82.6973 507.888,82.6973 509.004,82.6973 510.12,82.6973 511.236,82.6973 512.352,82.6973 513.468,82.6973 514.584,82.6973 515.7,82.6973 516.816,82.6973 517.932,82.6973 519.048,82.6973 520.164,82.6973" />
  <polyline
     style="fill:none;stroke:#ff0000;stroke-width:2.50000000000000000;stroke-miterlimit:4;stroke-dasharray:none"
     id="polyline134"
     points="74.88,77.9639 75.996,78.0547 77.112,78.1867 78.228,78.3588 79.344,78.5691 80.46,78.8157 81.576,79.0964 82.692,79.4083 83.808,79.7486 84.924,80.114 86.04,80.5009 87.156,80.9059 88.272,81.325 89.388,81.7542 90.504,82.1897 91.62,82.627 92.736,83.0623 93.852,83.4912 94.968,83.91 96.084,84.3145 97.2,84.7009 98.316,85.0658 99.432,85.4057 100.548,85.7176 101.664,85.9984 102.78,86.2456 103.896,86.4574 105.012,86.6315 106.128,86.7666 107.244,86.8618 108.36,86.916 109.476,86.9294 110.592,86.902 111.708,86.8344 112.824,86.7275 113.94,86.5826 115.056,86.4018 116.172,86.1868 117.288,85.9402 118.404,85.665 119.52,85.3641 120.636,85.0408 121.752,84.6985 122.868,84.3412 123.984,83.9727 125.1,83.597 126.216,83.2179 127.332,82.8398 128.448,82.4668 129.564,82.1027 130.68,81.7513 131.796,81.4168 132.912,81.1025 134.028,80.8118 135.144,80.5479 136.26,80.3136 137.376,80.1115 138.492,79.9437 139.608,79.812 140.724,79.718 141.84,79.6626 142.956,79.6464 144.072,79.6696 145.188,79.7318 146.304,79.8326 147.42,79.9706 148.536,80.1444 149.652,80.3519 150.768,80.5909 151.884,80.8584 153,81.1512 154.116,81.4659 155.232,81.799 156.348,82.1461 157.464,82.5031 158.58,82.8654 159.696,83.2285 160.812,83.5874 161.928,83.9375 163.044,84.274 164.16,84.5921 165.276,84.8871 166.392,85.1545 167.508,85.3898 168.624,85.589 169.74,85.7485 170.856,85.8643 171.972,85.9338 173.088,85.9543 174.204,85.9232 175.32,85.8392 176.436,85.701 177.552,85.5078 178.668,85.2598 179.784,84.9576 180.9,84.6023 182.016,84.1957 183.132,83.7403 184.248,83.2393 185.364,82.696 186.48,82.1149 187.596,81.5009 188.712,80.8591 189.828,80.1958 190.944,79.5171 192.06,78.8298 193.176,78.1412 194.292,77.459 195.408,76.7909 196.524,76.1448 197.64,75.5295 198.756,74.9529 199.872,74.4238 200.988,73.9504 202.104,73.5411 203.22,73.2044 204.336,72.9482 205.452,72.7803 206.568,72.7084 207.684,72.7394 208.8,72.8802 209.916,73.137 211.032,73.5155 212.148,74.0208 213.264,74.6577 214.38,75.4298 215.496,76.3404 216.612,77.3922 217.728,78.5867 218.844,79.9249 219.96,81.4072 221.076,83.033 222.192,84.8007 223.308,86.7087 224.424,88.7538 225.54,90.9323 226.656,93.2399 227.772,95.6716 228.888,98.2215 230.004,100.883 231.12,103.649 232.236,106.513 233.352,109.465 234.468,112.497 235.584,115.6 236.7,118.765 237.816,121.982 238.932,125.24 240.048,128.53 241.164,131.842 242.28,135.164 243.396,138.487 244.512,141.801 245.628,145.095 246.744,148.359 247.86,151.585 248.976,154.763 250.092,157.883 251.208,160.938 252.324,163.92 253.44,166.822 254.556,169.637 255.672,172.36 256.788,174.984 257.904,177.505 259.02,179.919 260.136,182.224 261.252,184.416 262.368,186.494 263.484,188.456 264.6,190.304 265.716,192.036 266.832,193.654 267.948,195.159 269.064,196.554 270.18,197.841 271.296,199.024 272.412,200.106 273.528,201.091 274.644,201.984 275.76,202.79 276.876,203.512 277.992,204.156 279.108,204.728 280.224,205.232 281.34,205.674 282.456,206.059 283.572,206.391 284.688,206.676 285.804,206.918 286.92,207.121 288.036,207.289 289.152,207.427 290.268,207.536 291.384,207.621 292.5,207.682 293.616,207.724 294.732,207.745 295.848,207.749 296.964,207.734 298.08,207.701 299.196,207.65 300.312,207.579 301.428,207.486 302.544,207.37 303.66,207.227 304.776,207.056 305.892,206.852 307.008,206.612 308.124,206.331 309.24,206.006 310.356,205.632 311.472,205.203 312.588,204.715 313.704,204.163 314.82,203.542 315.936,202.846 317.052,202.071 318.168,201.211 319.284,200.262 320.4,199.219 321.516,198.079 322.632,196.837 323.748,195.489 324.864,194.033 325.98,192.467 327.096,190.789 328.212,188.996 329.328,187.09 330.444,185.068 331.56,182.933 332.676,180.686 333.792,178.328 334.908,175.862 336.024,173.293 337.14,170.623 338.256,167.859 339.372,165.006 340.488,162.069 341.604,159.057 342.72,155.976 343.836,152.834 344.952,149.64 346.068,146.403 347.184,143.132 348.3,139.836 349.416,136.527 350.532,133.212 351.648,129.904 352.764,126.613 353.88,123.348 354.996,120.119 356.112,116.938 357.228,113.813 358.344,110.754 359.46,107.771 360.576,104.872 361.692,102.067 362.808,99.3619 363.924,96.765 365.04,94.283 366.156,91.922 367.272,89.6875 368.388,87.5843 369.504,85.6162 370.62,83.7867 371.736,82.0981 372.852,80.5523 373.968,79.1501 375.084,77.8917 376.2,76.7765 377.316,75.8032 378.432,74.9695 379.548,74.2726 380.664,73.7092 381.78,73.2747 382.896,72.9644 384.012,72.7729 385.128,72.694 386.244,72.7215 387.36,72.8483 388.476,73.067 389.592,73.3698 390.708,73.749 391.824,74.1964 392.94,74.7032 394.056,75.2615 395.172,75.8625 396.288,76.498 397.404,77.1594 398.52,77.8386 399.636,78.5276 400.752,79.2186 401.868,79.9041 402.984,80.5774 404.1,81.2315 405.216,81.8607 406.332,82.4587 407.448,83.0209 408.564,83.5427 409.68,84.0199 410.796,84.4493 411.912,84.8281 413.028,85.1543 414.144,85.4263 415.26,85.6431 416.376,85.8046 417.492,85.9112 418.608,85.9637 419.724,85.9636 420.84,85.9131 421.956,85.8142 423.072,85.6701 424.188,85.4841 425.304,85.2599 426.42,85.0016 427.536,84.7134 428.652,84.3997 429.768,84.0652 430.884,83.7149 432,83.3531 433.116,82.9853 434.232,82.6158 435.348,82.2498 436.464,81.8914 437.58,81.5453 438.696,81.216 439.812,80.907 440.928,80.622 442.044,80.3646 443.16,80.1376 444.276,79.9437 445.392,79.785 446.508,79.6634 447.624,79.5804 448.74,79.5367 449.856,79.5328 450.972,79.5688 452.088,79.6446 453.204,79.759 454.32,79.9109 455.436,80.0987 456.552,80.3203 457.668,80.5734 458.784,80.8552 459.9,81.1627 461.016,81.4929 462.132,81.842 463.248,82.2063 464.364,82.5819 465.48,82.9651 466.596,83.3514 467.712,83.7369 468.828,84.1175 469.944,84.4891 471.06,84.8477 472.176,85.1894 473.292,85.5107 474.408,85.8078 475.524,86.0776 476.64,86.3172 477.756,86.524 478.872,86.6954 479.988,86.8297 481.104,86.9251 482.22,86.9803 483.336,86.9947 484.452,86.9677 485.568,86.8994 486.684,86.7902 487.8,86.6409 488.916,86.4529 490.032,86.2275 491.148,85.9668 492.264,85.6733 493.38,85.3497 494.496,84.9987 495.612,84.6237 496.728,84.2282 497.844,83.816 498.96,83.3907 500.076,82.9565 501.192,82.5175 502.308,82.0776 503.424,81.6412 504.54,81.2123 505.656,80.7949 506.772,80.3931 507.888,80.0105 509.004,79.6508 510.12,79.3174 511.236,79.0135 512.352,78.7417 513.468,78.505 514.584,78.3052 515.7,78.1444 516.816,78.0241 517.932,77.9453 519.048,77.9089 520.164,77.915" />
  <polyline
     style="fill:none;stroke:#000000;stroke-width:2.5;stroke-miterlimit:4;stroke-dasharray:5,2.5;stroke-dashoffset:0"
     id="polyline136"
     points="74.88,91.7966 75.996,91.736 77.112,91.6572 78.228,91.5537 79.344,91.4408 80.46,91.3118 81.576,91.1682 82.692,91.0492 83.808,90.9623 84.924,90.9069 86.04,90.8237 87.156,90.73 88.272,90.6781 89.388,90.6359 90.504,90.6361 91.62,90.6282 92.736,90.6306 93.852,90.616 94.968,90.6568 96.084,90.7612 97.2,90.9523 98.316,91.127 99.432,91.2803 100.548,91.429 101.664,91.5565 102.78,91.6787 103.896,91.785 105.012,91.8769 106.128,91.9595 107.244,92.1021 108.36,92.2816 109.476,92.4793 110.592,92.6904 111.708,92.9288 112.824,93.2118 113.94,93.5306 115.056,93.8593 116.172,94.1525 117.288,94.4142 118.404,94.6774 119.52,94.9016 120.636,95.1234 121.752,95.332 122.868,95.4987 123.984,95.6779 125.1,95.7992 126.216,95.8857 127.332,95.959 128.448,95.9801 129.564,95.9896 130.68,95.9876 131.796,95.9349 132.912,95.8934 134.028,95.7994 135.144,95.695 136.26,95.6053 137.376,95.5357 138.492,95.4711 139.608,95.4089 140.724,95.3699 141.84,95.3132 142.956,95.2694 144.072,95.2387 145.188,95.2353 146.304,95.2582 147.42,95.2595 148.536,95.2883 149.652,95.3 150.768,95.2787 151.884,95.2097 153,95.1387 154.116,95.0739 155.232,95.0107 156.348,94.9279 157.464,94.7877 158.58,94.5818 159.696,94.3578 160.812,94.1051 161.928,93.8605 163.044,93.5831 164.16,93.3116 165.276,93.0283 166.392,92.7964 167.508,92.6136 168.624,92.5326 169.74,92.5301 170.856,92.6279 171.972,92.8041 173.088,93.0331 174.204,93.3289 175.32,93.6992 176.436,94.1066 177.552,94.5401 178.668,94.9397 179.784,95.2587 180.9,95.5151 182.016,95.6542 183.132,95.7153 184.248,95.6873 185.364,95.4952 186.48,95.178 187.596,94.6954 188.712,94.1109 189.828,93.4692 190.944,92.8354 192.06,92.2969 193.176,91.8699 194.292,91.6616 195.408,91.6656 196.524,91.9252 197.64,92.4309 198.756,93.1492 199.872,94.0358 200.988,94.9445 202.104,95.7454 203.22,96.2133 204.336,96.1918 205.452,95.5771 206.568,94.2869 207.684,92.3568 208.8,89.907 209.916,87.213 211.032,84.6318 212.148,82.6125 213.264,81.595 214.38,81.8762 215.496,83.457 216.612,85.9399 217.728,88.5192 218.844,90.1785 219.96,89.9344 221.076,87.2128 222.192,82.0724 223.308,75.2961 224.424,68.3023 225.54,62.775 226.656,60.2512 227.772,61.76 228.888,67.4632 230.004,76.6757 231.12,87.7918 232.236,98.2461 233.352,104.884 234.468,104.465 235.584,94.974 236.7,76.5074 237.816,51.8863 238.932,33.8279 240.048,32.4001 241.164,32.4001 242.28,40.0819 243.396,33.319 244.512,78.8346 245.628,134.928 246.744,190.063 247.86,232.114 248.976,253.521 250.092,254.095 251.208,238.635 252.324,214.034 253.44,188.491 254.556,170.663 255.672,166.92 256.788,177.936 257.904,198.167 259.02,218.967 260.136,232.735 261.252,236.44 262.368,232.37 263.484,225.828 264.6,221.691 265.716,221.982 266.832,225.706 267.948,230.317 269.064,233.54 270.18,234.321 271.296,232.823 272.412,229.812 273.528,226.12 274.644,222.415 275.76,219.282 276.876,217.07 277.992,215.737 279.108,214.886 280.224,214.25 281.34,214.281 282.456,216.663 283.572,223.955 284.688,238.56 285.804,259.92 286.92,283.242 288.036,293.757 289.152,282.231 290.268,275.985 291.384,301.238 292.5,331.419 293.616,384.48 294.732,384.48 295.848,384.48 296.964,384.48 298.08,384.48 299.196,384.48 300.312,384.48 301.428,362.185 302.544,331.146 303.66,317.463 304.776,317.79 305.892,322.601 307.008,312.109 308.124,286.278 309.24,264.69 310.356,251.041 311.472,244.607 312.588,242.436 313.704,241.569 314.82,240.311 315.936,238.237 317.052,235.693 318.168,233.244 319.284,231.211 320.4,229.595 321.516,228.267 322.632,226.969 323.748,225.604 324.864,224.179 325.98,222.826 327.096,221.6 328.212,220.548 329.328,219.523 330.444,218.217 331.56,216.452 332.676,214.17 333.792,211.515 334.908,209.025 336.024,207.568 337.14,208.106 338.256,210.934 339.372,215.101 340.488,218.059 341.604,216.267 342.72,206.831 343.836,189.033 344.952,164.947 346.068,138.34 347.184,113.294 348.3,92.8111 349.416,78.3752 350.532,70.1708 351.648,67.4396 352.764,68.8817 353.88,72.946 354.996,78.1495 356.112,83.0886 357.228,86.6269 358.344,88.1956 359.46,87.7001 360.576,85.538 361.692,82.492 362.808,79.3394 363.924,76.8478 365.04,75.4943 366.156,75.4419 367.272,76.5359 368.388,78.5377 369.504,80.9536 370.62,83.4336 371.736,85.5478 372.852,87.0456 373.968,87.8212 375.084,87.9126 376.2,87.4468 377.316,86.6225 378.432,85.7278 379.548,84.9491 380.664,84.4434 381.78,84.3554 382.896,84.6689 384.012,85.3544 385.128,86.3284 386.244,87.4087 387.36,88.5145 388.476,89.4886 389.592,90.2601 390.708,90.7562 391.824,90.9437 392.94,90.8418 394.056,90.5196 395.172,89.9983 396.288,89.3869 397.404,88.7731 398.52,88.2099 399.636,87.7783 400.752,87.5453 401.868,87.4663 402.984,87.5425 404.1,87.7775 405.216,88.1436 406.332,88.5875 407.448,89.0914 408.564,89.6099 409.68,90.071 410.796,90.4352 411.912,90.6174 413.028,90.6512 414.144,90.5512 415.26,90.3735 416.376,90.1256 417.492,89.8396 418.608,89.5212 419.724,89.1599 420.84,88.7523 421.956,88.3464 423.072,87.9825 424.188,87.7229 425.304,87.5645 426.42,87.5462 427.536,87.647 428.652,87.7631 429.768,87.8926 430.884,88.0589 432,88.283 433.116,88.5886 434.232,88.9272 435.348,89.2414 436.464,89.4967 437.58,89.7083 438.696,89.8585 439.812,89.9697 440.928,90.0298 442.044,90.0197 443.16,89.9376 444.276,89.837 445.392,89.7358 446.508,89.5934 447.624,89.3956 448.74,89.1782 449.856,88.9999 450.972,88.8421 452.088,88.6976 453.204,88.4907 454.32,88.2116 455.436,87.9384 456.552,87.7675 457.668,87.6519 458.784,87.6124 459.9,87.5466 461.016,87.4344 462.132,87.3069 463.248,87.27 464.364,87.2512 465.48,87.2612 466.596,87.2856 467.712,87.2947 468.828,87.3242 469.944,87.3211 471.06,87.264 472.176,87.143 473.292,87.0601 474.408,87.0343 475.524,87.1018 476.64,87.1412 477.756,87.0544 478.872,86.9077 479.988,86.858 481.104,86.9786 482.22,87.1494 483.336,87.1566 484.452,86.9252 485.568,86.6943 486.684,86.681 487.8,86.8265 488.916,86.9605 490.032,86.8468 491.148,86.5924 492.264,86.4734 493.38,86.5775 494.496,86.7359 495.612,86.7409 496.728,86.5514 497.844,86.388 498.96,86.3666 500.076,86.413 501.192,86.3346 502.308,86.1141 503.424,85.8787 504.54,85.7694 505.656,85.7501 506.772,85.6898 507.888,85.5525 509.004,85.4015 510.12,85.3209 511.236,85.2635 512.352,85.1776 513.468,85.0026 514.584,84.9321 515.7,84.9308 516.816,84.952 517.932,84.9013 519.048,84.824 520.164,84.8032" />
  <polygon
     style="fill:#ffffff;stroke-width:2.50000000000000000;stroke-miterlimit:4;stroke-dasharray:none"
     id="polygon138"
     points="300.844,381.735 300.844,381.735 300.844,333.387 " />
  <polygon
     style="fill:#ffffff;stroke-width:2.50000000000000000;stroke-miterlimit:4;stroke-dasharray:none"
     id="polygon140"
     points="300.844,381.735 300.844,333.387 300.844,333.387 " />
  <polygon
     style="fill:#ffffff;stroke-width:2.50000000000000000;stroke-miterlimit:4;stroke-dasharray:none"
     id="polygon142"
     points="77.6247,333.387 77.6247,333.387 300.844,333.387 " />
  <polygon
     style="fill:#ffffff;stroke-width:2.50000000000000000;stroke-miterlimit:4;stroke-dasharray:none"
     id="polygon144"
     points="77.6247,333.387 300.844,333.387 300.844,333.387 " />
  <polygon
     style="fill:#ffffff;stroke-width:2.50000000000000000;stroke-miterlimit:4;stroke-dasharray:none"
     id="polygon146"
     points="77.6247,333.387 77.6247,381.735 300.844,381.735 " />
  <polyline
     style="fill:none;stroke:#000000;stroke-width:2.50000000000000000;stroke-dasharray:none;stroke-miterlimit:4"
     id="polyline166"
     points="300.844,333.387 300.844,333.387" />
  <polyline
     style="fill:none;stroke:#000000;stroke-width:2.50000000000000000;stroke-dasharray:none;stroke-miterlimit:4"
     id="polyline168"
     points="300.844,381.735 300.844,381.735" />
  <polyline
     style="fill:none;stroke:#000000;stroke-width:2.50000000000000000;stroke-dasharray:none;stroke-miterlimit:4"
     id="polyline170"
     points="77.6247,381.735 77.6247,381.735" />
  <text
     style="font-size:15px;text-anchor:start;baseline-shift:-5px;fill:#000000;stroke-width:2.5;stroke-miterlimit:4;stroke-dasharray:none;font-family:Helvetica"
     id="text172"
     baseline-shift="-5"
     font-size="10"
     y="341.44501"
     x="103.699">Vitesse reconstruite écrétée</text>
  <text
     style="font-size:15px;text-anchor:start;baseline-shift:-5px;fill:#000000;stroke-width:2.5;stroke-miterlimit:4;stroke-dasharray:none;font-family:Helvetica"
     id="text174"
     baseline-shift="-5"
     font-size="10"
     y="357.561"
     x="103.699">Vitesse reconstruite écrétée puis filtrée</text>
  <text
     style="font-size:15px;text-anchor:start;baseline-shift:-5px;fill:#000000;stroke-width:2.5;stroke-miterlimit:4;stroke-dasharray:none;font-family:Helvetica"
     id="text176"
     baseline-shift="-5"
     font-size="10"
     y="373.677"
     x="103.699">Vitesse reconstruite sans traitement</text>
  <polyline
     style="fill:none;stroke:#0000ff;stroke-width:2.5;stroke-miterlimit:4;stroke-dasharray:none"
     id="polyline178"
     points="80.3693,341.445 100.954,341.445" />
  <polyline
     style="fill:none;stroke:#ff0000;stroke-width:2.5;stroke-miterlimit:4;stroke-dasharray:none"
     id="polyline180"
     points="80.3693,357.561 100.954,357.561" />
  <polyline
     style="fill:none;stroke:#000000;stroke-width:2.5;stroke-miterlimit:4;stroke-dasharray:5,2.5;stroke-dashoffset:0"
     id="polyline182"
     points="80.3693,373.677 100.954,373.677" />
</svg>
