<?xml version="1.0" encoding="UTF-8" standalone="no"?>
<svg
   xmlns:dc="http://purl.org/dc/elements/1.1/"
   xmlns:cc="http://creativecommons.org/ns#"
   xmlns:rdf="http://www.w3.org/1999/02/22-rdf-syntax-ns#"
   xmlns:svg="http://www.w3.org/2000/svg"
   xmlns="http://www.w3.org/2000/svg"
   xmlns:sodipodi="http://sodipodi.sourceforge.net/DTD/sodipodi-0.dtd"
   xmlns:inkscape="http://www.inkscape.org/namespaces/inkscape"
   width="576px"
   height="432px"
   viewBox="0 0 576 432"
   id="svg3151"
   version="1.1"
   inkscape:version="0.48.4 r9939"
   sodipodi:docname="coupe_vp_mono_vert.svg"
   inkscape:export-filename="/home/dinsenma/Desktop/Stage_M2/redaction/img/multi_param/coupe_vp_mono_vert.png"
   inkscape:export-xdpi="200"
   inkscape:export-ydpi="200">
  <metadata
     id="metadata3323">
    <rdf:RDF>
      <cc:Work
         rdf:about="">
        <dc:format>image/svg+xml</dc:format>
        <dc:type
           rdf:resource="http://purl.org/dc/dcmitype/StillImage" />
        <dc:title>glps_renderer figure</dc:title>
      </cc:Work>
    </rdf:RDF>
  </metadata>
  <sodipodi:namedview
     pagecolor="#ffffff"
     bordercolor="#666666"
     borderopacity="1"
     objecttolerance="10"
     gridtolerance="10"
     guidetolerance="10"
     inkscape:pageopacity="0"
     inkscape:pageshadow="2"
     inkscape:window-width="1600"
     inkscape:window-height="847"
     id="namedview3321"
     showgrid="false"
     inkscape:zoom="1.0925926"
     inkscape:cx="395.44997"
     inkscape:cy="319.66712"
     inkscape:window-x="0"
     inkscape:window-y="31"
     inkscape:window-maximized="1"
     inkscape:current-layer="svg3151" />
  <title
     id="title3153">glps_renderer figure</title>
  <desc
     id="desc3155">
Creator: GL2PS 1.3.8, (C) 1999-2012 C. Geuzaine
For: Octave
CreationDate: Thu Jun 23 11:12:32 2016
</desc>
  <defs
     id="defs3157" />
  <polygon
     style="fill:#ffffff;stroke-width:2.50000000000000000;stroke-miterlimit:4;stroke-dasharray:none"
     id="polygon3161"
     points="521.28,384.48 521.28,384.48 521.28,32.4 " />
  <polygon
     style="fill:#ffffff;stroke-width:2.50000000000000000;stroke-miterlimit:4;stroke-dasharray:none"
     id="polygon3163"
     points="521.28,384.48 521.28,32.4 521.28,32.4 " />
  <polygon
     style="fill:#ffffff;stroke-width:2.50000000000000000;stroke-miterlimit:4;stroke-dasharray:none"
     id="polygon3165"
     points="74.8799,32.4 74.8799,32.4 521.28,32.4 " />
  <polygon
     style="fill:#ffffff;stroke-width:2.50000000000000000;stroke-miterlimit:4;stroke-dasharray:none"
     id="polygon3167"
     points="74.8799,32.4 521.28,32.4 521.28,32.4 " />
  <polygon
     style="fill:#ffffff;stroke-width:2.50000000000000000;stroke-miterlimit:4;stroke-dasharray:none"
     id="polygon3169"
     points="74.8799,32.4 74.8799,384.48 521.28,384.48 " />
  <polygon
     style="fill:#ffffff;stroke-width:2.50000000000000000;stroke-miterlimit:4;stroke-dasharray:none"
     id="polygon3171"
     points="74.8799,32.4 521.28,384.48 521.28,32.4 " />
  <polyline
     style="fill:none;stroke:#000000;stroke-width:2.50000000000000000;stroke-miterlimit:4;stroke-dasharray:none"
     id="polyline3173"
     points="74.8799,384.48 521.28,384.48" />
  <polyline
     style="fill:none;stroke:#000000;stroke-width:2.50000000000000000;stroke-miterlimit:4;stroke-dasharray:none"
     id="polyline3175"
     points="74.8799,32.4 521.28,32.4" />
  <polyline
     style="fill:none;stroke:#000000;stroke-width:2.50000000000000000;stroke-miterlimit:4;stroke-dasharray:none"
     id="polyline3177"
     points="74.8799,32.4 521.28,32.4" />
  <polyline
     style="fill:none;stroke:#000000;stroke-width:2.50000000000000000;stroke-miterlimit:4;stroke-dasharray:none"
     id="polyline3179"
     points="74.8799,384.48 521.28,384.48" />
  <polyline
     style="fill:none;stroke:#000000;stroke-width:2.50000000000000000;stroke-miterlimit:4;stroke-dasharray:none"
     id="polyline3181"
     points="74.8799,384.48 74.8799,32.4" />
  <polyline
     style="fill:none;stroke:#000000;stroke-width:2.50000000000000000;stroke-miterlimit:4;stroke-dasharray:none"
     id="polyline3183"
     points="521.28,384.48 521.28,32.4" />
  <polyline
     style="fill:none;stroke:#000000;stroke-width:2.50000000000000000;stroke-miterlimit:4;stroke-dasharray:none"
     id="polyline3185"
     points="521.28,384.48 521.28,32.4" />
  <polyline
     style="fill:none;stroke:#000000;stroke-width:2.50000000000000000;stroke-miterlimit:4;stroke-dasharray:none"
     id="polyline3187"
     points="74.8799,384.48 74.8799,32.4 74.8799,32.4" />
  <polyline
     style="fill:none;stroke:#000000;stroke-width:2.50000000000000000;stroke-miterlimit:4;stroke-dasharray:none"
     id="polyline3189"
     points="521.28,32.4 521.28,32.4" />
  <polyline
     style="fill:none;stroke:#000000;stroke-width:2.50000000000000000;stroke-miterlimit:4;stroke-dasharray:none"
     id="polyline3191"
     points="521.28,384.48 521.28,384.48" />
  <polyline
     style="fill:none;stroke:#000000;stroke-width:2.50000000000000000;stroke-miterlimit:4;stroke-dasharray:none"
     id="polyline3193"
     points="74.8799,384.48 74.8799,384.48 74.8799,380.015" />
  <polyline
     style="fill:none;stroke:#000000;stroke-width:2.50000000000000000;stroke-miterlimit:4;stroke-dasharray:none"
     id="polyline3195"
     points="74.8799,32.4 74.8799,36.865" />
  <polyline
     style="fill:none;stroke:#000000;stroke-width:2.50000000000000000;stroke-miterlimit:4;stroke-dasharray:none"
     id="polyline3197"
     points="149.28,384.48 149.28,380.015" />
  <polyline
     style="fill:none;stroke:#000000;stroke-width:2.50000000000000000;stroke-miterlimit:4;stroke-dasharray:none"
     id="polyline3199"
     points="149.28,32.4 149.28,36.865" />
  <polyline
     style="fill:none;stroke:#000000;stroke-width:2.50000000000000000;stroke-miterlimit:4;stroke-dasharray:none"
     id="polyline3201"
     points="223.68,384.48 223.68,380.015" />
  <polyline
     style="fill:none;stroke:#000000;stroke-width:2.50000000000000000;stroke-miterlimit:4;stroke-dasharray:none"
     id="polyline3203"
     points="223.68,32.4 223.68,36.865" />
  <polyline
     style="fill:none;stroke:#000000;stroke-width:2.50000000000000000;stroke-miterlimit:4;stroke-dasharray:none"
     id="polyline3205"
     points="298.08,384.48 298.08,380.015" />
  <polyline
     style="fill:none;stroke:#000000;stroke-width:2.50000000000000000;stroke-miterlimit:4;stroke-dasharray:none"
     id="polyline3207"
     points="298.08,32.4 298.08,36.865" />
  <polyline
     style="fill:none;stroke:#000000;stroke-width:2.50000000000000000;stroke-miterlimit:4;stroke-dasharray:none"
     id="polyline3209"
     points="372.48,384.48 372.48,380.015" />
  <polyline
     style="fill:none;stroke:#000000;stroke-width:2.50000000000000000;stroke-miterlimit:4;stroke-dasharray:none"
     id="polyline3211"
     points="372.48,32.4 372.48,36.865" />
  <polyline
     style="fill:none;stroke:#000000;stroke-width:2.50000000000000000;stroke-miterlimit:4;stroke-dasharray:none"
     id="polyline3213"
     points="446.88,384.48 446.88,380.015" />
  <polyline
     style="fill:none;stroke:#000000;stroke-width:2.50000000000000000;stroke-miterlimit:4;stroke-dasharray:none"
     id="polyline3215"
     points="446.88,32.4 446.88,36.865" />
  <polyline
     style="fill:none;stroke:#000000;stroke-width:2.50000000000000000;stroke-miterlimit:4;stroke-dasharray:none"
     id="polyline3217"
     points="521.28,384.48 521.28,380.015" />
  <polyline
     style="fill:none;stroke:#000000;stroke-width:2.50000000000000000;stroke-miterlimit:4;stroke-dasharray:none"
     id="polyline3219"
     points="521.28,32.4 521.28,36.865" />
  <text
     style="font-size:20px;text-anchor:middle;baseline-shift:-10px;fill:#000000;stroke-width:2.5;stroke-miterlimit:4;stroke-dasharray:none;font-family:Helvetica"
     id="text3221"
     baseline-shift="-10"
     font-size="10"
     y="396.60001"
     x="74.879997">4800</text>
  <text
     style="font-size:20px;text-anchor:middle;baseline-shift:-10px;fill:#000000;stroke-width:2.5;stroke-miterlimit:4;stroke-dasharray:none;font-family:Helvetica"
     id="text3223"
     baseline-shift="-10"
     font-size="10"
     y="396.60001"
     x="149.28">5000</text>
  <text
     style="font-size:20px;text-anchor:middle;baseline-shift:-10px;fill:#000000;stroke-width:2.5;stroke-miterlimit:4;stroke-dasharray:none;font-family:Helvetica"
     id="text3225"
     baseline-shift="-10"
     font-size="10"
     y="396.60001"
     x="223.67999">5200</text>
  <text
     style="font-size:20px;text-anchor:middle;baseline-shift:-10px;fill:#000000;stroke-width:2.5;stroke-miterlimit:4;stroke-dasharray:none;font-family:Helvetica"
     id="text3227"
     baseline-shift="-10"
     font-size="10"
     y="396.60001"
     x="298.07999">5400</text>
  <text
     style="font-size:20px;text-anchor:middle;baseline-shift:-10px;fill:#000000;stroke-width:2.5;stroke-miterlimit:4;stroke-dasharray:none;font-family:Helvetica"
     id="text3229"
     baseline-shift="-10"
     font-size="10"
     y="396.60001"
     x="372.48001">5600</text>
  <text
     style="font-size:20px;text-anchor:middle;baseline-shift:-10px;fill:#000000;stroke-width:2.5;stroke-miterlimit:4;stroke-dasharray:none;font-family:Helvetica"
     id="text3231"
     baseline-shift="-10"
     font-size="10"
     y="396.60001"
     x="446.88">5800</text>
  <text
     style="font-size:20px;text-anchor:middle;baseline-shift:-10px;fill:#000000;stroke-width:2.5;stroke-miterlimit:4;stroke-dasharray:none;font-family:Helvetica"
     id="text3233"
     baseline-shift="-10"
     font-size="10"
     y="396.60001"
     x="521.28003">6000</text>
  <polyline
     style="fill:none;stroke:#000000;stroke-width:2.50000000000000000;stroke-miterlimit:4;stroke-dasharray:none"
     id="polyline3235"
     points="74.8799,384.48 79.3479,384.48" />
  <polyline
     style="fill:none;stroke:#000000;stroke-width:2.50000000000000000;stroke-miterlimit:4;stroke-dasharray:none"
     id="polyline3237"
     points="521.28,384.48 516.812,384.48" />
  <polyline
     style="fill:none;stroke:#000000;stroke-width:2.50000000000000000;stroke-miterlimit:4;stroke-dasharray:none"
     id="polyline3239"
     points="74.8799,314.064 79.3479,314.064" />
  <polyline
     style="fill:none;stroke:#000000;stroke-width:2.50000000000000000;stroke-miterlimit:4;stroke-dasharray:none"
     id="polyline3241"
     points="521.28,314.064 516.812,314.064" />
  <polyline
     style="fill:none;stroke:#000000;stroke-width:2.50000000000000000;stroke-miterlimit:4;stroke-dasharray:none"
     id="polyline3243"
     points="74.8799,243.648 79.3479,243.648" />
  <polyline
     style="fill:none;stroke:#000000;stroke-width:2.50000000000000000;stroke-miterlimit:4;stroke-dasharray:none"
     id="polyline3245"
     points="521.28,243.648 516.812,243.648" />
  <polyline
     style="fill:none;stroke:#000000;stroke-width:2.50000000000000000;stroke-miterlimit:4;stroke-dasharray:none"
     id="polyline3247"
     points="74.8799,173.232 79.3479,173.232" />
  <polyline
     style="fill:none;stroke:#000000;stroke-width:2.50000000000000000;stroke-miterlimit:4;stroke-dasharray:none"
     id="polyline3249"
     points="521.28,173.232 516.812,173.232" />
  <polyline
     style="fill:none;stroke:#000000;stroke-width:2.50000000000000000;stroke-miterlimit:4;stroke-dasharray:none"
     id="polyline3251"
     points="74.8799,102.816 79.3479,102.816" />
  <polyline
     style="fill:none;stroke:#000000;stroke-width:2.50000000000000000;stroke-miterlimit:4;stroke-dasharray:none"
     id="polyline3253"
     points="521.28,102.816 516.812,102.816" />
  <polyline
     style="fill:none;stroke:#000000;stroke-width:2.50000000000000000;stroke-miterlimit:4;stroke-dasharray:none"
     id="polyline3255"
     points="74.8799,32.4 79.3479,32.4" />
  <polyline
     style="fill:none;stroke:#000000;stroke-width:2.50000000000000000;stroke-miterlimit:4;stroke-dasharray:none"
     id="polyline3257"
     points="521.28,32.4 516.812,32.4" />
  <text
     style="font-size:20px;text-anchor:end;baseline-shift:-5px;fill:#000000;stroke-width:2.50000000000000000;stroke-miterlimit:4;stroke-dasharray:none;font-family:Helvetica"
     id="text3259"
     baseline-shift="-5"
     font-size="10"
     y="384.48001"
     x="69.875504">-50</text>
  <text
     style="font-size:20px;text-anchor:end;baseline-shift:-5px;fill:#000000;stroke-width:2.5;stroke-miterlimit:4;stroke-dasharray:none;font-family:Helvetica"
     id="text3261"
     baseline-shift="-5"
     font-size="10"
     y="314.064"
     x="69.875504">40</text>
  <text
     style="font-size:20px;text-anchor:end;baseline-shift:-5px;fill:#000000;stroke-width:2.5;stroke-miterlimit:4;stroke-dasharray:none;font-family:Helvetica"
     id="text3263"
     baseline-shift="-5"
     font-size="10"
     y="243.64799"
     x="69.875504">30</text>
  <text
     style="font-size:20px;text-anchor:end;baseline-shift:-5px;fill:#000000;stroke-width:2.5;stroke-miterlimit:4;stroke-dasharray:none;font-family:Helvetica"
     id="text3265"
     baseline-shift="-5"
     font-size="10"
     y="173.23199"
     x="69.875504">20</text>
  <text
     style="font-size:20px;text-anchor:end;baseline-shift:-5px;fill:#000000;stroke-width:2.5;stroke-miterlimit:4;stroke-dasharray:none;font-family:Helvetica"
     id="text3267"
     baseline-shift="-5"
     font-size="10"
     y="102.816"
     x="69.875504">10</text>
  <text
     style="font-size:20px;text-anchor:end;baseline-shift:-5px;fill:#000000;stroke-width:2.50000000000000000;stroke-miterlimit:4;stroke-dasharray:none;font-family:Helvetica"
     id="text3269"
     baseline-shift="-5"
     font-size="10"
     y="32.400002"
     x="69.875504">0</text>
  <text
     style="font-size:20px;text-anchor:middle;baseline-shift:-10px;fill:#000000;stroke-width:2.5;stroke-miterlimit:4;stroke-dasharray:none;font-family:Helvetica"
     id="text3271"
     baseline-shift="-10"
     font-size="10"
     y="413.48309"
     x="298.07999">Vitesse en m/s</text>
  <text
     style="font-size:20px;text-anchor:middle;baseline-shift:0px;fill:#000000;stroke-width:2.5;stroke-miterlimit:4;stroke-dasharray:none;font-family:Helvetica"
     id="text3273"
     baseline-shift="0"
     transform="matrix(0,-1,1,0,0,0)"
     font-size="10"
     y="26.078894"
     x="-208.44">mm</text>
  <polyline
     style="fill:none;stroke:#0000ff;stroke-width:2.50000000000000000;stroke-miterlimit:4;stroke-dasharray:none"
     id="polyline3275"
     points="372.407,32.4 368.979,34.1604 362.005,35.9208 346.42,37.6812 339.7,39.4416 346.923,41.202 356.084,42.9624 359.811,44.7228 360.372,46.4832 361.452,48.2436 363.432,50.004 364.637,51.7644 364.565,53.5248 364.462,55.2852 364.761,57.0456 364.894,58.806 364.543,60.5664 363.59,62.3268 361.796,64.0872 359.775,65.8476 358.273,67.608 357.587,69.3684 356.41,71.1288 353.658,72.8892 350.567,74.6496 349.272,76.41 350.14,78.1704 351.773,79.9308 352.254,81.6912 350.671,83.4516 347.829,85.212 345.682,86.9724 344.604,88.7328 343.691,90.4932 342.645,92.2536 341.839,94.014 341.189,95.7744 340.295,97.5348 339.338,99.2952 338.483,101.056 337.942,102.816 337.83,104.576 337.96,106.337 338.051,108.097 337.544,109.858 336.669,111.618 336.022,113.378 335.751,115.139 335.558,116.899 335.239,118.66 334.992,120.42 334.842,122.18 334.631,123.941 334.067,125.701 333.197,127.462 332.49,129.222 332.072,130.982 331.646,132.743 331.053,134.503 330.425,136.264 329.905,138.024 329.464,139.784 329.004,141.545 328.402,143.305 327.745,145.066 327.141,146.826 326.628,148.586 326.265,150.347 326.004,152.107 325.805,153.868 325.586,155.628 325.207,157.388 324.732,159.149 324.37,160.909 324.301,162.67 324.488,164.43 324.956,166.19 325.547,167.951 326.001,169.711 326.036,171.472 325.694,173.232 325.313,174.992 325.243,176.753 325.668,178.513 326.356,180.274 326.96,182.034 327.218,183.794 326.948,185.555 326.155,187.315 325.005,189.076 323.79,190.836 322.698,192.596 321.684,194.357 320.828,196.117 320.247,197.878 320.194,199.638 320.837,201.398 322.089,203.159 323.856,204.919 326.183,206.68 329.099,208.44 332.463,210.2 335.95,211.961 338.976,213.721 341.069,215.482 341.942,217.242 341.175,219.002 337.433,220.763 328.629,222.523 312.622,224.284 288.516,226.044 261.998,227.804 254.415,229.565 296.869,231.325 378.416,233.086 413.817,234.846 306.607,236.606 74.8799,238.367 74.8799,240.127 74.8799,241.888 74.8799,243.648 74.8799,245.408 88.2033,247.169 346.848,248.929 448.927,250.69 398.343,252.45 293.063,254.21 243.11,255.971 263.718,257.731 302.515,259.492 328.902,261.252 339.396,263.012 340.467,264.773 339.793,266.533 340.522,268.294 340.164,270.054 336.135,271.814 329.433,273.575 322.726,275.335 317.726,277.096 314.257,278.856 311.419,280.616 309.394,282.377 308.864,284.137 309.735,285.898 311.367,287.658 313.497,289.418 316.347,291.179 319.514,292.939 321.928,294.7 323.677,296.46 325.91,298.22 328.403,299.981 330.107,301.741 330.892,303.502 331.345,305.262 331.549,307.022 331.23,308.783 330.443,310.543 329.413,312.304 328.579,314.064 328.277,315.824 328.615,317.585 329.069,319.345 328.743,321.106 327.587,322.866 326.517,324.626 326.361,326.387 326.775,328.147 327.158,329.908 327.462,331.668 327.96,333.428 328.722,335.189 329.834,336.949 331.275,338.71 332.862,340.47 334.532,342.23 336.65,343.991 339.386,345.751 342.611,347.512 345.43,349.272 347.677,351.032 350.239,352.793 352.712,354.553 353.806,356.314 353.228,358.074 352.2,359.834 352.483,361.595 353.973,363.355 354.246,365.116 351.334,366.876 346.919,368.636 344.744,370.397 346.114,372.157 347.588,373.918 345.781,375.678 343.15,377.438 344.141,379.199 344.917,380.959 347.951,382.72" />
  <polyline
     style="fill:none;stroke:#ff0000;stroke-width:2.50000000000000000;stroke-miterlimit:4;stroke-dasharray:none"
     id="polyline3277"
     points="335.28,32.4 335.28,34.1604 335.28,35.9208 335.28,37.6812 335.28,39.4416 335.28,41.202 335.28,42.9624 335.28,44.7228 335.28,46.4832 335.28,48.2436 335.28,50.004 335.28,51.7644 335.28,53.5248 335.28,55.2852 335.28,57.0456 335.28,58.806 335.28,60.5664 335.28,62.3268 335.28,64.0872 335.28,65.8476 335.28,67.608 335.28,69.3684 335.28,71.1288 335.28,72.8892 335.28,74.6496 335.28,76.41 335.28,78.1704 335.28,79.9308 335.28,81.6912 335.28,83.4516 335.28,85.212 335.28,86.9724 335.28,88.7328 335.28,90.4932 335.28,92.2536 335.28,94.014 335.28,95.7744 335.28,97.5348 335.28,99.2952 335.28,101.056 335.28,102.816 335.28,104.576 335.28,106.337 335.28,108.097 335.28,109.858 335.28,111.618 335.28,113.378 335.28,115.139 335.28,116.899 335.28,118.66 335.28,120.42 335.28,122.18 335.28,123.941 335.28,125.701 335.28,127.462 335.28,129.222 335.28,130.982 335.28,132.743 335.28,134.503 335.28,136.264 335.28,138.024 335.28,139.784 335.28,141.545 335.28,143.305 335.28,145.066 335.28,146.826 335.28,148.586 335.28,150.347 335.28,152.107 335.28,153.868 335.28,155.628 335.28,157.388 335.28,159.149 335.28,160.909 335.28,162.67 335.28,164.43 335.28,166.19 335.28,167.951 335.28,169.711 335.28,171.472 335.28,173.232 335.28,174.992 335.28,176.753 335.28,178.513 335.28,180.274 335.28,182.034 335.28,183.794 335.28,185.555 335.28,187.315 335.28,189.076 335.28,190.836 335.28,192.596 335.28,194.357 335.28,196.117 335.28,197.878 335.28,199.638 335.28,201.398 335.28,203.159 335.28,204.919 335.28,206.68 335.28,208.44 335.28,210.2 335.28,211.961 335.28,213.721 335.28,215.482 335.28,217.242 335.28,219.002 335.28,220.763 335.28,222.523 335.28,224.284 335.28,226.044 335.28,227.804 335.28,229.565 335.28,231.325 335.28,233.086 335.28,234.846 149.28,236.606 149.28,238.367 149.28,240.127 149.28,241.888 149.28,243.648 149.28,245.408 149.28,247.169 335.28,248.929 335.28,250.69 335.28,252.45 335.28,254.21 335.28,255.971 335.28,257.731 335.28,259.492 335.28,261.252 335.28,263.012 335.28,264.773 335.28,266.533 335.28,268.294 335.28,270.054 335.28,271.814 335.28,273.575 335.28,275.335 335.28,277.096 335.28,278.856 335.28,280.616 335.28,282.377 335.28,284.137 335.28,285.898 335.28,287.658 335.28,289.418 335.28,291.179 335.28,292.939 335.28,294.7 335.28,296.46 335.28,298.22 335.28,299.981 335.28,301.741 335.28,303.502 335.28,305.262 335.28,307.022 335.28,308.783 335.28,310.543 335.28,312.304 335.28,314.064 335.28,315.824 335.28,317.585 335.28,319.345 335.28,321.106 335.28,322.866 335.28,324.626 335.28,326.387 335.28,328.147 335.28,329.908 335.28,331.668 335.28,333.428 335.28,335.189 335.28,336.949 335.28,338.71 335.28,340.47 335.28,342.23 335.28,343.991 335.28,345.751 335.28,347.512 335.28,349.272 335.28,351.032 335.28,352.793 335.28,354.553 335.28,356.314 335.28,358.074 335.28,359.834 335.28,361.595 335.28,363.355 335.28,365.116 335.28,366.876 335.28,368.636 335.28,370.397 335.28,372.157 335.28,373.918 335.28,375.678 335.28,377.438 335.28,379.199 335.28,380.959 335.28,382.72" />
  <polygon
     style="fill:#ffffff;stroke-width:2.50000000000000000;stroke-miterlimit:4;stroke-dasharray:none"
     id="polygon3279"
     points="518.535,67.3768 518.535,67.3768 518.535,35.1447 " />
  <polygon
     style="fill:#ffffff;stroke-width:2.50000000000000000;stroke-miterlimit:4;stroke-dasharray:none"
     id="polygon3281"
     points="518.535,67.3768 518.535,35.1447 518.535,35.1447 " />
  <polygon
     style="fill:#ffffff;stroke-width:2.50000000000000000;stroke-miterlimit:4;stroke-dasharray:none"
     id="polygon3283"
     points="426.974,35.1447 426.974,35.1447 518.535,35.1447 " />
  <polygon
     style="fill:#ffffff;stroke-width:2.50000000000000000;stroke-miterlimit:4;stroke-dasharray:none"
     id="polygon3285"
     points="426.974,35.1447 518.535,35.1447 518.535,35.1447 " />
  <polygon
     style="fill:#ffffff;stroke-width:2.50000000000000000;stroke-miterlimit:4;stroke-dasharray:none"
     id="polygon3287"
     points="426.974,35.1447 426.974,67.3768 518.535,67.3768 " />
  <polygon
     style="fill:#ffffff;stroke-width:2.50000000000000000;stroke-miterlimit:4;stroke-dasharray:none"
     id="polygon3289"
     points="426.974,35.1447 518.535,67.3768 518.535,35.1447 " />
  <polyline
     style="fill:none;stroke:#000000;stroke-width:2.50000000000000000;stroke-miterlimit:4;stroke-dasharray:none"
     id="polyline3307"
     points="518.535,35.1447 518.535,35.1447" />
  <polyline
     style="fill:none;stroke:#000000;stroke-width:2.50000000000000000;stroke-miterlimit:4;stroke-dasharray:none"
     id="polyline3309"
     points="518.535,67.3768 518.535,67.3768" />
  <polyline
     style="fill:none;stroke:#000000;stroke-width:2.50000000000000000;stroke-miterlimit:4;stroke-dasharray:none"
     id="polyline3311"
     points="426.974,67.3768 426.974,67.3768" />
  <g
     id="g4761"
     transform="translate(-287.34902,-286.05466)">
    <text
       x="401.92059"
       y="344.78973"
       font-size="10"
       baseline-shift="-5"
       id="text3313"
       style="font-size:20px;text-anchor:start;baseline-shift:-5px;fill:#000000;stroke-width:2.5;stroke-miterlimit:4;stroke-dasharray:none;font-family:Helvetica">Reconstruite</text>
    <text
       x="401.92059"
       y="360.90582"
       font-size="10"
       baseline-shift="-5"
       id="text3315"
       style="font-size:20px;text-anchor:start;baseline-shift:-5px;fill:#000000;stroke-width:2.5;stroke-miterlimit:4;stroke-dasharray:none;font-family:Helvetica">Vraie</text>
    <polyline
       transform="translate(-51.127416,301.58703)"
       points="429.718,43.2027 450.303,43.2027"
       id="polyline3317"
       style="fill:none;stroke:#0000ff;stroke-width:2.5;stroke-miterlimit:4;stroke-dasharray:none" />
    <polyline
       transform="translate(-51.127416,301.58703)"
       points="429.718,59.3188 450.303,59.3188"
       id="polyline3319"
       style="fill:none;stroke:#ff0000;stroke-width:2.5;stroke-miterlimit:4;stroke-dasharray:none" />
  </g>
</svg>
